<?xml version="1.0" encoding="utf-8"?>
<!-- Generator: Adobe Illustrator 22.1.0, SVG Export Plug-In . SVG Version: 6.00 Build 0)  -->
<svg version="1.1" xmlns="http://www.w3.org/2000/svg" xmlns:xlink="http://www.w3.org/1999/xlink" x="0px" y="0px"
	 viewBox="0 0 300 180" style="enable-background:new 0 0 300 180;" xml:space="preserve">
<style type="text/css">
	.st0{display:none;}
	.st1{display:inline;}
	.st2{fill:#402516;}
	.st3{fill:#831412;}
	.st4{fill:#2F3440;}
	.st5{fill:#ADD5F7;}
	.st6{fill:#C5CCD4;}
	.st7{fill:#E1E9F2;}
	.st8{fill:#D3D3D3;}
	.st9{fill:#919191;}
	.st10{fill:#565D69;}
	.st11{fill:#C95151;}
	.st12{fill:#7FB2F0;}
	.st13{fill:#588F27;}
	.st14{fill:#4B7A21;}
	.st15{display:inline;fill:none;}
	.st16{display:inline;opacity:0.38;fill:#3A070A;}
	.st17{display:inline;opacity:0.41;fill:#E1D7D5;}
	.st18{display:inline;fill:#831412;}
	.st19{fill:#626875;}
	.st20{fill:#5A616E;}
	.st21{fill:#6C7382;}
	.st22{fill:#C6E4F4;}
	.st23{fill:#226A99;}
	.st24{fill:none;}
	.st25{fill:#92DDF4;}
	.st26{opacity:0.26;fill:#A5A5A5;}
	.st27{opacity:0.31;fill:#92DDF4;}
	.st28{fill:#6C9AC1;}
	.st29{display:none;fill:#92DDF4;}
	.st30{fill:#AEF4F4;}
	.st31{fill:#F4F3EA;}
	.st32{fill:#2C5699;}
</style>
<g id="Layer_1" class="st0">
	<g class="st1">
		
			<rect x="92" y="164.7" transform="matrix(-1 -1.224647e-16 1.224647e-16 -1 375.1807 333.863)" class="st2" width="191.3" height="4.5"/>
		<rect x="102.3" y="107.7" class="st3" width="165.9" height="56.9"/>
		<g>
			
				<rect x="240" y="117.7" transform="matrix(-1 -1.224647e-16 1.224647e-16 -1 502.3969 263.0922)" class="st4" width="22.5" height="27.8"/>
			
				<rect x="241.6" y="119.4" transform="matrix(-1 -1.224647e-16 1.224647e-16 -1 502.3969 263.0922)" class="st5" width="19.1" height="24.2"/>
			
				<rect x="250.4" y="119.4" transform="matrix(-1 -1.224647e-16 1.224647e-16 -1 502.3969 263.0922)" class="st4" width="1.7" height="24.2"/>
			
				<rect x="250.4" y="121.9" transform="matrix(-1.836970e-16 1 -1 -1.836970e-16 382.7446 -119.6524)" class="st4" width="1.7" height="19.3"/>
		</g>
		<g>
			
				<rect x="211.7" y="117.7" transform="matrix(-1 -1.224647e-16 1.224647e-16 -1 445.9727 263.0922)" class="st4" width="22.5" height="27.8"/>
			
				<rect x="213.4" y="119.4" transform="matrix(-1 -1.224647e-16 1.224647e-16 -1 445.9727 263.0922)" class="st5" width="19.1" height="24.2"/>
			
				<rect x="222.2" y="119.4" transform="matrix(-1 -1.224647e-16 1.224647e-16 -1 445.9727 263.0922)" class="st4" width="1.7" height="24.2"/>
			
				<rect x="222.2" y="121.9" transform="matrix(-1.836970e-16 1 -1 -1.836970e-16 354.5324 -91.4403)" class="st4" width="1.7" height="19.3"/>
		</g>
		<g>
			<rect x="182" y="117.7" class="st4" width="25.6" height="47"/>
			<rect x="183.8" y="119.4" class="st6" width="22.1" height="45.2"/>
			<rect x="185.6" y="121" class="st7" width="18.4" height="13.1"/>
			<rect x="185.6" y="135.6" class="st7" width="18.4" height="13.1"/>
			<rect x="185.6" y="150.2" class="st7" width="18.4" height="13.1"/>
			<circle class="st2" cx="201.2" cy="141.8" r="1.6"/>
		</g>
		<rect x="98.4" y="103.2" class="st7" width="176" height="4.6"/>
		
			<rect x="113" y="117.7" transform="matrix(-1 -1.224647e-16 1.224647e-16 -1 277.575 282.3163)" class="st4" width="51.6" height="47"/>
		<g>
			<g>
				<rect x="114.9" y="119.4" class="st8" width="47.9" height="6.5"/>
				<rect x="114.9" y="125.2" class="st9" width="47.9" height="0.7"/>
			</g>
			<g>
				<rect x="114.9" y="125.9" class="st8" width="47.9" height="6.5"/>
				<rect x="114.9" y="131.6" class="st9" width="47.9" height="0.7"/>
			</g>
			<g>
				<rect x="114.9" y="132.3" class="st8" width="47.9" height="6.5"/>
				<rect x="114.9" y="138.1" class="st9" width="47.9" height="0.7"/>
			</g>
			<g>
				<rect x="114.9" y="138.8" class="st8" width="47.9" height="6.5"/>
				<rect x="114.9" y="144.5" class="st9" width="47.9" height="0.7"/>
			</g>
			<g>
				<rect x="114.9" y="145.3" class="st8" width="47.9" height="6.5"/>
				<rect x="114.9" y="151" class="st9" width="47.9" height="0.7"/>
			</g>
			<g>
				<rect x="114.9" y="151.7" class="st8" width="47.9" height="6.5"/>
				<rect x="114.9" y="157.5" class="st9" width="47.9" height="0.7"/>
			</g>
			<g>
				<rect x="114.9" y="158.2" class="st8" width="47.9" height="6.5"/>
				<rect x="114.9" y="163.9" class="st9" width="47.9" height="0.7"/>
			</g>
		</g>
		
			<rect x="143.5" y="93.8" transform="matrix(-1 -1.224647e-16 1.224647e-16 -1 304.3923 197.0013)" class="st10" width="17.3" height="9.4"/>
		
			<rect x="111.6" y="93.8" transform="matrix(-1 -1.224647e-16 1.224647e-16 -1 240.5087 197.0013)" class="st10" width="17.3" height="9.4"/>
		<rect x="102.3" y="107.7" class="st11" width="165.9" height="2.6"/>
		<rect x="234.5" y="51.5" class="st10" width="17.3" height="5.4"/>
		<rect x="174.3" y="62" class="st3" width="93.4" height="41"/>
		<rect x="172.1" y="56.9" class="st7" width="97.9" height="5.1"/>
		<rect x="174.3" y="62" class="st11" width="93.4" height="2.9"/>
		<g>
			<rect x="190" y="69.5" class="st7" width="22.5" height="27.8"/>
			<rect x="191.7" y="71.2" class="st12" width="19.1" height="24.2"/>
			<rect x="200.4" y="71.2" class="st7" width="1.7" height="24.2"/>
			
				<rect x="200.4" y="73.7" transform="matrix(-1.836970e-16 1 -1 -1.836970e-16 284.5717 -117.877)" class="st7" width="1.7" height="19.3"/>
		</g>
		<g>
			<rect x="231.1" y="69.5" class="st7" width="22.5" height="27.8"/>
			<rect x="232.7" y="71.2" class="st12" width="19.1" height="24.2"/>
			<rect x="241.5" y="71.2" class="st7" width="1.7" height="24.2"/>
			
				<rect x="241.5" y="73.7" transform="matrix(-1.836970e-16 1 -1 -1.836970e-16 325.652 -158.9574)" class="st7" width="1.7" height="19.3"/>
		</g>
		<g>
			<path class="st13" d="M278,154.7c0,3.8-3.1,6.9-6.9,6.9h-6.5c-3.4,0-6.2-2.4-6.8-5.6c-0.1-0.4-0.1-0.9-0.1-1.4
				c0-2.4,1.2-4.5,3.1-5.8c0.3-3.5,3.3-6.3,6.9-6.3c3.5,0,6.4,2.6,6.9,6c0.6,0.4,1.2,0.8,1.7,1.3C277.3,151.2,278,152.9,278,154.7z"
				/>
			<rect x="261.7" y="161" class="st4" width="12.2" height="3.6"/>
			<rect x="261.2" y="163.4" class="st2" width="13.1" height="1.3"/>
			<path class="st14" d="M278,154.7c0,3.8-3.1,6.9-6.9,6.9h-6.5c-3.4,0-6.2-2.4-6.8-5.6c1.5,1.4,4,2.9,7.3,2.3
				c5.5-0.9,5.8-6.4,5.8-6.4s3.2,1,5.3-2C277.3,151.2,278,152.9,278,154.7z"/>
		</g>
	</g>
	
		<image style="overflow:visible;" width="320" height="200" xlink:href="homerad.jpg"  transform="matrix(-0.9735 0 0 0.9735 311.7561 -10.0475)">
	</image>
	
		<image style="overflow:visible;" width="320" height="200" xlink:href="homerad.jpg"  transform="matrix(0.944 0 0 0.944 -3.8275 -18.1589)">
	</image>
	
		<image style="overflow:visible;" width="700" height="420" xlink:href="main3.jpg"  transform="matrix(-0.4558 -8.822726e-04 -8.822726e-04 0.4558 308.2985 -5.1517)">
	</image>
	<path class="st15" d="M274.3,95.2c0,22-9.8,41.7-25.3,55c-12.7,10.9-29.2,17.5-47.3,17.5c-40.1,0-72.5-32.5-72.5-72.5
		c0-5.5,0.6-10.8,1.8-15.9c7.2-32.4,36.2-56.6,70.8-56.6C241.8,22.7,274.3,55.2,274.3,95.2z"/>
	<path class="st15" d="M274.3,95.2c0,14.7-4.4,28.4-11.9,39.9c-3.7,5.7-8.2,10.8-13.3,15.1c-12.7,10.9-29.2,17.5-47.3,17.5
		c-40.1,0-72.5-32.5-72.5-72.5c0-5.5,0.6-10.8,1.8-15.9c0.8-3.6,1.9-7.1,3.2-10.4c10.5-27,36.8-46.2,67.6-46.2
		C241.8,22.7,274.3,55.2,274.3,95.2z"/>
	<path class="st16" d="M311.5,175.1V191h-321V-3.1l9.2,2.6l134.4,69.4c-1.3,3.4-2.4,6.8-3.2,10.4c-1.2,5.1-1.8,10.4-1.8,15.9
		c0,40.1,32.5,72.5,72.5,72.5c18.1,0,34.6-6.6,47.3-17.5c5.1-4.4,9.6-9.5,13.3-15.1l48.2,24.9L311.5,175.1z"/>
	<path class="st17" d="M311.5-18.5v193.6l-1-15.1l-48.2-24.9c7.6-11.4,11.9-25.2,11.9-39.9c0-40.1-32.5-72.5-72.5-72.5
		c-30.8,0-57.1,19.2-67.6,46.2L-0.3-0.5l-9.2-2.6v-15.4H311.5z"/>
	<circle class="st18" cx="25" cy="156" r="17"/>
	<rect x="-1" y="-0.5" class="st15" width="301.5" height="181"/>
</g>
<g id="Layer_2">
	<g>
		<rect x="34" y="151.1" class="st2" width="223.7" height="5.3"/>
		<g>
			<rect x="56.4" y="39" class="st19" width="30.1" height="40.2"/>
			<rect x="80" y="39" class="st20" width="6.5" height="40.2"/>
			<rect x="54.2" y="31.2" class="st21" width="34.6" height="13.7"/>
			<rect x="56.4" y="44.9" class="st10" width="30.1" height="2.8"/>
		</g>
		<polygon class="st22" points="160.3,84.5 160.3,151.1 51.5,151.1 51.5,84.5 105.9,43.2 		"/>
		<polygon class="st5" points="170.4,84.5 160.3,84.5 105.9,43.2 51.5,84.5 41.4,84.5 105.9,35.3 		"/>
		<g>
			<rect x="58.3" y="96.1" class="st4" width="26.3" height="32.5"/>
			<rect x="60.3" y="98.2" class="st5" width="22.4" height="28.3"/>
			<rect x="70.5" y="98.2" class="st4" width="1.9" height="28.3"/>
			
				<rect x="70.5" y="101.1" transform="matrix(-1.836970e-16 1 -1 -1.836970e-16 183.7926 40.8758)" class="st4" width="1.9" height="22.5"/>
		</g>
		<g>
			<rect x="128.2" y="96.1" class="st4" width="26.3" height="32.5"/>
			<rect x="130.1" y="98.2" class="st5" width="22.4" height="28.3"/>
			<rect x="140.3" y="98.2" class="st4" width="1.9" height="28.3"/>
			
				<rect x="140.3" y="101.1" transform="matrix(-1.836970e-16 1 -1 -1.836970e-16 253.6487 -28.9803)" class="st4" width="1.9" height="22.5"/>
		</g>
		<polygon class="st23" points="160.3,84.5 160.3,86.5 105.9,45.7 51.5,86.1 51.5,84.5 105.9,43.2 		"/>
		<g>
			<rect x="91" y="96.1" class="st4" width="29.9" height="55"/>
			<rect x="93" y="98.2" class="st23" width="25.8" height="52.9"/>
			<rect x="95.1" y="100" class="st5" width="21.5" height="15.3"/>
			<rect x="95.1" y="117.1" class="st5" width="21.5" height="15.3"/>
			<rect x="95.1" y="134.2" class="st5" width="21.5" height="15.3"/>
			<circle class="st2" cx="113.4" cy="124.4" r="1.9"/>
		</g>
		<rect x="160.3" y="84.5" class="st22" width="85.2" height="66.6"/>
		<polygon class="st5" points="160.3,84.5 250.1,84.5 250.1,79.2 153.3,79.2 		"/>
		<rect x="172.7" y="96.1" class="st4" width="60.3" height="55"/>
		<g>
			<g>
				<rect x="174.9" y="98.1" class="st8" width="56" height="7.6"/>
				<rect x="174.9" y="104.9" class="st9" width="56" height="0.8"/>
			</g>
			<g>
				<rect x="174.9" y="105.7" class="st8" width="56" height="7.6"/>
				<rect x="174.9" y="112.4" class="st9" width="56" height="0.8"/>
			</g>
			<g>
				<rect x="174.9" y="113.3" class="st8" width="56" height="7.6"/>
				<rect x="174.9" y="120" class="st9" width="56" height="0.8"/>
			</g>
			<g>
				<rect x="174.9" y="120.8" class="st8" width="56" height="7.6"/>
				<rect x="174.9" y="127.5" class="st9" width="56" height="0.8"/>
			</g>
			<g>
				<rect x="174.9" y="128.4" class="st8" width="56" height="7.6"/>
				<rect x="174.9" y="135.1" class="st9" width="56" height="0.8"/>
			</g>
			<g>
				<rect x="174.9" y="135.9" class="st8" width="56" height="7.6"/>
				<rect x="174.9" y="142.7" class="st9" width="56" height="0.8"/>
			</g>
			<g>
				<rect x="174.9" y="143.5" class="st8" width="56" height="7.6"/>
				<rect x="174.9" y="150.2" class="st9" width="56" height="0.8"/>
			</g>
		</g>
		<rect x="174.9" y="68.2" class="st10" width="20.3" height="11"/>
		<rect x="212.3" y="68.2" class="st10" width="20.3" height="11"/>
		<rect x="160.3" y="84.5" class="st23" width="85.2" height="2"/>
	</g>
	<path class="st24" d="M274.3,95.2c0,14.7-4.4,28.4-11.9,39.9c-3.7,5.7-8.2,10.8-13.3,15.1c-12.7,10.9-29.2,17.5-47.3,17.5
		c-40.1,0-72.5-32.5-72.5-72.5c0-5.5,0.6-10.8,1.8-15.9c0.8-3.6,1.9-7.1,3.2-10.4c10.5-27,36.8-46.2,67.6-46.2
		C241.8,22.7,274.3,55.2,274.3,95.2z"/>
	<polygon class="st25" points="316.3,-35.7 314.8,-9 -2.9,-9 -7,-35.7 	"/>
	<path class="st26" d="M314.8-9l-6.5,111.3l-146.7,39.3l-17.2-15c9.9-12.1,15.8-27.5,15.8-44.3c0-38.7-31.3-70-70-70
		c-20.2,0-38.4,8.6-51.2,22.3L-1.7-1l-1.2-8H314.8z"/>
	<path class="st27" d="M323-9v220H-21V-9h18.1l1.2,8l40.8,35.6C27.5,47.1,20.3,63.9,20.3,82.3c0,38.7,31.3,70,70,70
		c21.8,0,41.3-10,54.2-25.7l17.2,15l146.7-39.3L314.8-9H323z"/>
	<path class="st28" d="M154.3,175.7H-0.3v-41.3h154.7c11.4,0,20.7,9.3,20.7,20.7v0C175,166.4,165.7,175.7,154.3,175.7z"/>
	<path class="st29" d="M160.3,82.3c0,16.8-5.9,32.3-15.8,44.3c-12.8,15.7-32.3,25.7-54.2,25.7c-38.7,0-70-31.3-70-70
		c0-18.4,7.1-35.2,18.8-47.7c12.8-13.7,31-22.3,51.2-22.3C129,12.3,160.3,43.7,160.3,82.3z"/>
	<circle class="st5" cx="25" cy="155.5" r="17"/>
	<circle class="st30" cx="65.2" cy="155.5" r="17"/>
	<circle class="st31" cx="105.4" cy="155.5" r="17"/>
	<circle class="st32" cx="145.7" cy="155.5" r="17"/>
</g>
</svg>
