<?xml version="1.0" encoding="utf-8"?>
<!-- Generator: Adobe Illustrator 22.1.0, SVG Export Plug-In . SVG Version: 6.00 Build 0)  -->
<svg version="1.1" xmlns="http://www.w3.org/2000/svg" xmlns:xlink="http://www.w3.org/1999/xlink" x="0px" y="0px"
	 viewBox="0 0 300 180" style="enable-background:new 0 0 300 180;" xml:space="preserve">
<style type="text/css">
	.st0{display:none;}
	.st1{display:inline;}
	.st2{fill:#402516;}
	.st3{fill:#9B2727;}
	.st4{fill:#2F3440;}
	.st5{fill:#ADD5F7;}
	.st6{fill:#C5CCD4;}
	.st7{fill:#E1E9F2;}
	.st8{fill:#D3D3D3;}
	.st9{fill:#919191;}
	.st10{fill:#565D69;}
	.st11{fill:#C95151;}
	.st12{fill:#7FB2F0;}
	.st13{fill:#588F27;}
	.st14{fill:#4B7A21;}
	.st15{display:inline;fill:none;}
	.st16{display:inline;opacity:0.23;fill:#9B2727;enable-background:new    ;}
	.st17{display:inline;opacity:0.41;fill:#E1D7D5;enable-background:new    ;}
	.st18{display:inline;fill:#561717;}
	.st19{display:inline;fill:#9B2727;}
	.st20{fill:#626875;}
	.st21{fill:#5A616E;}
	.st22{fill:#6C7382;}
	.st23{fill:#C6E4F4;}
	.st24{fill:#226A99;}
	.st25{display:inline;fill:#92DDF4;}
	.st26{display:inline;opacity:0.26;fill:#A5A5A5;enable-background:new    ;}
	.st27{display:inline;opacity:0.31;fill:#92DDF4;enable-background:new    ;}
	.st28{display:inline;fill:#6C9AC1;}
	.st29{display:inline;fill:#ADD5F7;}
	.st30{display:inline;fill:#AEF4F4;}
	.st31{display:inline;fill:#F4F3EA;}
	.st32{display:inline;fill:#2C5699;}
	.st33{fill:#B6D6CD;}
	.st34{fill:#543D31;}
	.st35{fill:#ADADAD;}
	.st36{fill:#68B59D;}
	.st37{fill:#3E7C68;}
	.st38{fill:#919090;}
	.st39{fill:#A7E5EA;}
	.st40{fill:#90A59F;}
	.st41{fill:#757575;}
	.st42{display:inline;opacity:0.51;fill:#ADADAD;enable-background:new    ;}
	.st43{display:inline;opacity:0.51;fill:#69877E;enable-background:new    ;}
	.st44{display:inline;fill:#68B59D;}
	.st45{display:inline;fill:#A5DBCA;}
	.st46{display:inline;fill:#A7E5EA;}
	.st47{fill:#7C6865;}
	.st48{fill:#5B4A48;}
	.st49{fill:#E25C3D;}
	.st50{fill:#6B514C;}
	.st51{fill:#DBDCDD;}
	.st52{fill:#A63E26;}
	.st53{fill:#87321F;}
	.st54{fill:#819E64;}
	.st55{fill:#54683C;}
	.st56{fill:#B24432;}
	.st57{display:inline;fill:none;stroke:#5B4A48;stroke-miterlimit:10;}
	.st58{display:inline;opacity:0.22;fill:#9B8D8C;enable-background:new    ;}
	.st59{display:inline;opacity:0.55;fill:#E25C3D;enable-background:new    ;}
	.st60{display:inline;fill:#AF4932;}
	.st61{display:inline;fill:#E25C3D;}
	.st62{display:inline;fill:#9DCAE6;}
	.st63{display:inline;fill:#FFFFFF;}
	.st64{fill:#3F5666;}
	.st65{fill:#54433B;}
	.st66{fill:#4D4E4F;}
	.st67{fill:#FC8D3A;}
	.st68{fill:#E6EAED;}
	.st69{opacity:0.5;fill:#3F5666;enable-background:new    ;}
	.st70{fill:#497263;}
	.st71{fill:#2F4C40;}
	.st72{display:inline;opacity:0.26;fill:#4D4E4F;enable-background:new    ;}
	.st73{display:inline;opacity:0.26;fill:#D3D3D3;enable-background:new    ;}
	.st74{display:inline;fill:#616263;}
	.st75{display:inline;fill:#B6D04F;}
	.st76{display:inline;fill:#D3D3D3;}
	.st77{display:inline;fill:#FC8D3A;}
	.st78{fill:#939393;}
	.st79{fill:#E7B2BF;}
	.st80{fill:#D4D0D1;}
	.st81{fill:#DB5377;}
	.st82{fill:#FFFFFF;}
	.st83{fill:#DBDDDD;}
	.st84{fill:#E296AC;}
	.st85{fill:#3A4943;}
	.st86{display:inline;opacity:0.56;fill:#939393;enable-background:new    ;}
	.st87{display:inline;opacity:0.46;fill:#DB5377;enable-background:new    ;}
	.st88{display:inline;opacity:0.46;fill:#E7B2BF;enable-background:new    ;}
	.st89{display:inline;fill:#DB5377;}
	.st90{display:inline;fill:#A8E286;}
	.st91{display:inline;fill:#E7B2BF;}
	.st92{fill:#705D5C;}
	.st93{fill:#4F3635;}
	.st94{fill:#F79185;}
	.st95{fill:#542C22;}
	.st96{fill:#5B4746;}
	.st97{fill:#F9CEB2;}
	.st98{fill:#E8F1F9;}
	.st99{opacity:0.5;fill:#542C22;enable-background:new    ;}
	.st100{display:inline;opacity:0.32;fill:#F48C58;enable-background:new    ;}
	.st101{display:inline;opacity:0.35;fill:#5B4746;enable-background:new    ;}
	.st102{display:inline;fill:#705D5C;}
	.st103{display:inline;opacity:0.5;fill:#331B17;enable-background:new    ;}
	.st104{display:inline;fill:#F79185;}
	.st105{display:inline;fill:#F48C58;}
	.st106{display:inline;fill:#F9CEB2;}
	.st107{fill:#CECECE;}
	.st108{fill:#4C392F;}
	.st109{fill:#CFE4F9;}
	.st110{fill:#878483;}
	.st111{fill:#545352;}
	.st112{fill:#B0D37A;}
	.st113{fill:#55633B;}
	.st114{fill:#36421A;}
	.st115{fill:none;}
	.st116{opacity:0.41;fill:#B0D37A;enable-background:new    ;}
	.st117{opacity:0.41;fill:#CECECE;enable-background:new    ;}
	.st118{fill:#636261;}
	.st119{fill:#C6FFDD;}
	.st120{fill:#FBD786;}
	.st121{fill:#F7797D;}
	.st122{opacity:0.62;clip-path:url(#SVGID_2_);fill:url(#SVGID_3_);}
	.st123{opacity:0.29;clip-path:url(#SVGID_2_);fill:#F7797D;}
	.st124{opacity:0.3;clip-path:url(#SVGID_2_);fill:#C6FFDD;}
	.st125{clip-path:url(#SVGID_2_);fill:url(#SVGID_4_);}
</style>
<g id="Layer_1" class="st0">
	<g id="Layer_1_1_">
		<g class="st1">
			<rect x="91.9" y="164.7" class="st2" width="191.3" height="4.5"/>
			<rect x="102.3" y="107.7" class="st3" width="165.9" height="56.9"/>
			<g>
				<rect x="239.9" y="117.6" class="st4" width="22.5" height="27.8"/>
				<rect x="241.7" y="119.5" class="st5" width="19.1" height="24.2"/>
				<rect x="250.3" y="119.5" class="st4" width="1.7" height="24.2"/>
				<rect x="241.5" y="130.7" class="st4" width="19.3" height="1.7"/>
			</g>
			<g>
				<rect x="211.8" y="117.6" class="st4" width="22.5" height="27.8"/>
				<rect x="213.5" y="119.5" class="st5" width="19.1" height="24.2"/>
				<rect x="222.1" y="119.5" class="st4" width="1.7" height="24.2"/>
				<rect x="213.3" y="130.8" class="st4" width="19.3" height="1.7"/>
			</g>
			<g>
				<rect x="182" y="117.7" class="st4" width="25.6" height="47"/>
				<rect x="183.8" y="119.4" class="st6" width="22.1" height="45.2"/>
				<rect x="185.6" y="121" class="st7" width="18.4" height="13.1"/>
				<rect x="185.6" y="135.6" class="st7" width="18.4" height="13.1"/>
				<rect x="185.6" y="150.2" class="st7" width="18.4" height="13.1"/>
				<circle class="st2" cx="201.2" cy="141.8" r="1.6"/>
			</g>
			<rect x="98.4" y="103.2" class="st7" width="176" height="4.6"/>
			<rect x="113" y="117.6" class="st4" width="51.6" height="47"/>
			<g>
				<g>
					<rect x="114.9" y="119.4" class="st8" width="47.9" height="6.5"/>
					<rect x="114.9" y="125.2" class="st9" width="47.9" height="0.7"/>
				</g>
				<g>
					<rect x="114.9" y="125.9" class="st8" width="47.9" height="6.5"/>
					<rect x="114.9" y="131.6" class="st9" width="47.9" height="0.7"/>
				</g>
				<g>
					<rect x="114.9" y="132.3" class="st8" width="47.9" height="6.5"/>
					<rect x="114.9" y="138.1" class="st9" width="47.9" height="0.7"/>
				</g>
				<g>
					<rect x="114.9" y="138.8" class="st8" width="47.9" height="6.5"/>
					<rect x="114.9" y="144.5" class="st9" width="47.9" height="0.7"/>
				</g>
				<g>
					<rect x="114.9" y="145.3" class="st8" width="47.9" height="6.5"/>
					<rect x="114.9" y="151" class="st9" width="47.9" height="0.7"/>
				</g>
				<g>
					<rect x="114.9" y="151.7" class="st8" width="47.9" height="6.5"/>
					<rect x="114.9" y="157.5" class="st9" width="47.9" height="0.7"/>
				</g>
				<g>
					<rect x="114.9" y="158.2" class="st8" width="47.9" height="6.5"/>
					<rect x="114.9" y="163.9" class="st9" width="47.9" height="0.7"/>
				</g>
			</g>
			<rect x="143.6" y="93.8" class="st10" width="17.3" height="9.4"/>
			<rect x="111.6" y="93.8" class="st10" width="17.3" height="9.4"/>
			<rect x="102.3" y="107.7" class="st11" width="165.9" height="2.6"/>
			<rect x="234.5" y="51.5" class="st10" width="17.3" height="5.4"/>
			<rect x="174.3" y="62" class="st3" width="93.4" height="41"/>
			<rect x="172.1" y="56.9" class="st7" width="97.9" height="5.1"/>
			<rect x="174.3" y="62" class="st11" width="93.4" height="2.9"/>
			<g>
				<rect x="190" y="69.5" class="st7" width="22.5" height="27.8"/>
				<rect x="191.7" y="71.2" class="st12" width="19.1" height="24.2"/>
				<rect x="200.4" y="71.2" class="st7" width="1.7" height="24.2"/>
				<rect x="191.6" y="82.5" class="st7" width="19.3" height="1.7"/>
			</g>
			<g>
				<rect x="231.1" y="69.5" class="st7" width="22.5" height="27.8"/>
				<rect x="232.7" y="71.2" class="st12" width="19.1" height="24.2"/>
				<rect x="241.5" y="71.2" class="st7" width="1.7" height="24.2"/>
				<rect x="232.7" y="82.5" class="st7" width="19.3" height="1.7"/>
			</g>
			<g>
				<path class="st13" d="M278,154.7c0,3.8-3.1,6.9-6.9,6.9h-6.5c-3.4,0-6.2-2.4-6.8-5.6c-0.1-0.4-0.1-0.9-0.1-1.4
					c0-2.4,1.2-4.5,3.1-5.8c0.3-3.5,3.3-6.3,6.9-6.3c3.5,0,6.4,2.6,6.9,6c0.6,0.4,1.2,0.8,1.7,1.3C277.3,151.2,278,152.9,278,154.7z
					"/>
				<rect x="261.7" y="161" class="st4" width="12.2" height="3.6"/>
				<rect x="261.2" y="163.4" class="st2" width="13.1" height="1.3"/>
				<path class="st14" d="M278,154.7c0,3.8-3.1,6.9-6.9,6.9h-6.5c-3.4,0-6.2-2.4-6.8-5.6c1.5,1.4,4,2.9,7.3,2.3
					c5.5-0.9,5.8-6.4,5.8-6.4s3.2,1,5.3-2C277.3,151.2,278,152.9,278,154.7z"/>
			</g>
		</g>
		
			<image style="display:inline;overflow:visible;enable-background:new    ;" width="320" height="200" xlink:href="homerad.jpg"  transform="matrix(-0.9735 0 0 0.9735 311.7561 -10.0475)">
		</image>
		
			<image style="display:inline;overflow:visible;enable-background:new    ;" width="320" height="200" xlink:href="homerad.jpg"  transform="matrix(0.944 0 0 0.944 -3.8275 -18.1589)">
		</image>
		
			<image style="display:inline;overflow:visible;enable-background:new    ;" width="700" height="420" xlink:href="main3.jpg"  transform="matrix(-0.4558 -8.822726e-04 -8.822726e-04 0.4558 308.2985 -5.1517)">
		</image>
		<path class="st15" d="M274.3,95.2c0,22-9.8,41.7-25.3,55c-12.7,10.9-29.2,17.5-47.3,17.5c-40.1,0-72.5-32.5-72.5-72.5
			c0-5.5,0.6-10.8,1.8-15.9c7.2-32.4,36.2-56.6,70.8-56.6C241.8,22.7,274.3,55.2,274.3,95.2z"/>
		<path class="st15" d="M274.3,95.2c0,14.7-4.4,28.4-11.9,39.9c-3.7,5.7-8.2,10.8-13.3,15.1c-12.7,10.9-29.2,17.5-47.3,17.5
			c-40.1,0-72.5-32.5-72.5-72.5c0-5.5,0.6-10.8,1.8-15.9c0.8-3.6,1.9-7.1,3.2-10.4c10.5-27,36.8-46.2,67.6-46.2
			C241.8,22.7,274.3,55.2,274.3,95.2z"/>
		<path class="st16" d="M311.5,175.1V191h-321V-3.1l9.2,2.6l134.4,69.4c-1.3,3.4-2.4,6.8-3.2,10.4c-1.2,5.1-1.8,10.4-1.8,15.9
			c0,40.1,32.5,72.5,72.5,72.5c18.1,0,34.6-6.6,47.3-17.5c5.1-4.4,9.6-9.5,13.3-15.1l48.2,24.9L311.5,175.1z"/>
		<path class="st17" d="M311.5-18.5v193.6l-1-15.1l-48.2-24.9c7.6-11.4,11.9-25.2,11.9-39.9c0-40.1-32.5-72.5-72.5-72.5
			c-30.8,0-57.1,19.2-67.6,46.2L-0.3-0.5l-9.2-2.6v-15.4H311.5z"/>
		<rect x="-1" y="-0.5" class="st15" width="301.5" height="181"/>
		<path class="st18" d="M34.5,175.7H-0.3v-41.3h34.8c11.4,0,20.7,9.3,20.7,20.7l0,0C55.2,166.4,45.9,175.7,34.5,175.7z"/>
		<circle class="st19" cx="25" cy="156" r="17"/>
	</g>
	<g id="Layer_2_1_">
		<g class="st1">
			<rect x="34" y="151.1" class="st2" width="223.7" height="5.3"/>
			<g>
				<rect x="56.4" y="39" class="st20" width="30.1" height="40.2"/>
				<rect x="80" y="39" class="st21" width="6.5" height="40.2"/>
				<rect x="54.2" y="31.2" class="st22" width="34.6" height="13.7"/>
				<rect x="56.4" y="44.9" class="st10" width="30.1" height="2.8"/>
			</g>
			<polygon class="st23" points="160.3,84.5 160.3,151.1 51.5,151.1 51.5,84.5 105.9,43.2 			"/>
			<polygon class="st5" points="170.4,84.5 160.3,84.5 105.9,43.2 51.5,84.5 41.4,84.5 105.9,35.3 			"/>
			<g>
				<rect x="58.3" y="96.1" class="st4" width="26.3" height="32.5"/>
				<rect x="60.3" y="98.2" class="st5" width="22.4" height="28.3"/>
				<rect x="70.5" y="98.2" class="st4" width="1.9" height="28.3"/>
				<rect x="60.2" y="111.4" class="st4" width="22.5" height="1.9"/>
			</g>
			<g>
				<rect x="128.2" y="96.1" class="st4" width="26.3" height="32.5"/>
				<rect x="130.1" y="98.2" class="st5" width="22.4" height="28.3"/>
				<rect x="140.3" y="98.2" class="st4" width="1.9" height="28.3"/>
				<rect x="130" y="111.3" class="st4" width="22.5" height="1.9"/>
			</g>
			<polygon class="st24" points="160.3,84.5 160.3,86.5 105.9,45.7 51.5,86.1 51.5,84.5 105.9,43.2 			"/>
			<g>
				<rect x="91" y="96.1" class="st4" width="29.9" height="55"/>
				<rect x="93" y="98.2" class="st24" width="25.8" height="52.9"/>
				<rect x="95.1" y="100" class="st5" width="21.5" height="15.3"/>
				<rect x="95.1" y="117.1" class="st5" width="21.5" height="15.3"/>
				<rect x="95.1" y="134.2" class="st5" width="21.5" height="15.3"/>
				<circle class="st2" cx="113.4" cy="124.4" r="1.9"/>
			</g>
			<rect x="160.3" y="84.5" class="st23" width="85.2" height="66.6"/>
			<polygon class="st5" points="160.3,84.5 250.1,84.5 250.1,79.2 153.3,79.2 			"/>
			<rect x="172.7" y="96.1" class="st4" width="60.3" height="55"/>
			<g>
				<g>
					<rect x="174.9" y="98.1" class="st8" width="56" height="7.6"/>
					<rect x="174.9" y="104.9" class="st9" width="56" height="0.8"/>
				</g>
				<g>
					<rect x="174.9" y="105.7" class="st8" width="56" height="7.6"/>
					<rect x="174.9" y="112.4" class="st9" width="56" height="0.8"/>
				</g>
				<g>
					<rect x="174.9" y="113.3" class="st8" width="56" height="7.6"/>
					<rect x="174.9" y="120" class="st9" width="56" height="0.8"/>
				</g>
				<g>
					<rect x="174.9" y="120.8" class="st8" width="56" height="7.6"/>
					<rect x="174.9" y="127.5" class="st9" width="56" height="0.8"/>
				</g>
				<g>
					<rect x="174.9" y="128.4" class="st8" width="56" height="7.6"/>
					<rect x="174.9" y="135.1" class="st9" width="56" height="0.8"/>
				</g>
				<g>
					<rect x="174.9" y="135.9" class="st8" width="56" height="7.6"/>
					<rect x="174.9" y="142.7" class="st9" width="56" height="0.8"/>
				</g>
				<g>
					<rect x="174.9" y="143.5" class="st8" width="56" height="7.6"/>
					<rect x="174.9" y="150.2" class="st9" width="56" height="0.8"/>
				</g>
			</g>
			<rect x="174.9" y="68.2" class="st10" width="20.3" height="11"/>
			<rect x="212.3" y="68.2" class="st10" width="20.3" height="11"/>
			<rect x="160.3" y="84.5" class="st24" width="85.2" height="2"/>
		</g>
		<path class="st15" d="M274.3,95.2c0,14.7-4.4,28.4-11.9,39.9c-3.7,5.7-8.2,10.8-13.3,15.1c-12.7,10.9-29.2,17.5-47.3,17.5
			c-40.1,0-72.5-32.5-72.5-72.5c0-5.5,0.6-10.8,1.8-15.9c0.8-3.6,1.9-7.1,3.2-10.4c10.5-27,36.8-46.2,67.6-46.2
			C241.8,22.7,274.3,55.2,274.3,95.2z"/>
		<polygon class="st25" points="316.3,-35.7 314.8,-9 -2.9,-9 -7,-35.7 		"/>
		<path class="st26" d="M314.8-9l-6.5,111.3l-146.7,39.3l-17.2-15c9.9-12.1,15.8-27.5,15.8-44.3c0-38.7-31.3-70-70-70
			C70,12.3,51.8,20.9,39,34.6L-1.7-1l-1.2-8H314.8z"/>
		<path class="st27" d="M323-9v220H-21V-9h18.1l1.2,8l40.8,35.6C27.5,47.1,20.3,63.9,20.3,82.3c0,38.7,31.3,70,70,70
			c21.8,0,41.3-10,54.2-25.7l17.2,15l146.7-39.3L314.8-9H323z"/>
		<path class="st28" d="M154.3,175.7H-0.3v-41.3h154.7c11.4,0,20.7,9.3,20.7,20.7l0,0C175,166.4,165.7,175.7,154.3,175.7z"/>
		<path class="st25" d="M160.3,82.3c0,16.8-5.9,32.3-15.8,44.3c-12.8,15.7-32.3,25.7-54.2,25.7c-38.7,0-70-31.3-70-70
			c0-18.4,7.1-35.2,18.8-47.7c12.8-13.7,31-22.3,51.2-22.3C129,12.3,160.3,43.7,160.3,82.3z"/>
		<circle class="st29" cx="25" cy="155.5" r="17"/>
		<circle class="st30" cx="65.2" cy="155.5" r="17"/>
		<circle class="st31" cx="105.4" cy="155.5" r="17"/>
		<circle class="st32" cx="145.7" cy="155.5" r="17"/>
	</g>
	<g id="Layer_3">
		<g class="st1">
			<polygon class="st33" points="247.4,64.3 247.4,138.3 126.1,138.3 126.1,64.3 186.8,22.4 			"/>
			<rect x="99.2" y="138.3" class="st34" width="175.2" height="5.4"/>
			<polygon class="st35" points="258.8,64.3 247.4,64.3 186.8,22.4 126.1,64.3 114.7,64.3 186.8,14.4 			"/>
			<g>
				<path class="st36" d="M130.7,126.5c0,4.5-4.1,8.2-9.1,8.2h-8.5c-4.4,0-8.1-2.8-8.9-6.6c-0.1-0.5-0.2-1.1-0.2-1.6
					c0-2.9,1.6-5.4,4-6.8c0.4-4.2,4.3-7.5,9-7.5c4.6,0,8.4,3.1,9,7.1c0.8,0.4,1.6,1,2.2,1.6C129.8,122.4,130.7,124.3,130.7,126.5z"
					/>
				<rect x="109.4" y="134" class="st4" width="16" height="4.3"/>
				<rect x="108.8" y="136.7" class="st2" width="17.1" height="1.5"/>
				<path class="st37" d="M130.7,126.5c0,4.5-4.1,8.2-9.1,8.2h-8.5c-4.4,0-8.1-2.8-8.9-6.6c1.9,1.6,5.2,3.5,9.6,2.8
					c7.2-1.1,7.6-7.6,7.6-7.6s4.2,1.1,6.9-2.3C129.8,122.4,130.7,124.3,130.7,126.5z"/>
			</g>
			<g>
				<path class="st36" d="M265.3,126.5c0,4.5-4.1,8.2-9.1,8.2h-8.5c-4.4,0-8.1-2.8-8.9-6.6c-0.1-0.5-0.2-1.1-0.2-1.6
					c0-2.9,1.6-5.4,4-6.8c0.4-4.2,4.3-7.5,9-7.5c4.6,0,8.4,3.1,9,7.1c0.8,0.4,1.6,1,2.2,1.6C264.4,122.4,265.3,124.3,265.3,126.5z"
					/>
				<rect x="244" y="134" class="st4" width="16" height="4.3"/>
				<rect x="243.4" y="136.7" class="st2" width="17.1" height="1.5"/>
				<path class="st37" d="M265.3,126.5c0,4.5-4.1,8.2-9.1,8.2h-8.5c-4.4,0-8.1-2.8-8.9-6.6c1.9,1.6,5.2,3.5,9.6,2.8
					c7.2-1.1,7.6-7.6,7.6-7.6s4.2,1.1,6.9-2.3C264.4,122.4,265.3,124.3,265.3,126.5z"/>
			</g>
			<g>
				<rect x="133.6" y="82.6" class="st38" width="29.3" height="32.9"/>
				<rect x="135.8" y="84.7" class="st39" width="25" height="28.7"/>
				<rect x="147.2" y="84.7" class="st38" width="2.2" height="28.7"/>
				<rect x="135.7" y="98" class="st38" width="25.1" height="2"/>
			</g>
			<g>
				<rect x="211.6" y="82.6" class="st38" width="29.3" height="32.9"/>
				<rect x="213.8" y="84.7" class="st39" width="25" height="28.7"/>
				<rect x="225.2" y="84.7" class="st38" width="2.2" height="28.7"/>
				<rect x="213.7" y="98.1" class="st38" width="25.1" height="2"/>
			</g>
			<rect x="170.1" y="70.8" class="st40" width="9.3" height="5.2"/>
			<rect x="182.1" y="70.8" class="st40" width="9.3" height="5.2"/>
			<rect x="194.1" y="70.8" class="st40" width="9.3" height="5.2"/>
			<polygon class="st6" points="247.4,64.3 247.4,66.3 186.8,25 126.1,66 126.1,64.3 186.8,22.4 			"/>
			<g>
				<rect x="170.1" y="82.6" class="st38" width="33.3" height="55.7"/>
				<rect x="172.4" y="84.7" class="st41" width="28.8" height="53.6"/>
				<rect x="174.7" y="86.5" class="st35" width="24" height="15.6"/>
				<rect x="174.7" y="103.8" class="st35" width="24" height="15.6"/>
				<rect x="174.7" y="121.2" class="st35" width="24" height="15.6"/>
				<ellipse class="st2" cx="195.1" cy="111.2" rx="2.1" ry="1.9"/>
			</g>
		</g>
		<path class="st15" d="M274.8,89.9c0,47.4-38.5,85.9-85.9,85.9c-43.7,0-79.7-32.6-85.2-74.8c-0.5-3.6-0.7-7.3-0.7-11.1
			C103,42.5,141.5,4,188.9,4c22.6,0,43.2,8.8,58.6,23.1C264.3,42.8,274.8,65.1,274.8,89.9z"/>
		<path class="st42" d="M302-1l-54.5,28.1C232.1,12.8,211.5,4,188.9,4C141.5,4,103,42.5,103,89.9c0,3.8,0.2,7.5,0.7,11.1H-1V-6
			h285.7L302-1z"/>
		<path class="st43" d="M311-6v204H-1v-97h104.7c5.4,42.2,41.5,74.8,85.2,74.8c47.4,0,85.9-38.5,85.9-85.9
			c0-24.8-10.5-47.1-27.3-62.8L302-1l-17.3-5H311z"/>
		<path class="st44" d="M73.1,175.7H-0.3v-41.3h73.4c11.4,0,20.7,9.3,20.7,20.7l0,0C93.7,166.4,84.5,175.7,73.1,175.7z"/>
		<circle class="st45" cx="25" cy="155.5" r="17"/>
		<circle class="st46" cx="65.2" cy="155.5" r="17"/>
	</g>
	<g id="Layer_4">
		<g class="st1">
			<g>
				<rect x="59" y="21.1" class="st47" width="26.3" height="35.1"/>
				<rect x="79.6" y="21.1" class="st48" width="5.7" height="35.1"/>
				<rect x="57" y="14.3" class="st47" width="30.2" height="11.9"/>
				<rect x="59" y="26.3" class="st48" width="26.3" height="2.5"/>
			</g>
			<polygon class="st49" points="139.7,58.7 67.6,58.7 103.7,28.5 			"/>
			<rect x="14.1" y="152.1" class="st48" width="175.9" height="4.6"/>
			<rect x="33.4" y="58.7" class="st49" width="140.5" height="93.4"/>
			<g>
				<rect x="42.7" y="66.3" class="st50" width="23" height="28.4"/>
				<rect x="44.4" y="68.1" class="st51" width="19.5" height="24.7"/>
				<rect x="53.4" y="68.1" class="st50" width="1.7" height="24.7"/>
				<rect x="44.3" y="79.7" class="st50" width="19.7" height="1.7"/>
			</g>
			<g>
				<rect x="92.2" y="66.3" class="st50" width="23" height="28.4"/>
				<rect x="93.9" y="68.1" class="st51" width="19.5" height="24.7"/>
				<rect x="102.8" y="68.1" class="st50" width="1.7" height="24.7"/>
				<rect x="93.8" y="79.6" class="st50" width="19.7" height="1.7"/>
			</g>
			<g>
				<rect x="141.7" y="66.3" class="st50" width="23" height="28.4"/>
				<rect x="143.4" y="68.1" class="st51" width="19.5" height="24.7"/>
				<rect x="152.3" y="68.1" class="st50" width="1.7" height="24.7"/>
				<rect x="143.3" y="79.6" class="st50" width="19.7" height="1.7"/>
			</g>
			<g>
				<rect x="42.7" y="106.7" class="st50" width="23" height="28.4"/>
				<rect x="44.4" y="108.5" class="st51" width="19.5" height="24.7"/>
				<rect x="53.4" y="108.5" class="st50" width="1.7" height="24.7"/>
				<rect x="44.4" y="120.1" class="st50" width="19.7" height="1.7"/>
			</g>
			<g>
				<rect x="141.7" y="106.7" class="st50" width="23" height="28.4"/>
				<rect x="143.4" y="108.5" class="st51" width="19.5" height="24.7"/>
				<rect x="152.3" y="108.5" class="st50" width="1.7" height="24.7"/>
				<rect x="143.3" y="120" class="st50" width="19.7" height="1.7"/>
			</g>
			<g>
				<rect x="90.6" y="104.1" class="st52" width="26.1" height="48"/>
				<rect x="92.4" y="105.9" class="st53" width="22.5" height="46.2"/>
				<rect x="94.3" y="107.5" class="st52" width="18.8" height="13.4"/>
				<rect x="94.3" y="122.4" class="st52" width="18.8" height="13.4"/>
				<rect x="94.3" y="137.4" class="st52" width="18.8" height="13.4"/>
				<circle class="st2" cx="110.2" cy="128.8" r="1.6"/>
			</g>
			<g>
				<path class="st54" d="M39.3,141.9c0,3.9-3.2,7.1-7.1,7.1h-6.7c-3.4,0-6.3-2.5-7-5.7c-0.1-0.5-0.1-0.9-0.1-1.4
					c0-2.5,1.3-4.6,3.2-5.9c0.3-3.6,3.4-6.4,7.1-6.4c3.6,0,6.6,2.7,7,6.2c0.6,0.4,1.2,0.8,1.7,1.4C38.6,138.4,39.3,140.1,39.3,141.9
					z"/>
				<rect x="22.6" y="148.4" class="st4" width="12.5" height="3.7"/>
				<rect x="22.2" y="150.8" class="st2" width="13.4" height="1.3"/>
				<path class="st55" d="M39.3,141.9c0,3.9-3.2,7.1-7.1,7.1h-6.7c-3.4,0-6.3-2.5-7-5.7c1.5,1.4,4.1,3,7.5,2.4
					c5.6-1,5.9-6.6,5.9-6.6s3.3,1,5.4-2C38.6,138.4,39.3,140.1,39.3,141.9z"/>
			</g>
			<g>
				<path class="st54" d="M187.4,141.9c0,3.9-3.2,7.1-7.1,7.1h-6.7c-3.4,0-6.3-2.5-7-5.7c-0.1-0.5-0.1-0.9-0.1-1.4
					c0-2.5,1.3-4.6,3.2-5.9c0.3-3.6,3.4-6.4,7.1-6.4c3.6,0,6.6,2.7,7,6.2c0.6,0.4,1.2,0.8,1.7,1.4
					C186.7,138.4,187.4,140.1,187.4,141.9z"/>
				<rect x="170.7" y="148.4" class="st4" width="12.5" height="3.7"/>
				<rect x="170.3" y="150.8" class="st2" width="13.4" height="1.3"/>
				<path class="st55" d="M187.4,141.9c0,3.9-3.2,7.1-7.1,7.1h-6.7c-3.4,0-6.3-2.5-7-5.7c1.5,1.4,4.1,3,7.5,2.4
					c5.6-1,5.9-6.6,5.9-6.6s3.3,1,5.4-2C186.7,138.4,187.4,140.1,187.4,141.9z"/>
			</g>
			<polygon class="st50" points="181.4,48.6 181.4,58.7 139.7,58.7 103.7,28.5 67.6,58.7 25.9,58.7 25.9,48.6 67.6,48.6 103.7,17.9 
				139.7,48.6 			"/>
			<polygon class="st56" points="173.9,58.7 173.9,61.9 139.7,61.9 103.7,31.7 67.6,61.9 33.4,61.9 33.4,58.7 67.6,58.7 103.7,28.5 
				139.7,58.7 			"/>
		</g>
		<polygon class="st57" points="315,223 309,222.7 309,114 311,115 		"/>
		<path class="st15" d="M176.8,85.6c0,42.9-34.8,77.7-77.7,77.7c-21.1,0-40.3-8.4-54.3-22.1C30.4,127,21.5,107.3,21.5,85.6
			c0-42.9,34.8-77.7,77.7-77.7c28,0,52.6,14.9,66.3,37.1C172.7,56.9,176.8,70.7,176.8,85.6z"/>
		<path class="st58" d="M21.5,85.6c0,21.8,9,41.4,23.4,55.5L-1,177.7l-13.3,26.7L309,222.7V313H-24.3V-20.3H309V114L166.3,44.3
			l-0.9,0.7C151.8,22.8,127.2,7.9,99.2,7.9C56.3,7.9,21.5,42.7,21.5,85.6z"/>
		<path class="st59" d="M309,114v108.6l-323.3-18.3L-1,177.7l45.9-36.5c14,13.7,33.2,22.1,54.3,22.1c42.9,0,77.7-34.8,77.7-77.7
			c0-14.9-4.2-28.7-11.4-40.5l0.9-0.7L309,114z"/>
		<path class="st60" d="M114.6,175.7h-115v-41.3h115c11.4,0,20.7,9.3,20.7,20.7l0,0C135.3,166.4,126.1,175.7,114.6,175.7z"/>
		<circle class="st61" cx="25" cy="155.5" r="17"/>
		<circle class="st62" cx="65.2" cy="155.5" r="17"/>
		<circle class="st63" cx="105.4" cy="155.5" r="17"/>
	</g>
	<g id="Layer_5">
		<g class="st1">
			<g>
				<g>
					<polygon class="st8" points="232.4,40.7 213.8,40.7 214.9,40 223.1,34.3 231.3,40 					"/>
					<polygon class="st64" points="232.4,40.7 213.8,40.7 214.9,40 231.3,40 					"/>
				</g>
				<g>
					<polygon class="st8" points="241.6,47.1 204.6,47.1 205.6,46.4 213.8,40.7 232.4,40.7 240.6,46.4 					"/>
					<polygon class="st64" points="241.6,47.1 204.6,47.1 205.6,46.4 240.6,46.4 					"/>
				</g>
				<g>
					<polygon class="st8" points="250.9,53.6 195.3,53.6 196.3,52.8 204.6,47.1 241.6,47.1 249.9,52.8 					"/>
					<polygon class="st64" points="250.9,53.6 195.3,53.6 196.3,52.8 249.9,52.8 					"/>
				</g>
				<g>
					<polygon class="st8" points="259.9,59.8 259.9,60 186.3,60 186.3,59.8 187.1,59.3 195.3,53.6 250.9,53.6 259.1,59.3 					"/>
					<polygon class="st64" points="259.9,59.8 259.9,60 186.3,60 186.3,59.8 187.1,59.3 259.1,59.3 					"/>
				</g>
				<g>
					<rect x="186.3" y="60" class="st8" width="73.6" height="6.4"/>
					<rect x="186.3" y="65.7" class="st64" width="73.6" height="0.7"/>
				</g>
				<g>
					<rect x="186.3" y="66.4" class="st8" width="73.6" height="6.4"/>
					<rect x="186.3" y="72.1" class="st64" width="73.6" height="0.7"/>
				</g>
				<g>
					<rect x="186.3" y="72.8" class="st8" width="73.6" height="6.4"/>
					<rect x="186.3" y="78.5" class="st64" width="73.6" height="0.7"/>
				</g>
				<g>
					<rect x="186.3" y="79.2" class="st8" width="73.6" height="6.4"/>
					<rect x="186.3" y="84.9" class="st64" width="73.6" height="0.7"/>
				</g>
				<g>
					<rect x="186.3" y="85.6" class="st8" width="73.6" height="6.4"/>
					<rect x="186.3" y="91.3" class="st64" width="73.6" height="0.7"/>
				</g>
				<g>
					<rect x="186.3" y="92" class="st8" width="73.6" height="6.4"/>
					<rect x="186.3" y="97.7" class="st64" width="73.6" height="0.7"/>
				</g>
				<g>
					<rect x="186.3" y="98.5" class="st8" width="73.6" height="6.4"/>
					<rect x="186.3" y="104.2" class="st64" width="73.6" height="0.7"/>
				</g>
			</g>
			<rect x="159.1" y="152.9" class="st65" width="125.4" height="3.9"/>
			<g>
				<g>
					<polygon class="st8" points="234.3,77.2 212.4,77.2 213.6,76.3 223.4,69.6 233.1,76.3 					"/>
					<polygon class="st64" points="234.3,77.2 212.4,77.2 213.6,76.3 233.1,76.3 					"/>
				</g>
				<g>
					<polygon class="st8" points="245.2,84.7 201.5,84.7 202.7,83.9 212.4,77.2 234.3,77.2 244,83.9 					"/>
					<polygon class="st64" points="245.2,84.7 201.5,84.7 202.7,83.9 244,83.9 					"/>
				</g>
				<g>
					<polygon class="st8" points="256.1,92.3 190.6,92.3 191.8,91.5 201.5,84.7 245.2,84.7 254.9,91.5 					"/>
					<polygon class="st64" points="256.1,92.3 190.6,92.3 191.8,91.5 254.9,91.5 					"/>
				</g>
				<g>
					<polygon class="st8" points="266.8,99.7 266.8,99.9 179.9,99.9 179.9,99.7 180.9,99 190.6,92.3 256.1,92.3 265.9,99 					"/>
					<polygon class="st64" points="266.8,99.7 266.8,99.9 179.9,99.9 179.9,99.7 180.9,99 265.9,99 					"/>
				</g>
				<g>
					<rect x="179.9" y="99.9" class="st8" width="86.9" height="7.6"/>
					<rect x="179.9" y="106.6" class="st64" width="86.9" height="0.8"/>
				</g>
				<g>
					<rect x="179.9" y="107.4" class="st8" width="86.9" height="7.6"/>
					<rect x="179.9" y="114.2" class="st64" width="86.9" height="0.8"/>
				</g>
				<g>
					<rect x="179.9" y="115" class="st8" width="86.9" height="7.6"/>
					<rect x="179.9" y="121.7" class="st64" width="86.9" height="0.8"/>
				</g>
				<g>
					<rect x="179.9" y="122.6" class="st8" width="86.9" height="7.6"/>
					<rect x="179.9" y="129.3" class="st64" width="86.9" height="0.8"/>
				</g>
				<g>
					<rect x="179.9" y="130.1" class="st8" width="86.9" height="7.6"/>
					<rect x="179.9" y="136.9" class="st64" width="86.9" height="0.8"/>
				</g>
				<g>
					<rect x="179.9" y="137.7" class="st8" width="86.9" height="7.6"/>
					<rect x="179.9" y="144.4" class="st64" width="86.9" height="0.8"/>
				</g>
				<g>
					<rect x="179.9" y="145.3" class="st8" width="86.9" height="7.6"/>
					<rect x="179.9" y="152" class="st64" width="86.9" height="0.8"/>
				</g>
			</g>
			<rect x="211.4" y="112.8" class="st66" width="23.9" height="40"/>
			<rect x="213.1" y="114.3" class="st67" width="20.6" height="38.5"/>
			<g>
				<rect x="185.3" y="114.1" class="st64" width="21" height="23.7"/>
				<rect x="186.9" y="115.6" class="st68" width="17.9" height="20.6"/>
				<rect x="195.1" y="115.6" class="st64" width="1.5" height="20.6"/>
				<rect x="186.8" y="125.1" class="st64" width="18" height="1.4"/>
			</g>
			<g>
				<rect x="241.1" y="114.1" class="st64" width="21" height="23.7"/>
				<rect x="242.7" y="115.6" class="st68" width="17.9" height="20.6"/>
				<rect x="250.9" y="115.6" class="st64" width="1.5" height="20.6"/>
				<rect x="242.6" y="125.1" class="st64" width="18" height="1.4"/>
			</g>
			<polygon class="st66" points="274.9,99.7 266.8,99.7 223.4,69.6 179.9,99.7 171.8,99.7 223.4,63.8 			"/>
			<polygon class="st69" points="266.8,99.7 266.8,101.2 223.4,71.4 179.9,100.9 179.9,99.7 223.4,69.6 			"/>
			<g>
				<rect x="215.8" y="42.9" class="st64" width="15.1" height="17"/>
				<rect x="216.9" y="44" class="st68" width="12.8" height="14.8"/>
				<rect x="222.8" y="44" class="st64" width="1.1" height="14.8"/>
				<rect x="216.9" y="51" class="st64" width="12.9" height="1"/>
			</g>
			<polygon class="st66" points="266.8,59.8 259.9,59.8 223.1,34.3 186.3,59.8 179.4,59.8 223.1,29.4 			"/>
			<polygon class="st6" points="259.9,59.8 259.9,61 223.1,35.9 186.3,60.8 186.3,59.8 223.1,34.3 			"/>
			<g>
				<path class="st70" d="M184.7,144.4c0,3.3-2.9,5.9-6.5,5.9h-6.1c-3.2,0-5.8-2-6.4-4.8c-0.1-0.4-0.1-0.8-0.1-1.2
					c0-2.1,1.1-3.9,2.9-4.9c0.3-3,3.1-5.4,6.5-5.4c3.3,0,6,2.2,6.4,5.1c0.6,0.3,1.1,0.7,1.6,1.1
					C184.1,141.4,184.7,142.8,184.7,144.4z"/>
				<rect x="169.5" y="149.8" class="st4" width="11.4" height="3.1"/>
				<rect x="169.1" y="151.7" class="st2" width="12.2" height="1.1"/>
				<path class="st71" d="M184.7,144.4c0,3.3-2.9,5.9-6.5,5.9h-6.1c-3.2,0-5.8-2-6.4-4.8c1.4,1.2,3.7,2.5,6.9,2
					c5.1-0.8,5.4-5.5,5.4-5.5s3,0.8,4.9-1.7C184.1,141.4,184.7,142.8,184.7,144.4z"/>
			</g>
			<g>
				<ellipse class="st64" cx="223.4" cy="95.2" rx="12.2" ry="11.2"/>
				<ellipse class="st68" cx="223.4" cy="95.2" rx="10.9" ry="10"/>
				<rect x="222.6" y="84.9" class="st64" width="1.5" height="20.7"/>
				<rect x="211.3" y="94.5" class="st64" width="23.7" height="1.3"/>
			</g>
		</g>
		<path class="st15" d="M292.8,89.8c0,39.1-31.7,70.8-70.8,70.8s-70.8-31.7-70.8-70.8v-0.3C151.5,50.5,183,19,222,19
			c12.3,0,23.8,3.1,33.9,8.6C277.9,39.7,292.8,63,292.8,89.8z"/>
		<path class="st72" d="M301-1.4V183h-33l-270-3l153.3-90.5v0.3c0,39.1,31.7,70.8,70.8,70.8s70.8-31.7,70.8-70.8
			c0-26.8-14.9-50.1-36.8-62.1l37.6-22.2l6-5L301-1.4z"/>
		<path class="st73" d="M301-2.5v1.1l-1.5,1.9l-6,5l-37.6,22.2c-10-5.5-21.6-8.7-33.9-8.7c-39,0-70.6,31.5-70.8,70.4L-2,180V-2.5
			H301z"/>
		<path class="st74" d="M154.3,175.7H-0.3v-41.3h154.7c11.4,0,20.7,9.3,20.7,20.7l0,0C175,166.4,165.7,175.7,154.3,175.7z"/>
		<circle class="st75" cx="25" cy="155.5" r="17"/>
		<circle class="st63" cx="65.2" cy="155.5" r="17"/>
		<circle class="st76" cx="105.4" cy="155.5" r="17"/>
		<circle class="st77" cx="145.7" cy="155.5" r="17"/>
	</g>
	<g id="Layer_6">
		<g class="st1">
			<rect x="80.7" y="155.6" class="st78" width="164.4" height="5.6"/>
			<rect x="181.4" y="19.1" class="st10" width="21.2" height="14.2"/>
			<rect x="107.7" y="43.6" class="st79" width="114.4" height="112"/>
			<rect x="105" y="29.9" class="st80" width="119.8" height="13.8"/>
			<rect x="107.7" y="43.6" class="st81" width="114.4" height="3.6"/>
			<g>
				<rect x="126.9" y="52.8" class="st82" width="27.5" height="34"/>
				<rect x="129" y="54.9" class="st83" width="23.4" height="29.7"/>
				<rect x="139.7" y="54.9" class="st82" width="2" height="29.7"/>
				<rect x="128.9" y="68.8" class="st82" width="23.6" height="2"/>
			</g>
			<g>
				<rect x="177.2" y="52.8" class="st82" width="27.5" height="34"/>
				<rect x="179.3" y="54.9" class="st83" width="23.4" height="29.7"/>
				<rect x="190" y="54.9" class="st82" width="2" height="29.7"/>
				<rect x="179.2" y="68.8" class="st82" width="23.6" height="2"/>
			</g>
			<g>
				<rect x="177.2" y="107.2" class="st82" width="27.5" height="34"/>
				<rect x="179.3" y="109.3" class="st83" width="23.4" height="29.7"/>
				<rect x="190" y="109.3" class="st82" width="2" height="29.7"/>
				<rect x="179.2" y="123.2" class="st82" width="23.6" height="2"/>
			</g>
			<g>
				<rect x="126.1" y="98.1" class="st80" width="31.3" height="57.5"/>
				<rect x="128.2" y="100.2" class="st81" width="27" height="55.4"/>
				<rect x="130.4" y="102.1" class="st84" width="22.6" height="16.1"/>
				<rect x="130.4" y="120" class="st84" width="22.6" height="16.1"/>
				<rect x="130.4" y="137.9" class="st84" width="22.6" height="16.1"/>
				<circle class="st2" cx="149.5" cy="127.7" r="2"/>
			</g>
			<g>
				<path class="st70" d="M112.9,143.4c0,4.7-3.8,8.5-8.5,8.5h-8c-4.1,0-7.6-2.9-8.3-6.8c-0.1-0.5-0.2-1.1-0.2-1.7
					c0-2.9,1.5-5.5,3.8-7.1c0.4-4.3,4-7.7,8.5-7.7c4.3,0,7.9,3.2,8.4,7.4c0.8,0.4,1.5,1,2.1,1.6C112,139.2,112.9,141.2,112.9,143.4z
					"/>
				<rect x="92.9" y="151.1" class="st4" width="15" height="4.5"/>
				<rect x="92.4" y="154" class="st2" width="16" height="1.6"/>
				<path class="st85" d="M112.9,143.4c0,4.7-3.8,8.5-8.5,8.5h-8c-4.1,0-7.6-2.9-8.3-6.8c1.8,1.7,4.9,3.6,9,2.9
					c6.7-1.2,7.1-7.9,7.1-7.9s3.9,1.2,6.5-2.4C112,139.2,112.9,141.2,112.9,143.4z"/>
			</g>
			<g>
				<path class="st70" d="M239.2,143.4c0,4.7-3.8,8.5-8.5,8.5h-8c-4.1,0-7.6-2.9-8.3-6.8c-0.1-0.5-0.2-1.1-0.2-1.7
					c0-2.9,1.5-5.5,3.8-7.1c0.4-4.3,4-7.7,8.5-7.7c4.3,0,7.9,3.2,8.4,7.4c0.8,0.4,1.5,1,2.1,1.6
					C238.3,139.2,239.2,141.2,239.2,143.4z"/>
				<rect x="219.2" y="151.1" class="st4" width="15" height="4.5"/>
				<rect x="218.7" y="154" class="st2" width="16" height="1.6"/>
				<path class="st85" d="M239.2,143.4c0,4.7-3.8,8.5-8.5,8.5h-8c-4.1,0-7.6-2.9-8.3-6.8c1.8,1.7,4.9,3.6,9,2.9
					c6.7-1.2,7.1-7.9,7.1-7.9s3.9,1.2,6.5-2.4C238.3,139.2,239.2,141.2,239.2,143.4z"/>
			</g>
		</g>
		<path class="st86" d="M149-30.2V-3c-28.2,12.7-47.9,41-47.9,73.9c0,8.5,1.3,16.7,3.7,24.3L-2,122l-10.6,38.1L-32,163L-43-23L99-41
			L149-30.2z"/>
		<path class="st15" d="M263.1,70.9c0,19.4-6.8,37.1-18.1,51.1c-14.9,18.3-37.5,29.9-62.9,29.9c-11.8,0-23-2.5-33.1-7.1
			c-4.5-2-8.8-4.5-12.9-7.3c-14.6-10.1-25.8-25-31.2-42.3c-2.4-7.7-3.7-15.9-3.7-24.3C101.1,38,120.8,9.7,149-3
			c10-4.5,21-7,32.7-7.1c0.2,0,0.3,0,0.5,0C226.9-10.1,263.1,26.2,263.1,70.9z"/>
		<path class="st87" d="M325,191l-18,26l-331-16l11.4-40.9L-2,122l106.8-26.7c5.5,17.4,16.6,32.2,31.2,42.3
			c4.1,2.8,8.4,5.2,12.9,7.3c10.1,4.5,21.3,7.1,33.1,7.1c25.4,0,48-11.7,62.9-29.9l74.2,64L325,191z"/>
		<path class="st88" d="M377-74v260h-57.8L245,122c11.3-13.9,18.1-31.7,18.1-51.1c0-44.7-36.3-81-81-81c-0.2,0-0.3,0-0.5,0
			C170-10,159-7.5,149-3v-71H377z"/>
		<path class="st89" d="M154.3,175.7H-0.3v-41.3h154.7c11.4,0,20.7,9.3,20.7,20.7l0,0C175,166.4,165.7,175.7,154.3,175.7z"/>
		<circle class="st90" cx="25" cy="155.5" r="17"/>
		<circle class="st76" cx="65.2" cy="155.5" r="17"/>
		<circle class="st63" cx="105.4" cy="155.5" r="17"/>
		<circle class="st91" cx="145.7" cy="155.5" r="17"/>
	</g>
	<g id="Layer_7">
		<g class="st1">
			<rect x="128" y="30.5" class="st92" width="28.4" height="118.1"/>
			<rect x="150.2" y="30.5" class="st93" width="6.2" height="118.1"/>
			<rect x="121.1" y="148.6" class="st93" width="147.9" height="5"/>
			<g>
				<g>
					<polygon class="st94" points="207.9,50.7 182.1,50.7 183.6,49.6 195,40.9 206.5,49.6 					"/>
					<polygon class="st95" points="207.9,50.7 182.1,50.7 183.6,49.6 206.5,49.6 					"/>
				</g>
				<g>
					<polygon class="st94" points="220.8,60.5 169.3,60.5 170.7,59.4 182.1,50.7 207.9,50.7 219.4,59.4 					"/>
					<polygon class="st95" points="220.8,60.5 169.3,60.5 170.7,59.4 219.4,59.4 					"/>
				</g>
				<g>
					<polygon class="st94" points="233.7,70.3 156.4,70.3 157.8,69.2 169.3,60.5 220.8,60.5 232.3,69.2 					"/>
					<polygon class="st95" points="233.7,70.3 156.4,70.3 157.8,69.2 232.3,69.2 					"/>
				</g>
				<g>
					<polygon class="st94" points="246.3,79.8 246.3,80.1 143.8,80.1 143.8,79.8 144.9,79 156.4,70.3 233.7,70.3 245.2,79 					"/>
					<polygon class="st95" points="246.3,79.8 246.3,80.1 143.8,80.1 143.8,79.8 144.9,79 245.2,79 					"/>
				</g>
				<g>
					<rect x="143.8" y="80.1" class="st94" width="102.5" height="9.8"/>
					<rect x="143.8" y="88.8" class="st95" width="102.5" height="1.1"/>
				</g>
				<g>
					<rect x="143.8" y="89.8" class="st94" width="102.5" height="9.8"/>
					<rect x="143.8" y="98.5" class="st95" width="102.5" height="1.1"/>
				</g>
				<g>
					<rect x="143.8" y="99.6" class="st94" width="102.5" height="9.8"/>
					<rect x="143.8" y="108.3" class="st95" width="102.5" height="1.1"/>
				</g>
				<g>
					<rect x="143.8" y="109.4" class="st94" width="102.5" height="9.8"/>
					<rect x="143.8" y="118.1" class="st95" width="102.5" height="1.1"/>
				</g>
				<g>
					<rect x="143.8" y="119.2" class="st94" width="102.5" height="9.8"/>
					<rect x="143.8" y="127.9" class="st95" width="102.5" height="1.1"/>
				</g>
				<g>
					<rect x="143.8" y="129" class="st94" width="102.5" height="9.8"/>
					<rect x="143.8" y="137.7" class="st95" width="102.5" height="1.1"/>
				</g>
				<g>
					<rect x="143.8" y="138.8" class="st94" width="102.5" height="9.8"/>
					<rect x="143.8" y="147.5" class="st95" width="102.5" height="1.1"/>
				</g>
			</g>
			<rect x="181" y="96.8" class="st96" width="28.2" height="51.8"/>
			<rect x="182.9" y="98.8" class="st97" width="24.3" height="49.8"/>
			<g>
				<rect x="150.2" y="98.4" class="st96" width="24.8" height="30.6"/>
				<rect x="152" y="100.4" class="st98" width="21.1" height="26.7"/>
				<rect x="161.7" y="100.4" class="st96" width="1.8" height="26.7"/>
				<rect x="152" y="112.8" class="st96" width="21.2" height="1.8"/>
			</g>
			<g>
				<rect x="216" y="98.4" class="st96" width="24.8" height="30.6"/>
				<rect x="217.9" y="100.4" class="st98" width="21.1" height="26.7"/>
				<rect x="227.5" y="100.4" class="st96" width="1.8" height="26.7"/>
				<rect x="217.8" y="112.8" class="st96" width="21.2" height="1.8"/>
			</g>
			<rect x="181" y="81.7" class="st4" width="7.9" height="4.9"/>
			<rect x="191.1" y="81.7" class="st4" width="7.9" height="4.9"/>
			<rect x="201.3" y="81.7" class="st4" width="7.9" height="4.9"/>
			<polygon class="st96" points="255.9,79.8 246.3,79.8 195,40.9 143.8,79.8 134.2,79.8 195,33.4 			"/>
			<polygon class="st99" points="246.3,79.8 246.3,81.7 195,43.2 143.8,81.4 143.8,79.8 195,40.9 			"/>
			<rect x="125.9" y="23.2" class="st92" width="32.6" height="12.9"/>
			<rect x="128" y="36.1" class="st93" width="28.4" height="2.7"/>
		</g>
		<path class="st100" d="M299.7,178.3l-1.7,17.3H-18.3V31.1l2-12.8L-0.3-1l97.1,58c-1.6,6.2-2.4,12.6-2.4,19.3c0,43.1,34.9,78,78,78
			c20.4,0,38.9-7.8,52.8-20.6L299.7,178.3z"/>
		<path class="st101" d="M316.3-30.3v226H298l1.7-17.3l-74.6-44.6c15.5-14.2,25.2-34.7,25.2-57.4c0-43.1-34.9-78-78-78
			c-36.4,0-67,25-75.6,58.7L-0.3-1l-16,19.3l-2,12.8v-61.4C-18.3-30.3,316.3-30.3,316.3-30.3z"/>
		<path class="st15" d="M250.3,76.3c0,22.7-9.7,43.2-25.2,57.4c-13.9,12.8-32.4,20.6-52.8,20.6c-43.1,0-78-34.9-78-78
			c0-6.7,0.8-13.1,2.4-19.3c8.6-33.7,39.2-58.7,75.6-58.7C215.4-1.7,250.3,33.3,250.3,76.3z"/>
		<path class="st102" d="M154.3,175.7H-0.3v-41.3h154.7c11.4,0,20.7,9.3,20.7,20.7l0,0C175,166.4,165.7,175.7,154.3,175.7z"/>
		<circle class="st103" cx="25" cy="155.5" r="17"/>
		<circle class="st104" cx="65.2" cy="155.5" r="17"/>
		<circle class="st105" cx="105.4" cy="155.5" r="17"/>
		<circle class="st106" cx="145.7" cy="155.5" r="17"/>
	</g>
	<g id="Layer_8" class="st1">
		<g>
			<rect x="75.7" y="44.7" class="st107" width="93.2" height="96.6"/>
			<rect x="63.6" y="141.3" class="st108" width="117.4" height="4"/>
			<g>
				<rect x="86.7" y="100.2" class="st82" width="19.7" height="24.3"/>
				<rect x="88.2" y="101.7" class="st109" width="16.7" height="21.2"/>
				<rect x="95.8" y="101.7" class="st82" width="1.4" height="21.2"/>
				<rect x="88.2" y="111.6" class="st82" width="16.8" height="1.4"/>
			</g>
			<g>
				<rect x="138.9" y="100.2" class="st82" width="19.7" height="24.3"/>
				<rect x="140.4" y="101.7" class="st109" width="16.7" height="21.2"/>
				<rect x="148.1" y="101.7" class="st82" width="1.4" height="21.2"/>
				<rect x="140.4" y="111.7" class="st82" width="16.8" height="1.4"/>
			</g>
			<g>
				<rect x="86.7" y="55.6" class="st82" width="19.7" height="24.3"/>
				<rect x="88.2" y="57.1" class="st109" width="16.7" height="21.2"/>
				<rect x="95.8" y="57.1" class="st82" width="1.4" height="21.2"/>
				<rect x="88.2" y="67" class="st82" width="16.8" height="1.4"/>
			</g>
			<g>
				<rect x="112.8" y="55.6" class="st82" width="19.7" height="24.3"/>
				<rect x="114.3" y="57.1" class="st109" width="16.7" height="21.2"/>
				<rect x="121.9" y="57.1" class="st82" width="1.4" height="21.2"/>
				<rect x="114.3" y="67" class="st82" width="16.8" height="1.4"/>
			</g>
			<g>
				<rect x="138.9" y="55.6" class="st82" width="19.7" height="24.3"/>
				<rect x="140.4" y="57.1" class="st109" width="16.7" height="21.2"/>
				<rect x="148.1" y="57.1" class="st82" width="1.4" height="21.2"/>
				<rect x="140.4" y="67" class="st82" width="16.8" height="1.4"/>
			</g>
			<g>
				<rect x="111.1" y="100.2" class="st110" width="22.3" height="41.1"/>
				<rect x="112.6" y="101.7" class="st111" width="19.3" height="39.6"/>
				<rect x="114.2" y="103.1" class="st112" width="16.1" height="11.5"/>
				<rect x="114.2" y="115.9" class="st112" width="16.1" height="11.5"/>
				<rect x="114.2" y="128.7" class="st112" width="16.1" height="11.5"/>
				<circle class="st2" cx="127.9" cy="121.3" r="1.4"/>
			</g>
			<rect x="84.8" y="28.3" class="st10" width="15.2" height="10.1"/>
			<rect x="73.2" y="34.9" class="st112" width="98.2" height="9.8"/>
			<rect x="73.2" y="83.9" class="st112" width="98.2" height="9.8"/>
			<rect x="75.7" y="44.7" class="st6" width="93.2" height="2.6"/>
			<rect x="75.7" y="93.7" class="st6" width="93.2" height="2.6"/>
			<g>
				<path class="st113" d="M84.9,132.5c0,3.4-2.7,6.1-6.1,6.1h-5.7c-2.9,0-5.4-2.1-6-4.9c-0.1-0.4-0.1-0.8-0.1-1.2
					c0-2.1,1.1-4,2.7-5c0.3-3.1,2.9-5.5,6-5.5s5.6,2.3,6,5.3c0.6,0.3,1.1,0.7,1.5,1.2C84.3,129.4,84.9,130.9,84.9,132.5z"/>
				<rect x="70.6" y="138" class="st4" width="10.7" height="3.2"/>
				<rect x="70.2" y="140" class="st2" width="11.5" height="1.1"/>
				<path class="st114" d="M84.9,132.5c0,3.4-2.7,6.1-6.1,6.1h-5.7c-2.9,0-5.4-2.1-6-4.9c1.3,1.2,3.5,2.6,6.4,2
					c4.8-0.8,5.1-5.6,5.1-5.6s2.8,0.8,4.6-1.7C84.3,129.4,84.9,130.9,84.9,132.5z"/>
			</g>
			<g>
				<path class="st113" d="M175.1,132.5c0,3.4-2.7,6.1-6.1,6.1h-5.7c-2.9,0-5.4-2.1-6-4.9c-0.1-0.4-0.1-0.8-0.1-1.2
					c0-2.1,1.1-4,2.7-5c0.3-3.1,2.9-5.5,6-5.5s5.6,2.3,6,5.3c0.6,0.3,1.1,0.7,1.5,1.2C174.5,129.4,175.1,130.9,175.1,132.5z"/>
				<rect x="160.8" y="138" class="st4" width="10.7" height="3.2"/>
				<rect x="160.4" y="140" class="st2" width="11.5" height="1.1"/>
				<path class="st114" d="M175.1,132.5c0,3.4-2.7,6.1-6.1,6.1h-5.7c-2.9,0-5.4-2.1-6-4.9c1.3,1.2,3.5,2.6,6.4,2
					c4.8-0.8,5.1-5.6,5.1-5.6s2.8,0.8,4.6-1.7C174.5,129.4,175.1,130.9,175.1,132.5z"/>
			</g>
		</g>
		<g>
			<rect x="186.4" y="82.3" class="st107" width="57.6" height="59.7"/>
			<rect x="178.9" y="142" class="st108" width="72.6" height="2.5"/>
			<g>
				<rect x="193.2" y="116.6" class="st82" width="12.2" height="15"/>
				<rect x="194.1" y="117.6" class="st109" width="10.3" height="13.1"/>
				<rect x="198.8" y="117.6" class="st82" width="0.9" height="13.1"/>
				<rect x="194.1" y="123.7" class="st82" width="10.4" height="0.9"/>
			</g>
			<g>
				<rect x="225.5" y="116.6" class="st82" width="12.2" height="15"/>
				<rect x="226.4" y="117.6" class="st109" width="10.3" height="13.1"/>
				<rect x="231.1" y="117.6" class="st82" width="0.9" height="13.1"/>
				<rect x="226.4" y="123.7" class="st82" width="10.4" height="0.9"/>
			</g>
			<g>
				<rect x="193.2" y="89" class="st82" width="12.2" height="15"/>
				<rect x="194.1" y="90" class="st109" width="10.3" height="13.1"/>
				<rect x="198.8" y="90" class="st82" width="0.9" height="13.1"/>
				<rect x="194.1" y="96.1" class="st82" width="10.4" height="0.9"/>
			</g>
			<g>
				<rect x="209.3" y="89" class="st82" width="12.2" height="15"/>
				<rect x="210.2" y="90" class="st109" width="10.3" height="13.1"/>
				<rect x="214.9" y="90" class="st82" width="0.9" height="13.1"/>
				<rect x="210.2" y="96" class="st82" width="10.4" height="0.9"/>
			</g>
			<g>
				<rect x="225.5" y="89" class="st82" width="12.2" height="15"/>
				<rect x="226.4" y="90" class="st109" width="10.3" height="13.1"/>
				<rect x="231.1" y="90" class="st82" width="0.9" height="13.1"/>
				<rect x="226.4" y="96.1" class="st82" width="10.4" height="0.9"/>
			</g>
			<g>
				<rect x="208.3" y="116.6" class="st110" width="13.8" height="25.4"/>
				<rect x="209.2" y="117.6" class="st111" width="11.9" height="24.5"/>
				<rect x="210.2" y="118.4" class="st112" width="10" height="7.1"/>
				<rect x="210.2" y="126.3" class="st112" width="10" height="7.1"/>
				<rect x="210.2" y="134.2" class="st112" width="10" height="7.1"/>
				<circle class="st2" cx="218.6" cy="129.7" r="0.9"/>
			</g>
			<rect x="192" y="72.2" class="st10" width="9.4" height="6.3"/>
			<rect x="184.8" y="76.2" class="st112" width="60.7" height="6.1"/>
			<rect x="184.8" y="106.5" class="st112" width="60.7" height="6.1"/>
			<rect x="186.4" y="82.3" class="st6" width="57.6" height="1.6"/>
			<rect x="186.4" y="112.6" class="st6" width="57.6" height="1.6"/>
			<g>
				<path class="st113" d="M192,136.6c0,2.1-1.7,3.8-3.8,3.8h-3.5c-1.8,0-3.3-1.3-3.7-3c0-0.2-0.1-0.5-0.1-0.7
					c0-1.3,0.7-2.4,1.7-3.1c0.2-1.9,1.8-3.4,3.7-3.4s3.5,1.4,3.7,3.3c0.3,0.2,0.7,0.4,0.9,0.7C191.7,134.7,192,135.6,192,136.6z"/>
				<rect x="183.2" y="140" class="st4" width="6.6" height="2"/>
				<rect x="183" y="141.2" class="st2" width="7.1" height="0.7"/>
				<path class="st114" d="M192,136.6c0,2.1-1.7,3.8-3.8,3.8h-3.5c-1.8,0-3.3-1.3-3.7-3c0.8,0.7,2.2,1.6,4,1.3
					c3-0.5,3.1-3.5,3.1-3.5s1.7,0.5,2.8-1.1C191.7,134.7,192,135.6,192,136.6z"/>
			</g>
			<g>
				<path class="st113" d="M247.8,136.6c0,2.1-1.7,3.8-3.8,3.8h-3.5c-1.8,0-3.3-1.3-3.7-3c0-0.2-0.1-0.5-0.1-0.7
					c0-1.3,0.7-2.4,1.7-3.1c0.2-1.9,1.8-3.4,3.7-3.4s3.5,1.4,3.7,3.3c0.3,0.2,0.7,0.4,0.9,0.7C247.4,134.7,247.8,135.6,247.8,136.6z
					"/>
				<rect x="239" y="140" class="st4" width="6.6" height="2"/>
				<rect x="238.7" y="141.2" class="st2" width="7.1" height="0.7"/>
				<path class="st114" d="M247.8,136.6c0,2.1-1.7,3.8-3.8,3.8h-3.5c-1.8,0-3.3-1.3-3.7-3c0.8,0.7,2.2,1.6,4,1.3
					c3-0.5,3.1-3.5,3.1-3.5s1.7,0.5,2.8-1.1C247.4,134.7,247.8,135.6,247.8,136.6z"/>
			</g>
		</g>
		<path class="st115" d="M185,85.3c0,1.2,0,2.5-0.1,3.7c-1.9,34.9-30.8,62.6-66.2,62.6c-20.8,0-39.3-9.5-51.5-24.5
			c-9.3-11.4-14.8-26-14.8-41.8C52.3,48.7,82,19,118.7,19C155.3,19,185,48.7,185,85.3z"/>
		<path class="st116" d="M305.7,55.7v132.6H-6.8l5.2-9.3l68.8-51.8c12.2,15,30.7,24.5,51.5,24.5c35.4,0,64.3-27.7,66.2-62.6
			l59.1-5.2l57-89.5L305.7,55.7z"/>
		<path class="st117" d="M305.7-33v88.7L301-5.7l-57,89.5L184.9,89c0.1-1.2,0.1-2.5,0.1-3.7c0-36.6-29.7-66.3-66.3-66.3
			C82,19,52.3,48.7,52.3,85.3c0,15.9,5.6,30.4,14.8,41.8L-1.7,179l-5.2,9.3H-37V-33H305.7z"/>
		<path class="st118" d="M113.3,175.7H-41.3v-41.3h154.7c11.4,0,20.7,9.3,20.7,20.7l0,0C134,166.4,124.7,175.7,113.3,175.7z"/>
		<circle class="st82" cx="25.2" cy="155.5" r="17"/>
		<circle class="st107" cx="65.4" cy="155.5" r="17"/>
		<circle class="st112" cx="105.7" cy="155.5" r="17"/>
	</g>
</g>
<g id="Layer_2">
	<rect x="-263" y="86" class="st119" width="57" height="57"/>
	<rect x="-261" y="160.9" class="st120" width="57" height="57"/>
	<rect x="-268" y="235.9" class="st121" width="57" height="57"/>
	<g>
		<defs>
			<rect id="SVGID_1_" y="-1" width="303" height="182"/>
		</defs>
		<clipPath id="SVGID_2_">
			<use xlink:href="#SVGID_1_"  style="overflow:visible;"/>
		</clipPath>
		<g transform="matrix(1 0 0 1 0 -1.907349e-06)" style="clip-path:url(#SVGID_2_);">
			
				<image style="overflow:visible;" width="2698" height="3597" xlink:href="treeone.jpg"  transform="matrix(5.443472e-18 8.889865e-02 -8.889865e-02 5.443472e-18 314.837 -31.0161)">
			</image>
		</g>
		<linearGradient id="SVGID_3_" gradientUnits="userSpaceOnUse" x1="156.0074" y1="-10.6254" x2="149.0074" y2="176.3746">
			<stop  offset="0" style="stop-color:#C6FFDD"/>
			<stop  offset="0.5328" style="stop-color:#FBD786"/>
			<stop  offset="1" style="stop-color:#F7797D"/>
		</linearGradient>
		<path class="st122" d="M305.5-2v183.5h-91.3c23.4-16,38.8-43,38.8-73.5c0-49.2-39.8-89-89-89s-89,39.8-89,89
			c0,30.5,15.4,57.5,38.8,73.5H-1V-2H305.5z"/>
		<path class="st123" d="M154-12L-23.5,165.5V-59C-23.5-59,156-14,154-12z"/>
		<polygon class="st124" points="336.3,-7.5 286,-36.5 235.8,-7.5 235.8,50.5 286,79.5 336.3,50.5 		"/>
		<linearGradient id="SVGID_4_" gradientUnits="userSpaceOnUse" x1="113.81" y1="189.25" x2="214.19" y2="189.25">
			<stop  offset="0" style="stop-color:#C6FFDD"/>
			<stop  offset="0.5328" style="stop-color:#FBD786"/>
			<stop  offset="1" style="stop-color:#F7797D"/>
		</linearGradient>
		<path class="st125" d="M214.2,181.5c-14.3,9.8-31.6,15.5-50.2,15.5s-35.9-5.7-50.2-15.5H214.2z"/>
	</g>
</g>
</svg>
