<?xml version="1.0" encoding="utf-8"?>
<!-- Generator: Adobe Illustrator 22.1.0, SVG Export Plug-In . SVG Version: 6.00 Build 0)  -->
<svg version="1.1" id="Layer_1" xmlns="http://www.w3.org/2000/svg" xmlns:xlink="http://www.w3.org/1999/xlink" x="0px" y="0px"
	 viewBox="0 0 300 180" style="enable-background:new 0 0 300 180;" xml:space="preserve">
<style type="text/css">
	.st0{display:none;}
	.st1{display:inline;fill:#AF1E3C;}
	.st2{display:inline;}
	.st3{fill:#D1CDE2;}
	.st4{fill:#403E56;}
	.st5{fill:#ED1A3A;}
	.st6{opacity:0.2;fill:#010101;enable-background:new    ;}
	.st7{fill:#585B8A;}
	.st8{fill:#A0626B;}
	.st9{fill:#302E41;}
	.st10{display:inline;opacity:0.41;fill:url(#SVGID_1_);enable-background:new    ;}
	.st11{display:inline;fill:#EF446D;}
	.st12{display:inline;fill:#F04F34;}
	.st13{display:inline;fill:#FEBF22;}
	.st14{display:inline;fill:#FDC113;}
	.st15{display:inline;fill:#403E56;}
	.st16{display:inline;fill:#F9B7B8;}
	.st17{display:inline;fill:#D1CDE2;}
	.st18{display:inline;fill:#302E41;}
	.st19{display:inline;fill:none;stroke:#D1CDE2;stroke-width:0.4798;stroke-miterlimit:10;}
	.st20{display:inline;fill:#A0626B;}
	.st21{display:inline;fill:#FEC930;}
	.st22{display:inline;fill:#F37336;}
	.st23{display:inline;opacity:0.72;fill:url(#SVGID_2_);enable-background:new    ;}
	.st24{display:inline;opacity:0.72;fill:url(#SVGID_3_);enable-background:new    ;}
	.st25{display:inline;fill:none;}
	.st26{display:inline;fill:#E82374;}
	.st27{display:inline;fill:#585B8A;}
	.st28{display:inline;opacity:0.2;fill:#FFFFFF;enable-background:new    ;}
	.st29{display:inline;fill:#F9BEBF;}
	.st30{display:inline;fill:#F16BA0;}
	.st31{display:inline;opacity:0.56;fill:url(#SVGID_4_);enable-background:new    ;}
	.st32{display:inline;fill:#949494;}
	.st33{display:inline;fill:#565656;}
	.st34{display:inline;fill:#F26869;}
	.st35{display:inline;fill:#EB0D8C;}
	.st36{fill:#45B649;}
	.st37{fill:#57BF98;}
	.st38{fill:#6EBE44;}
	.st39{fill:#F9B7B9;}
	.st40{opacity:0.58;fill:url(#SVGID_5_);enable-background:new    ;}
	.st41{fill:#DCE35D;}
	.st42{display:inline;fill:#026D60;}
	.st43{display:inline;fill:#009789;}
	.st44{display:inline;fill:#F3F3F3;}
	.st45{display:inline;fill:#D0CDE1;}
	.st46{display:inline;opacity:0.2;}
	.st47{fill:#FFFFFF;}
	.st48{display:inline;opacity:0.2;fill:#010101;enable-background:new    ;}
	.st49{display:inline;fill:#154E5E;}
	.st50{display:inline;fill:#70B17F;}
	.st51{display:inline;opacity:0.59;fill:url(#SVGID_6_);enable-background:new    ;}
	.st52{display:inline;fill:#EF3D23;}
	.st53{display:inline;fill:#F16584;}
	.st54{display:inline;fill:#F2644B;}
	.st55{display:inline;opacity:0.63;fill:url(#SVGID_7_);enable-background:new    ;}
	.st56{display:inline;fill:#F68C1F;}
	.st57{display:inline;fill:#4CC7EA;}
	.st58{display:inline;fill:#557EBF;}
	.st59{display:inline;opacity:0.1;fill:#010101;enable-background:new    ;}
	.st60{display:inline;fill:#4E9AD4;}
	.st61{display:inline;opacity:0.61;fill:url(#SVGID_8_);enable-background:new    ;}
	.st62{display:inline;fill:#43599B;}
	.st63{display:inline;fill:#FFFFFF;}
	.st64{display:inline;fill:#7459A6;}
	.st65{display:inline;fill:url(#SVGID_9_);}
	.st66{display:inline;fill:#EF486C;}
	.st67{display:inline;fill:#4E64AE;}
	.st68{display:inline;opacity:0.79;fill:url(#SVGID_10_);enable-background:new    ;}
	.st69{enable-background:new    ;}
	.st70{font-family:'FCLamoonRegular';}
	.st71{font-size:95.802px;}
</style>
<g id="sun" class="st0">
	<rect x="-2.3" y="-1" class="st1" width="302.1" height="181.4"/>
	<g class="st2">
		<path class="st3" d="M228,162.8l20.8-30.9L228,166.1v3.5c-1.5,0-3,0-4.5-0.1l1-44.7v-0.3v-0.1l0.1-4.2l-22.8-33l22.7,29.9l0.1,0.9
			l0.8-33.8l-19.7-34.3l19.7,28.3l-0.2-70V8v0.2l1.3,55.2L244.4,41l-17.9,27.2l0.4,30.2l16.5-29.5L227,102.8l0.2,16.8l24-41.1
			l-23.9,46.9L228,162.8z"/>
		<ellipse class="st3" cx="148.4" cy="169.1" rx="88.1" ry="4.5"/>
		<circle class="st4" cx="199.9" cy="169.5" r="2.7"/>
		<path class="st4" d="M200.3,114.1l-7-18.7c0,0,1.1-3.5-1.8-3.3c-2.9,0.2-10.7,2.9-10.7,2.9s-2.7,0.2,1,4l6.3,19.8l2.1-1l-6.8-19.6
			c0,0-0.4-1.3,1-1.7c1.3-0.4,6.4-2.5,6.9-1.2s6.8,20.5,6.8,20.5L200.3,114.1z"/>
		<path class="st5" d="M181.4,127l13.6,40.6c1.1,0.7,2.3,1.3,3.5,1.7c1.1,0.4,2.3,0.7,3.5,0.8c0.4,0,0.9,0,1.3-0.1
			c7-1.4,30.9-14.2,30.9-14.2S222,117.6,219.9,113s-6.7-2.9-6.7-2.9s-23.3,6.3-26.6,7.5c-0.1,0-0.1,0-0.2,0.1
			c-1.5,0.5-2.7,1.5-3.6,2.8l0,0C179.4,122.5,181.4,127,181.4,127z"/>
		<path class="st6" d="M191.1,116.1l0.1,0.2c1.1-0.3,1.9,2,2,2.1l14.9,41.3l0.2-0.1l-1.9-5.2l20.3-9l1.6,4.6l0.2-0.1l-13.3-38.3l0,0
			c0-0.1-1.2-1.8-2.5-1.5l0.1,0.2c1.1-0.3,2.1,1.2,2.2,1.4l2.8,8.1l-21.4,7l-3.1-8.5C193.3,118.2,192.4,115.7,191.1,116.1z
			 M217.9,120.1l2.1,6l-21,7.7l-2.4-6.7L217.9,120.1z M201.4,140.6L199,134l21-7.7l2.1,5.9L201.4,140.6z M222.2,132.5l2.3,6.5
			l-20.6,8.3l-2.3-6.4L222.2,132.5z M206.3,154.2l-2.4-6.7l20.6-8.3l2.1,6L206.3,154.2z"/>
		<path class="st6" d="M182.8,125.5c1.2,1.9,14.8,42.6,14.8,42.6c0.3,0.4,0.5,0.8,0.9,1.2c1.1,0.4,2.3,0.7,3.5,0.8
			c0.4,0,0.9,0,1.3-0.1c-0.8-0.3-2.7-1.3-3.6-4.1c-1.2-3.8-14.5-43.4-14.5-43.4s0.4-3,1.5-4.9c-0.1,0-0.1,0-0.2,0.1
			c-1.5,0.5-2.7,1.5-3.6,2.8l0,0C182.8,120.4,181.6,123.6,182.8,125.5z"/>
		<path class="st4" d="M185.3,134.5l1.3,4.1c0,0-1.1,8.1,4.6,13.5l1.2,4.1h-1.3l-1.3-4c0,0-4.4-5.3-4.4-13.2l-1.1-4.5L185.3,134.5z"
			/>
		<circle class="st4" cx="208.1" cy="169.6" r="2.7"/>
		<circle class="st4" cx="234" cy="158.4" r="2.7"/>
		<path class="st7" d="M138.2,44.9c0,0-6.2,1.1-6.5,3.6c-0.2,1.8-0.2,3.6,0,5.3L138.2,44.9z"/>
		<path class="st7" d="M173.6,103.8c0,0-18,6.5-29.7,0.8C132,99,117.7,92,117.7,92s-7,0.6-6.2-3.6s6.5-28.6,19.4-36.8
			c0,0,7.9-10.1,12.3-9.5c4.5,0.6,21.9,42.1,21.9,42.1L173.6,103.8z"/>
		<path class="st6" d="M173.6,103.8c0,0-18,6.5-29.7,0.8C132,99,117.7,92,117.7,92s-7,0.6-6.2-3.6s6.5-28.6,19.4-36.8
			c0,0,7.9-10.1,12.3-9.5c4.5,0.6,21.9,42.1,21.9,42.1L173.6,103.8z"/>
		<path class="st8" d="M183.1,88.7l1.1,2.8c0,0,7.3,4.5,4.2,7.6s-7.7-5.2-7.7-5.2l-1.8-3.5L183.1,88.7z"/>
		<polygon class="st8" points="121.6,138.9 120.5,158.3 126.4,160.8 128.7,137.5 		"/>
		<polygon class="st8" points="145.5,138.9 153.4,149 155.6,155.7 161.2,155.4 162.6,148.7 154.8,140.9 		"/>
		<circle class="st8" cx="144.8" cy="32.1" r="7.6"/>
		<path class="st8" d="M143.3,37.9l0.6,7l9-2.8c0,0-3.4-5.3-2.5-6.7L143.3,37.9z"/>
		<path class="st3" d="M143.3,42.1c0,0,5.3,1.4,8.4-2l6.5,3.1l-8.4,31.4L132,69.9l2.8-6.2c0,0-3.6-4.2,0.3-8.1c0,0,0.8-7.9,3.4-9.5
			C140.2,44.8,141.8,43.5,143.3,42.1z"/>
		<path class="st7" d="M151.5,40c0,0-9.5,7.6,0.8,30s19.1,41.5,22.5,40.4s14.9-9.8,10.9-12.9c-3.9-3.1-20.5-12.9-22.7-25.8
			s3.1-26.1,3.1-26.1L151.5,40z"/>
		<polygon class="st7" points="162.1,48.5 186.2,89.2 179.5,92 158.7,64 		"/>
		<path class="st9" d="M133.4,69h-2l-7.3,15.7c0,0-13.8,41.5-12.3,50c1.4,8.4,53.6,7.3,50.8,7c-2.7-0.3-16.6-64.2-12.5-67.8
			L133.4,69z"/>
		<path class="st9" d="M122.5,156c0,0-0.6-2.2-2.8-2.2s-2.2,3.1-2.2,3.1l-6.5,5.9c0,0-5.6,7,1.7,7s7.3-1.7,7.3-1.7s2-2,3.6-0.8
			s5.6-1.1,5.1-2.2s-1.4-8.4-2-7.1C126.1,159.1,122.5,156,122.5,156z"/>
		<path class="st9" d="M159.8,152.6c0,0,0.6-0.3-2.2,0s-3.9,0-3.9,0l2,7.6c0,0-1.7,12.9,3.9,11.8c5.6-1.1,5.6-9,5.6-9
			s-0.8-7-0.3-7.6s0.3-8.1-0.6-8.1c-0.8,0-4.9-1.8-4.9-1.8S162.1,152.6,159.8,152.6z"/>
		<path class="st9" d="M145,32.6c-0.5-0.7-0.2-1.7-0.6-2.5c-0.5-1.3-2.1-1.5-3.5-1.7c-0.9-0.1-1.8-0.1-2.7,0
			c-0.8,0.1-1.5,0.6-1.9,1.4c-0.2,0.4-0.1-0.9,0-2.5c0.3-3.4,2.7-6.2,6-7c0,0,0,0,0.1,0c1.6-0.4,3.3-0.7,5-0.5s3.4,0.9,4.4,2.3
			c0.5,0.6,0.8,1.3,1.4,1.9c0.9,1,2.3,1.3,3.6,1.8c1.5,0.5,2.8,1.3,4,2.3c1.1,1.1,1.9,2.5,1.9,4.1c0,1.8-1.1,3.6-2.9,4
			c-0.3,0.1-0.6,0.2-0.9,0.4c-1.8,1.4,0.2,2.8,0.2,4.3c0,1.3-1.4,2.1-2.7,2.2c-2.5,0-4.6-1.7-5.1-4.1c-0.2-1,0-2.1,0.1-3.2
			c0.1-1.2-2.5-4.1-0.7-2c0.3,0.4,0.6,0.9,0.7,1.4c0.3,1.7-1.2,2.2-2.2,3.2c-1.1,1.1-1.4,2.7-1,4.1c-1.6-1.5-2-3.9-0.8-5.8
			c0.3-0.5,0.7-0.9,1-1.4c0.5-0.8,0.6-2.4-0.7-2.4C146.7,32.9,145.7,33.6,145,32.6z"/>
		<path class="st3" d="M81.3,165.6c0,0-11.3-20.8-38.5-11.8L81.3,165.6z"/>
		<path class="st3" d="M82,165.1c0,0-13.9-17.7,6.2-39.8L82,165.1z"/>
	</g>
	
		<linearGradient id="SVGID_1_" gradientUnits="userSpaceOnUse" x1="149.2979" y1="178.326" x2="147.9646" y2="2.3261" gradientTransform="matrix(1 0 0 -1 0 182)">
		<stop  offset="0" style="stop-color:#EF446D"/>
		<stop  offset="0.1348" style="stop-color:#EA436A"/>
		<stop  offset="0.288" style="stop-color:#E04062"/>
		<stop  offset="0.4502" style="stop-color:#D33C56"/>
		<stop  offset="0.6188" style="stop-color:#C33646"/>
		<stop  offset="0.7905" style="stop-color:#AF3031"/>
		<stop  offset="0.9092" style="stop-color:#A02B23"/>
		<stop  offset="1" style="stop-color:#651506"/>
	</linearGradient>
	<path class="st10" d="M148,90.3h151.5V-2.3H56.2c11.3,6.7,18.8,19,18.8,33C75,51.8,57.8,69,36.7,69C15.5,69-1.7,51.8-1.7,30.7
		c0-14,7.5-26.3,18.8-33H-2.3v183h301.9V119H148c-7.9,0-14.3-6.4-14.3-14.3c0-4,1.6-7.5,4.2-10.1C140.5,91.9,144,90.3,148,90.3z
		 M270.4,3.3c14.5,0,26.3,11.8,26.3,26.3s-11.8,26.3-26.3,26.3C255.8,56,244,44.2,244,29.6C244,15.1,255.8,3.3,270.4,3.3z
		 M39.8,168.3c-17.8,0-32.2-14.4-32.2-32.2s14.4-32.2,32.2-32.2S72,118.3,72,136.1S57.6,168.3,39.8,168.3z"/>
	<rect x="-20.3" y="227.7" class="st11" width="56.7" height="56.7"/>
	<rect x="50.3" y="228.3" class="st12" width="56.7" height="56.7"/>
</g>
<g id="mon" class="st0">
	<rect x="-0.3" y="-1" class="st13" width="301.3" height="181.3"/>
	<path class="st14" d="M149.7,124.3c3.4,3.7,3.6,9.1,3.6,9.1s-5.4-0.6-8.9-4.3c-3.4-3.7-3.6-9.1-3.6-9.1S146.2,120.6,149.7,124.3z"
		/>
	<path class="st14" d="M160.5,130c-3.7,3.4-9.1,3.6-9.1,3.6s0.6-5.4,4.3-8.9c3.7-3.4,9.1-3.6,9.1-3.6S164.2,126.6,160.5,130z"/>
	<path class="st15" d="M159.6,141H146c-0.5,0-1-0.3-1.3-0.8l-3-6.1c-0.3-0.7,0-1.5,0.6-1.9c0.2-0.1,0.4-0.1,0.6-0.1h19.5
		c0.8,0,1.4,0.6,1.4,1.4c0,0.2,0,0.4-0.1,0.6l-3,6.1C160.6,140.7,160.1,141,159.6,141z"/>
	<circle class="st16" cx="220.7" cy="55.4" r="11.3"/>
	<path class="st16" d="M212.3,61.1c0,0,2.1,16.1-1.1,17.9c-3.3,1.8,19.5,2,19.5,2s-5.1-14-2.8-18.2L212.3,61.1z"/>
	<path class="st17" d="M247.3,81l-1.9,8.6l-4,18.3l-0.1,1l-1.4,11.6l-0.9,7.7l-0.6,5.2c-3.8,1.9-6.5,3.3-6.5,3.3s-0.2-1.2-0.6-2.7
		c-2.6,0.8-7.5,2.1-11.7,2.4c1.5,1.7,2.2,3.3,1.3,4.4c-2.8,3.5-14.5-3.8-18.6-6.6c-0.1,0.7-0.1,1.3-0.1,2l-3.1-2.4l0.3-5.5l0.5-9.4
		l0.7-11.8c-0.2-0.5-0.4-1-0.5-1.5c-1-3.4-2.1-10.2-3-15.9c-0.7-4.6-1.3-8.5-1.4-9.3c0-0.1,0-0.2,0-0.2l17.3-7.7
		c1.2,2.9,7,3.7,7,3.7c4.8-0.3,8.5-2.8,8.5-2.8L247.3,81z"/>
	<path class="st16" d="M233.2,133.4c0,0-0.7,0.3-1.9,0.6c-2.6,0.8-7.5,2.1-11.7,2.4c-3.6,0.2-6.6-0.3-7.1-2.6
		c-0.2-1,0.1-1.8,0.8-2.5c2.2-2,7.9-2.7,12.4-3c1.3-0.1,2.5-0.1,3.4-0.1c1.7,0,2.8,0,2.8,0v0.1L233.2,133.4z"/>
	<path class="st18" d="M211.3,44.7l-2.1-0.8c0,0,4.4-4.9,10.6-4.5l-1.7-1.9c0,0,4.2-1.7,8.1,2.8c2,2.3,4.4,5.1,5.8,8.2h2.3l-0.9,2.1
		l3.3,2.1l-3.4-0.4c0.2,1.1,0.2,2.3,0.1,3.5c-0.1,1.2-0.7,2.2-1.6,2.9l0,0c0,0-2.6-5.4-2.6-6.3v2.1c0,0-2.1-1.9-2.1-3.2l-1.2,1.5
		l-0.6-2.3l-7.1,2.3l1.2-1.9l-4.4,0.6l1.7-2.3c0,0-5,2.8-5.2,5.1s-1.7,4.5-1.7,4.5S205.7,47.9,211.3,44.7z"/>
	<path class="st17" d="M259.7,120.8c-1.2,1.3-4,3.1-7.5,5.2c-1.3,0.8-2.7,1.5-4.1,2.3c-3.3,1.9-6.8,3.7-9.7,5.2
		c-3.8,1.9-6.5,3.3-6.5,3.3s-0.2-1.2-0.6-2.7c-0.5-2-1.3-4.6-2.1-5.8l-0.1-0.1c-0.2-0.3-0.5-0.5-0.7-0.5l11.5-7.1l5-3.1l-3.6-8.5
		l-4.5-10.7l2.7-8.6l2.7-8.6h5.1c0,0,1.7,3.7,3.8,8.8c0.3,0.8,0.7,1.6,1,2.4C256.6,103,262.1,118.1,259.7,120.8z"/>
	<path class="st16" d="M220.9,140.8c-2.8,3.5-14.5-3.8-18.6-6.6c-0.9-0.6-1.4-1-1.4-1l3.7-5l1.2-1.6c0,0,1.1,0.6,2.6,1.5
		c0.1,0,0.1,0.1,0.2,0.1c1.4,0.8,3,1.8,4.8,3c2.4,1.6,4.8,3.4,6.3,5.1C221.1,138.1,221.8,139.6,220.9,140.8z"/>
	<path class="st17" d="M208.4,128.2c-0.4,0-0.8,0-1.2,0.1c-3.5,0.6-4.6,3.8-4.9,6c-0.1,0.7-0.1,1.3-0.1,2l-3.1-2.4L198,133
		c-2.7-1-5.2-2.7-7.3-4.7c-1.8-1.8-3.5-3.7-4.9-5.8c-1.4-2.1-2.7-4.3-3.8-6.5c-0.6-1.3-0.7-2.8-0.1-4.1l3.9-8.6l5.7-12.6
		c0-0.3,0.1-0.6,0.1-0.9c1.1-6.4,4.1-9.3,4.1-9.3h2.3l1.5,9.3l1.9,11.6l-1.3,4.4l-3.1,10.1l3,3.2L208.4,128.2z"/>
	<path class="st14" d="M211,101.2l2,2.3c0.7-0.1,1.5-0.3,2.3-0.5l-0.6-1.8l1.4,1.6c8.3-2,18.6-6,18.6-6s-11.1,0.8-19.5-1
		c-3.7-0.8-7.5,1-9,4.5c-0.9,2-0.7,3.7,2.4,3.7c1.1,0,2.1-0.1,3.1-0.3L211,101.2z"/>
	<path class="st15" d="M255.8,138.9v0.9c0,0.3,0,0.5-0.1,0.8c0,0.1-0.1,0.2-0.1,0.3c-0.4,0.6-1.1,1-1.8,1H185c-0.7,0-1.4-0.4-1.8-1
		c-0.1-0.1-0.1-0.2-0.1-0.3c-0.1-0.2-0.1-0.5-0.1-0.8v-0.9c0-1.1,0.9-2.1,2.1-2.1l0,0h4v-0.4c0,0,0-0.1,0.1-0.1l0,0h2.1
		c0,0,0.1,0,0.1,0.1l0,0v0.4h1.3v-0.4c0,0,0-0.1,0.1-0.1l0,0h2.1c0,0,0.1,0,0.1,0.1l0,0v0.4h1.3v-0.4c0,0,0-0.1,0.1-0.1l0,0h2.1
		c0,0,0.1,0,0.1,0.1l0,0v0.4h1.3v-0.4c0,0,0-0.1,0.1-0.1l0,0h2.1c0,0,0.1,0,0.1,0.1l0,0v0.4h1.3v-0.4c0,0,0-0.1,0.1-0.1l0,0h2.1
		c0,0,0.1,0,0.1,0.1l0,0v0.4h1.3v-0.4c0,0,0-0.1,0.1-0.1l0,0h2.1c0,0,0.1,0,0.1,0.1l0,0v0.4h1.3v-0.4c0,0,0-0.1,0.1-0.1l0,0H227
		c0,0,0.1,0,0.1,0.1l0,0v0.4h1.3v-0.4c0,0,0-0.1,0.1-0.1l0,0h2.1c0,0,0.1,0,0.1,0.1v0.4h1.3v-0.4c0,0,0-0.1,0.1-0.1l0,0h2.1
		c0,0,0.1,0,0.1,0.1l0,0v0.4h1.3v-0.4c0,0,0-0.1,0.1-0.1l0,0h2.1c0,0,0.1,0,0.1,0.1l0,0v0.4h1.3v-0.4c0,0,0-0.1,0.1-0.1l0,0h2.1
		c0,0,0.1,0,0.1,0.1v0.4h1.3v-0.4c0,0,0-0.1,0.1-0.1l0,0h2.1c0,0,0.1,0,0.1,0.1l0,0v0.4h1.3v-0.4c0,0,0-0.1,0.1-0.1l0,0h2.1
		c0,0,0.1,0,0.1,0.1l0,0v0.4h6C254.9,136.9,255.8,137.8,255.8,138.9L255.8,138.9z"/>
	<path class="st15" d="M250.3,99.5h-25.7V99H213v0.5h-25.8c-1,0-1.7,0.8-1.7,1.7l0,0v35.1c0,1,0.8,1.7,1.7,1.7l0,0h63
		c1,0,1.7-0.8,1.7-1.7l0,0v-35.1C252,100.3,251.2,99.5,250.3,99.5L250.3,99.5z"/>
	<circle class="st19" cx="218.8" cy="111.8" r="3.9"/>
	<circle class="st17" cx="217.6" cy="113.2" r="3.9"/>
	<circle class="st18" cx="104.4" cy="76.9" r="5.6"/>
	<path class="st18" d="M106,71.4c3.1,0,5.6,2.5,5.6,5.6c0,0.9-0.2,1.8-0.7,2.7c1.9-2.4,1.5-5.9-0.9-7.9c-2.4-1.9-5.9-1.5-7.9,0.9
		c-0.2,0.3-0.4,0.5-0.6,0.8C102.7,72.2,104.3,71.4,106,71.4z"/>
	<circle class="st18" cx="94" cy="60.4" r="16.5"/>
	<path class="st18" d="M81,50.2c5.9-6.6,16-7.4,22.8-1.7c-0.1-0.1-0.3-0.3-0.4-0.4c-6.8-6-17.2-5.4-23.3,1.4
		c-6,6.8-5.4,17.2,1.4,23.3c0.1,0.1,0.3,0.2,0.4,0.4C75.5,66.9,75.1,56.8,81,50.2z"/>
	<circle class="st20" cx="93.8" cy="66.1" r="10.6"/>
	<path class="st20" d="M86.3,69.5c0,0,1.4,12.8-0.8,14.2s12.8,3.4,12.8,3.4s-2.2-14,3.4-17.6H86.3z"/>
	<path class="st17" d="M99.7,81.5c0,0,4.2-1.9-1.8-1.3s-11.2-2-11.2-2s-1.8-1.8-2.1,0.1c-0.3,2,0.8,5.6-5.3,6.1
		c-6.1,0.6-11.7-1.1-14,3.1S64.2,110,64.2,110s4.2,15.1,7.5,17.3c3.4,2.2,32.7-0.8,32.7-0.8l8.4-15.1V93.8c0,0-1.1-6.1-8.9-4.5
		c0,0-5-1.1-4.7-3.6C99.4,83.2,99.7,81.5,99.7,81.5z"/>
	<path class="st18" d="M72.9,138c0.2-0.8,0.3-1.2,0.3-1.2l-0.1-0.6l-0.9-6.2l-0.4-2.6c3.4-1.4,4.2-7.8,4.2-7.8l0.1-0.1l0.6-0.3l0,0
		l2.1-1.2l0,0l0.8,0.6l1.7,1.1c4.5,3.3,10.1,4.6,15.6,3.6c1.3-0.2,2.5-0.6,3.7-1.1l4.1-1.4h0.1h0.1l2.4,0.4l0,0h0.2l-0.6,3.8
		l-0.8,5.5c2.1,1.1,4,3.2,5.6,5.8c0.4,0.6,0.7,1.2,1.1,1.8c0.4,0.8,0.9,1.6,1.3,2.5c0,0.1,0.1,0.2,0.1,0.3c0.2,0.3,0.3,0.7,0.5,1
		H72.1c0.1-0.3,0.1-0.7,0.2-1l0,0c0-0.1,0-0.2,0.1-0.3C72.5,139.4,72.7,138.6,72.9,138z"/>
	<path class="st18" d="M71.2,84.3c0,0,3.1,5.6,2,12.6s3.4,24.3,3.4,24.3l3.4-0.8c0,0-2.2-14.5-1.7-17.9c0.6-3.4,0.6-16.5-2.2-18.2
		C73.1,82.6,71.2,84.3,71.2,84.3z"/>
	<path class="st18" d="M103.7,90.1l1.2,30.9l2.2,1.4c0,0,3.2-33.9,1.5-33.9h-3.4C104.4,88.5,103.7,89.2,103.7,90.1
		C103.7,90,103.7,90.1,103.7,90.1z"/>
	<circle class="st14" cx="78" cy="119.1" r="1.4"/>
	<circle class="st14" cx="106" cy="120.5" r="1.4"/>
	<polygon class="st18" points="84.7,52.9 84.7,63.5 87.2,63.5 90.3,60.1 89.9,63.5 100.8,63.5 100.1,60.1 101.4,63.5 103.2,63.5 
		103.2,52.9 	"/>
	<ellipse class="st20" cx="83.1" cy="63.9" rx="0.8" ry="1.5"/>
	<ellipse class="st20" cx="104.6" cy="63.9" rx="0.8" ry="1.5"/>
	<path class="st20" d="M110.3,120.3c0,0-12.7-2.4-13.5,1.8c-0.8,4.2,14.1,2.4,14.1,2.4L110.3,120.3z"/>
	<path class="st17" d="M110,91.5c0,0,30.4,24.3,24.9,30.2s-26.8,4.2-26.8,4.2l1.4-7l12.3-1.4l-6.1-6.1l-5.6,0.6L110,91.5z"/>
	<path class="st20" d="M65,132l3.9,3.1c0,0,2.8,8.7,7,6.1S72,129.8,72,129.8l-4.7-1.7L65,132z"/>
	<path class="st17" d="M69,87.1l-3.9,1.2c0,0-27.1,20.1-28.2,25.6c-1.1,5.6,5.3,8.7,5.3,8.7L66.4,134l2.5-6.7l-11.5-5.9
		c0,0,0.8-1.7-2.5-2c-3.4-0.3-3.9-3.9-3.9-3.9s6.7-10.3,10.3-8.1c3.6,2.2,4.7,3.9,4.7,3.9L69,87.1z"/>
	<path class="st15" d="M124.6,138.9v0.9c0,0.3,0,0.5-0.1,0.8c0,0.1-0.1,0.2-0.1,0.3c-0.4,0.6-1.1,1-1.8,1H53.7c-0.7,0-1.4-0.4-1.8-1
		c-0.1-0.1-0.1-0.2-0.1-0.3c-0.1-0.2-0.1-0.5-0.1-0.8v-0.9c0-1.1,0.9-2.1,2.1-2.1l0,0h4v-0.4c0,0,0-0.1,0.1-0.1l0,0H60
		c0,0,0.1,0,0.1,0.1l0,0v0.4h1.3v-0.4c0,0,0-0.1,0.1-0.1l0,0h2.1c0,0,0.1,0,0.1,0.1l0,0v0.4H65v-0.4c0,0,0-0.1,0.1-0.1l0,0h2.1
		c0,0,0.1,0,0.1,0.1l0,0v0.4h1.3v-0.4c0,0,0-0.1,0.1-0.1l0,0h2.1c0,0,0.1,0,0.1,0.1l0,0v0.4h1.3v-0.4c0,0,0-0.1,0.1-0.1l0,0h2.1
		c0,0,0.1,0,0.1,0.1l0,0v0.4h1.3v-0.4c0,0,0-0.1,0.1-0.1l0,0H78c0,0,0.1,0,0.1,0.1l0,0v0.4h1.3v-0.4c0,0,0-0.1,0.1-0.1l0,0h16.2
		c0,0,0.1,0,0.1,0.1l0,0v0.4h1.3v-0.4c0,0,0-0.1,0.1-0.1l0,0h2.1c0,0,0.1,0,0.1,0.1v0.4h1.3v-0.4c0,0,0-0.1,0.1-0.1l0,0h2.1
		c0,0,0.1,0,0.1,0.1l0,0v0.4h1.3v-0.4c0,0,0-0.1,0.1-0.1l0,0h2.1c0,0,0.1,0,0.1,0.1l0,0v0.4h1.3v-0.4c0,0,0-0.1,0.1-0.1l0,0h2.1
		c0,0,0.1,0,0.1,0.1v0.4h1.3v-0.4c0,0,0-0.1,0.1-0.1l0,0h2.1c0,0,0.1,0,0.1,0.1l0,0v0.4h1.3v-0.4c0,0,0-0.1,0.1-0.1l0,0h2.1
		c0,0,0.1,0,0.1,0.1l0,0v0.4h6C123.7,136.9,124.6,137.8,124.6,138.9L124.6,138.9z"/>
	<path class="st15" d="M119,99.5H93.4V99H81.7v0.5H56c-1,0-1.7,0.8-1.7,1.7v35.1c0,1,0.8,1.7,1.7,1.7h63c1,0,1.7-0.8,1.7-1.7v-35.1
		C120.8,100.3,120,99.5,119,99.5z"/>
	<circle class="st19" cx="87.6" cy="111.8" r="3.9"/>
	<circle class="st17" cx="86.3" cy="113.2" r="3.9"/>
	<rect x="39.5" y="140.8" class="st15" width="227.9" height="0.5"/>
	<rect x="121.7" y="192.3" class="st21" width="63.3" height="63.3"/>
	<rect x="198.3" y="193" class="st22" width="63.3" height="63.3"/>
	
		<linearGradient id="SVGID_2_" gradientUnits="userSpaceOnUse" x1="3.9335" y1="183.3396" x2="4.0593" y2="174.3803" gradientTransform="matrix(1 0 0 -1 0 182)">
		<stop  offset="0" style="stop-color:#FEC930"/>
		<stop  offset="1" style="stop-color:#F37336"/>
	</linearGradient>
	<path class="st23" d="M-0.3,7.8V-1h8.6C5.1,1.6,2.3,4.6-0.3,7.8z"/>
	
		<linearGradient id="SVGID_3_" gradientUnits="userSpaceOnUse" x1="148.9839" y1="189.6849" x2="151.6318" y2="1.0207" gradientTransform="matrix(1 0 0 -1 0 182)">
		<stop  offset="0" style="stop-color:#FEC930"/>
		<stop  offset="1" style="stop-color:#F37336"/>
	</linearGradient>
	<path class="st24" d="M261.7-1c15.8,0,28.7,12.8,28.7,28.7c0,15.8-12.8,28.7-28.7,28.7c-15.8,0-28.7-12.8-28.7-28.7
		C233,11.8,245.8-1,261.7-1H92.4c14.2,12,23.3,29.9,23.3,50c0,36.1-29.2,65.3-65.3,65.3c-20.4,0-38.7-9.4-50.7-24.1v90.1H301V-1
		H261.7z M226,179c-23.4,0-42.3-19-42.3-42.3s19-42.3,42.3-42.3s42.3,19,42.3,42.3S249.4,179,226,179z"/>
	<line class="st25" x1="92.4" y1="-1" x2="8.3" y2="-1"/>
</g>
<g id="Tuesday" class="st0">
	<rect x="-1.7" y="-0.3" class="st26" width="302" height="180"/>
	<path class="st17" d="M100.1,112.1l-0.4-0.2c3-4.6,2.2-10.8-1.9-14.5c-0.2-0.2-0.3-0.3-0.5-0.5c-0.5-0.4-1-0.9-1.4-1.4
		c-0.5-0.7-0.9-1.8-0.5-2.7l0.4,0.2c-0.4,0.8,0,1.7,0.4,2.3c0.4,0.5,0.8,0.9,1.3,1.3c0.2,0.2,0.4,0.3,0.5,0.5
		C102.4,100.9,103.2,107.3,100.1,112.1z"/>
	<path class="st17" d="M236.2,163.1l-0.4-0.2c3-4.6,2.2-10.8-1.9-14.5c-0.2-0.2-0.4-0.3-0.5-0.5c-0.5-0.4-1-0.9-1.4-1.4
		c-0.5-0.7-0.9-1.8-0.5-2.7l0.4,0.2c-0.4,0.8,0,1.7,0.4,2.3c0.4,0.5,0.8,0.9,1.3,1.3c0.2,0.2,0.4,0.3,0.5,0.5
		C238.5,151.9,239.3,158.2,236.2,163.1L236.2,163.1z"/>
	<path class="st27" d="M157.8,150.8c-4.3-9.7-15-14.9-25.3-12.3c-0.4,0.1-0.9,0.2-1.3,0.4c-1.2,0.3-2.4,0.7-3.7,0.8
		c-1.6,0.1-3.6-0.4-4.6-2l0.4-0.2c0.9,1.4,2.8,1.9,4.2,1.8c1.2-0.1,2.4-0.4,3.6-0.7c0.4-0.1,0.9-0.3,1.3-0.4
		c10.5-2.7,21.4,2.6,25.8,12.5L157.8,150.8z"/>
	<path class="st27" d="M158.2,70l-0.4-0.1c1.9-10.4-4-20.8-14-24.4c-0.4-0.2-0.9-0.3-1.3-0.4c-1.2-0.4-2.4-0.8-3.5-1.4
		c-1.3-0.8-2.7-2.4-2.7-4.3h0.4c-0.1,1.7,1.2,3.1,2.5,3.9c1,0.6,2.2,1,3.4,1.4c0.4,0.1,0.9,0.3,1.3,0.4
		C154.1,48.9,160.2,59.4,158.2,70z"/>
	<path class="st17" d="M105,89.1c-1.8,3.3-5.2,4.8-8,3.7h-0.1V93l0,0c-0.1,0.3-0.4,0.5-0.7,0.4c-0.1,0-0.1,0-0.2-0.1l-0.7-0.5
		c-0.3-0.2-0.4-0.7-0.2-1l0,0l0,0l0.1-0.2l0,0c-2.1-2.2-2.5-6.1-0.7-9.3c2-3.7,5.9-5.1,8.8-3.2C106.3,80.9,107,85.5,105,89.1z"/>
	<ellipse transform="matrix(0.8633 -0.5047 0.5047 0.8633 -27.0773 60.4646)" class="st28" cx="98.1" cy="80.2" rx="1.8" ry="0.7"/>
	<path class="st27" d="M96.9,92.9L96.9,92.9l-1.8-1.2l0.1-0.2l1.8,1.2h-0.1V92.9z"/>
	<ellipse class="st17" cx="148.7" cy="162.9" rx="95" ry="6"/>
	<polygon class="st29" points="209.5,151.4 209.7,155.8 214.6,155.4 214.1,150.9 	"/>
	<polygon class="st29" points="190.5,146.2 190.8,150.7 195.7,150.2 195.2,145.8 	"/>
	<path class="st18" d="M212.8,91L195,94l-1.2,32.2l-4.7,20.6l7.5,3.3l7.2-20.3l2.6-18l1.9,18l0.2,22.7l11.4-0.7l-2.7-44.4
		C217,101.6,215.5,96.1,212.8,91L212.8,91z"/>
	<path class="st18" d="M210.2,154.2c0,0-1.6-1.9-1.6-1.2s-0.9,7.5-0.9,7.5s6.3,1.9,6.3,3s9.1,3,8.9,0.7c-0.2-2.3-8.2-11.2-8.2-11.2
		S211.3,152.6,210.2,154.2z"/>
	<path class="st18" d="M191.5,149.1c0,0-0.5-2.4-0.8-1.8c-0.3,0.6-4.5,6-4.5,6s4.6,4.7,4,5.8c-0.6,1,6.4,7.1,7.4,5
		s-1.6-13.8-1.6-13.8S193.3,148.2,191.5,149.1z"/>
	<polygon class="st18" points="191.2,65.2 204.1,66.5 208.4,54.7 196,51.7 	"/>
	<circle class="st29" cx="201.8" cy="56.3" r="6.5"/>
	<path class="st29" d="M198,60.3c0,0,0,4.4-3.5,6.3s8.4,4,8.4,4l1.2-4c0,0-3.5-1.6-0.5-5.4L198,60.3z"/>
	<path class="st27" d="M203.6,65.4c0,0-4.3,2.7-7.9,0.3l-1.5-0.3l-4.4,0.9l-2.1,7.9l7.9,19.9c0,0,13.8,2.3,16.6-2.8l-1.6-21
		l-4.4-5.4L203.6,65.4z"/>
	<polygon class="st27" points="205.7,65.6 213.4,54.9 212.7,53.7 202.7,48.6 202.7,45.3 218.3,49.5 219.4,51.2 210.2,71.2 	"/>
	<polygon class="st27" points="190.3,66.6 189.8,66.3 178.1,65.9 187,58.2 184.2,54.6 170.9,64.7 170.9,67 189.8,75 	"/>
	<path class="st29" d="M184.1,55.7l1.6-0.9c0,0,3.5-4.7,4.9-2.8s-3.3,5.4-3.3,5.4l-2.6,0.9L184.1,55.7z"/>
	<path class="st29" d="M203.4,46l-2.6-1.4c0,0-7.7,0.7-6.8,2.3s6.3,0.2,6.3,0.2l3,0.9L203.4,46z"/>
	<path class="st18" d="M196.7,50c0,0-3,1-3.2,5c0,0.6,0.1,1.3,0.2,1.9c0.2,0.7,0.3,2.3-1,4.3c-0.9,1.3-1.7,2.7-2.4,4.1l0,0l3.3,0.4
		l0.7-5.5c0.3-2.7,1.1-5.2,2.2-7.7v-0.1c0,0,1.4,2.7,4.3,2.7l-1-1c0,0,4.5,1.9,6.2,1.9c0,0,1.2,0.8,0,2.1c-1.2,1.2-3.7,4.1-2.3,6.4
		s0.2,2.9,0.2,2.9l2.3-1.2l1-0.6v0.8l5.4-0.6c0,0,1.4-0.2-1.6-3.7c0,0-0.8-1.4-0.5-2.5c0.3-0.9,0.4-1.8,0.2-2.8
		C210,52.8,207.3,45.1,196.7,50z"/>
	<path class="st17" d="M159.5,156.9c0,0-0.6-1-0.8-3.1c-0.2-1.9-0.1-5.1,1.6-9.6c3.2-8.5-0.7-15.4-0.8-15.5l0.2-0.1
		c0.8,1.4,1.3,3,1.6,4.6c0.8,3.7,0.5,7.6-0.8,11.1c-3.2,8.5-0.8,12.5-0.8,12.6H159.5z"/>
	<circle class="st17" cx="158.2" cy="126.8" r="1.4"/>
	<circle class="st17" cx="162.8" cy="132.1" r="1.4"/>
	<circle class="st17" cx="159.7" cy="135.6" r="1.4"/>
	<circle class="st17" cx="163.5" cy="138.6" r="1.4"/>
	<circle class="st17" cx="158.6" cy="143.3" r="1.4"/>
	<path class="st17" d="M160.4,157c0,0-1.4-3.6,2.9-6.2L160.4,157z"/>
	<path class="st17" d="M158.6,156.9c0,0-0.7-3.8-5.7-3.8L158.6,156.9z"/>
	<path class="st20" d="M73.2,117.6l1.3,9.6c0,0-4,11.9,0.2,23.4l1.5,8.3h5.5l0.6-2.8c0,0-2.5-2.1-2.5-7l2.1-21.9l0.4-11.3
		L73.2,117.6z"/>
	<path class="st18" d="M78.1,158c0,0-2.1-1.3-2.3,0c-0.2,1.3-2.8,7.2-0.4,7.2s6.2-1.1,6.2-1.1s2.3-1.7,5.1-1.7c2.8,0,3.4-3.4,3-4.2
		s-1.5-2.1-2.5-1.9c-0.8,0.1-1.6,0.2-2.3,0.2l-3.4-1.7C81.3,154.8,80.8,158.2,78.1,158z"/>
	<path class="st20" d="M86.8,115.7l5.5,7.9c0,0,1.8,12.4,10.9,20.7l5.1,6.7l4.9-2.5l-0.7-2.7c0,0-3.2-0.7-5.5-5.1l-8.1-20.4
		L94.1,110L86.8,115.7z"/>
	<path class="st18" d="M109.6,149.4c0,0-2.5-0.2-2.1,1.1s0.8,7.7,2.9,6.6c2.1-1.1,5-3.8,5-3.8s1.3-2.6,3.8-3.8s1.5-4.6,0.7-5.1
		c-0.8-0.6-2.3-1.2-3.1-0.5c-0.6,0.5-1.3,0.9-2,1.3h-3.7C111,145.1,112.1,148.3,109.6,149.4z"/>
	<circle class="st20" cx="79.7" cy="54.2" r="5.9"/>
	<polygon class="st20" points="75.1,56.8 70.2,63.4 76.2,65.5 78.9,59.4 	"/>
	<path class="st18" d="M83.8,65.8l-0.2-0.2c-1.6-1.5-3.8-2.2-5.9-1.9l0,0c0,0,0.4-2.9-5.7-2.6l-2.8,2.4c0,0-3.9,3.9-2.9,9.9
		c1.1,5.9,1.2,20.9,1.2,20.9l3.2,26.1c0,0,24-1.1,28.5-10.8L85.5,81.1L83.8,65.8z"/>
	<path class="st20" d="M78.3,72.1l2.3,12.7l9.8,16.1c0,0,0,7.6,4,6.8c4-0.8-0.4-7.9-0.4-7.9l-8.7-17.2L83.6,72L78.3,72.1z"/>
	<polygon class="st18" points="77.7,66.8 78.1,74 84.7,73.4 83.6,66.2 	"/>
	<path class="st18" d="M85.9,52.5c0,0,3.5-6.8-4.8-7.2c0,0-4.9-2.9-9.1,3.1l-4.3,6.3l1-0.2l0.1,1l1.3,0.9l1-1L70.9,57l11,5.3
		c0,0-4-4.9-2.1-10.3l0.6,1.4L85.9,52.5z"/>
	<path class="st30" d="M144.3,121.2c-2.5,9.3-10.1,15.5-17.7,15c-0.1,0-0.2,0-0.3,0v0.4l0,0c-0.1,0.9-0.8,1.6-1.8,1.5
		c-0.1,0-0.2,0-0.3-0.1l-2.1-0.5c-0.9-0.2-1.4-1.1-1.2-2c0-0.1,0.1-0.2,0.1-0.3l0,0l0.2-0.5v-0.1c-6.6-3.5-9.9-12.5-7.5-21.6
		c2.7-10.3,11.8-16.8,20.2-14.6C142.4,100.8,147,110.9,144.3,121.2z"/>
	
		<ellipse transform="matrix(0.7044 -0.7098 0.7098 0.7044 -39.0307 117.4497)" class="st28" cx="121.5" cy="105.6" rx="4.8" ry="1.6"/>
	<path class="st27" d="M126.2,136.6C126.2,136.6,126.2,136.7,126.2,136.6l-5.2-1.3l0.2-0.5l5.4,1.4c-0.1,0-0.2,0-0.3,0L126.2,136.6z
		"/>
	<path class="st30" d="M186.8,27.1c7.4,5.1,10.3,13.5,7.3,19.8c0,0.1-0.1,0.2-0.1,0.3l0.3,0.1l0,0c0.8,0.3,1.1,1.2,0.8,1.9
		c0,0.1-0.1,0.2-0.2,0.3l-1.2,1.6c-0.5,0.7-1.6,0.8-2.3,0.3l-0.1-0.1l0,0L191,51l-0.1-0.1c-5.3,4.4-14.3,4.4-21.5-0.6
		c-8.2-5.6-10.9-15.4-6.1-21.8S178.6,21.5,186.8,27.1z"/>
	<ellipse transform="matrix(0.9024 -0.4309 0.4309 0.9024 -1.7075 75.2787)" class="st28" cx="165.3" cy="41.4" rx="1.5" ry="4.4"/>
	<path class="st27" d="M194.3,47.3L194.3,47.3l-2.9,4L191,51l3.1-4.1c0,0.1-0.1,0.2-0.1,0.3L194.3,47.3z"/>
	<path class="st30" d="M141.1,16.1c4.4,7.7,3.4,16.6-2,21c-0.1,0.1-0.2,0.1-0.2,0.2l0.3,0.3l0,0c0.5,0.6,0.5,1.5-0.1,2.1
		c-0.1,0.1-0.2,0.2-0.3,0.2l-1.7,0.9c-0.8,0.4-1.8,0.1-2.2-0.7c0,0,0-0.1-0.1-0.2l0,0l-0.2-0.4v-0.1c-6.7,1.7-14.8-2.3-19.1-9.8
		c-4.9-8.6-3.2-18.5,3.9-22.2C126.5,3.6,136.2,7.6,141.1,16.1z"/>
	
		<ellipse transform="matrix(1.785113e-03 -1 1 1.785113e-03 95.8315 135.2683)" class="st28" cx="115.7" cy="19.6" rx="4.4" ry="1.5"/>
	<path class="st27" d="M139.1,37.6C139.2,37.6,139.2,37.6,139.1,37.6l-4.4,2.3l-0.2-0.4l4.5-2.4c-0.1,0.1-0.2,0.1-0.2,0.2
		L139.1,37.6z"/>
	<path class="st17" d="M241.5,140.5c-1.8,3.3-5.1,4.7-7.8,3.6h-0.1v0.2l0,0c-0.1,0.3-0.4,0.5-0.7,0.4c-0.1,0-0.1,0-0.2-0.1l-0.7-0.5
		c-0.3-0.2-0.4-0.7-0.2-1l0,0l0,0l0.1-0.2l0,0c-2.1-2.1-2.4-6-0.7-9.1c2-3.6,5.9-5,8.7-3.1C242.8,132.5,243.5,136.9,241.5,140.5z"/>
	
		<ellipse transform="matrix(0.8633 -0.5047 0.5047 0.8633 -34.449 136.4728)" class="st28" cx="234.7" cy="131.8" rx="1.8" ry="0.6"/>
	<path class="st27" d="M233.5,144.2C233.5,144.3,233.5,144.3,233.5,144.2l-1.8-1.1l0.1-0.2l1.8,1.2h-0.1V144.2z"/>
	
		<linearGradient id="SVGID_4_" gradientUnits="userSpaceOnUse" x1="148.7941" y1="191.7284" x2="150.1274" y2="4.395" gradientTransform="matrix(1 0 0 -1 0 182)">
		<stop  offset="0" style="stop-color:#F26869"/>
		<stop  offset="0.1404" style="stop-color:#F1646C"/>
		<stop  offset="0.3728" style="stop-color:#F05974"/>
		<stop  offset="0.6681" style="stop-color:#EE437F"/>
		<stop  offset="1" style="stop-color:#EB0D8C"/>
	</linearGradient>
	<path class="st31" d="M300.3-0.3v180H147.7c1.7-6.5,2.6-13.3,2.6-20.3c0-44.4-36-80.3-80.3-80.3c-31.3,0-58.4,17.9-71.7,44V-0.3
		h182.8c-4.7,7.1-7.4,15.5-7.4,24.7c0,24.7,20,44.7,44.7,44.7C243,69,263,49,263,24.3c0-9.1-2.7-17.6-7.4-24.7h44.7V-0.3z"/>
	<rect x="79.7" y="211" class="st32" width="42" height="42"/>
	<rect x="133.7" y="210.3" class="st33" width="42.7" height="42.7"/>
	<path class="st34" d="M227.8,236.1c14.4,15.4,15.1,38.1,15.1,38.1s-22.6-2.3-36.9-17.8s-15.1-38.1-15.1-38.1
		S213.4,220.7,227.8,236.1z"/>
	<path class="st35" d="M269,261.2c-15.4,14.4-38.1,15.1-38.1,15.1s2.3-22.6,17.8-36.9s38.1-15.1,38.1-15.1S284.5,246.8,269,261.2z"
		/>
</g>
<g id="Wednesday_lunch">
	<rect x="-1.7" y="-1" class="st36" width="302" height="182.7"/>
	<path class="st37" d="M105.4,134.8c0,3.4-2,4.7-4.5,4.7c-0.1,0-0.1,0-0.2,0s-0.2,0-0.3,0c-2.3-0.1-4.1-1.4-4.1-4.6
		c0-3.3,4.2-7.5,4.5-7.8l0,0l0,0C100.8,127.1,105.4,131.3,105.4,134.8z"/>
	<path class="st37" d="M177.5,134.6c0,3.4-2,4.7-4.5,4.7c-0.1,0-0.1,0-0.2,0c-0.1,0-0.2,0-0.3,0c-2.3-0.1-4.1-1.4-4.1-4.6
		c0-3.3,4.2-7.5,4.5-7.8l0,0l0,0C172.9,126.9,177.5,131.1,177.5,134.6z"/>
	<rect x="72.6" y="139" class="st4" width="164" height="0.4"/>
	<circle class="st38" cx="106" cy="42.4" r="32.1"/>
	<path class="st4" d="M145,110.4L145,110.4c16,0,29,13,29,29l0,0l0,0l0,0h-45.4l0,0v-12.6C128.6,117.7,136,110.4,145,110.4
		L145,110.4z"/>
	<path class="st8" d="M208,72.1c0,0,1.3,17.2-0.5,17.7c-1.9,0.5-8.5,4.5-19,3.4c0,0-10.3,5.6-8.7,0.3c1.6-5.3,8.7-4,8.7-4
		s12.7-2.6,13.2-4.5s-1.6-9.5-0.8-9.8C201.7,75.1,208,72.1,208,72.1z"/>
	<path class="st9" d="M192.2,102.1c0,0,1,24.8,2.6,28.5c1.3,3.1,2.1,13.1,2.3,16.4c0,0.7,0.1,1,0.1,1s4.2,0,4.5-1.1s1.1-12.7,0-16.4
		s1.3-29.3,1.3-29.3L192.2,102.1z"/>
	<path class="st9" d="M198.2,146.8c0,0-2.6,0.8-3.2,1.9c-0.5,1.1-9.3,2.9-6.6,4.2s10.6-1.1,10.6-1.1s4.2-0.3,4-1.9s-1.2-3.5-1.2-3.5
		L198.2,146.8z"/>
	<path class="st9" d="M205.6,149.6c0,0-2.6,0.8-3.2,1.9c-0.5,1.1-9.3,2.9-6.6,4.2c2.6,1.3,10.6-1.1,10.6-1.1s4.2-0.3,4-1.9
		c-0.3-1.6-1.2-3.5-1.2-3.5L205.6,149.6z"/>
	<path class="st9" d="M194.5,101.5l3.7,6.3l6.2,22.1c0,0-0.6,20.2,0.2,20.2s5,1.3,5.3,0c0.2-1.1,3.2-11.8,1.7-18.9
		c-1-4.5-1.6-9.1-1.8-13.7l-0.7-12.4c0,0,2.6-4.8-0.3-5.6C205.9,98.9,194.5,101.5,194.5,101.5z"/>
	<circle class="st8" cx="198" cy="54.4" r="6.3"/>
	<path class="st8" d="M197.2,58.7c0,0,1.1,8.5,0.8,9s6.3-5.8,6.3-5.8s-2.4-3.7-1.9-5.6L197.2,58.7z"/>
	<path class="st7" d="M212,67.1c0,0-7.4-5.3-7.7-6.3l-5.6,4.8l-0.9-1.1c0,0-4.3,4.3-4.3,6.1s-0.3,7.4,0.5,9s-2.4,21.7-2.4,21.7
		s2.6,2.4,2.9,2.6c0.3,0.3,10.8-1.6,10.8-1.6s5.3-0.5,5.3-1.3s-1.6-12.7-1.1-15.9S212,67.1,212,67.1z"/>
	<path class="st8" d="M213.6,74.5c0,0,1.3,17.2-0.5,17.7c-1.9,0.5-8.5,4.5-19,3.4c0,0-10.3,5.6-8.7,0.3s8.7-4,8.7-4
		s12.7-2.6,13.2-4.5s-1.6-9.5-0.8-9.8C207.2,77.4,213.6,74.5,213.6,74.5z"/>
	<path class="st9" d="M195.3,51.3c0.9-0.3,1.8-0.5,2.7-0.2c1.3,0.4,2.1,1.5,3.1,2.4c0.9,0.9,2.2,1.7,3.5,1.3
		c-0.1-0.5,0.1-1.1,0.4-1.5c0.2-0.2,0.3-0.4,0.3-0.6c0.1-0.3-0.2-0.6-0.3-1c-0.2-0.6,0.3-1.4-0.2-1.7c-0.1-0.1-0.3-0.1-0.4-0.2
		c-0.5-0.4,0.1-1.2-0.3-1.8c-0.1-0.1-0.2-0.2-0.4-0.3c-2.5-1.4-5.5-1.4-8.3-1.4c-0.4,0-0.9,0.2-0.8,0.6c-0.5-0.4-1.2,0.2-1.7,0.7
		l-0.9,1c-0.4,0.4-0.8,0.9-1.1,1.5c-0.3,0.5-0.3,1.3,0.2,1.5c-0.4-0.2-0.9,2.2,1,1.8C193,53.1,194.1,51.7,195.3,51.3z"/>
	<path class="st7" d="M207.8,67.7l4.2-0.5c0,0,4.2,8.2,1.9,9.5c-2.4,1.3-8.5,2.4-8.5,1.9C205.4,78,207.8,67.7,207.8,67.7z"/>
	<path class="st39" d="M149.8,69.4c0,0,1.3,4.1,0.5,5.4s1.3,4,4.5,2.7s3.4-2.7,3.4-2.7s-1.3-2-1.6-6.1L149.8,69.4z"/>
	<path class="st39" d="M133.3,110.1c0,0-6.5,3.2-3.6,7.6c1.7,2.5,4.9,7.4,7.3,11.1c2,3.1,3.5,6.4,4.5,9.9l0.5,1.6l1.8,2.2l3.8-4.3
		c0,0-5.6-10.3-5.6-12.3s-4.5-8.3-4.5-8.3l4.5-2.9C141.9,114.6,136.9,108.8,133.3,110.1z"/>
	<path class="st39" d="M154.4,121.3c0,0,0.2,5,0.4,7c0.1,1.6-1.3,6.2-0.8,11.3c0.3,3.3,0.3,6.6-0.1,9.9l-0.7,6.5l5.4,0.5l1.8-14.8
		c0,0,1.1-10.5,0.5-13.9l0.2-7.2C161,120.7,157.1,119.3,154.4,121.3z"/>
	<path class="st9" d="M144.7,100.3c0,0-12.6,8.1-12.8,10.6c0,0,7.2-0.7,7.4,5.6c0,0,4.3-1.6,5.4-2c1.1-0.4,6.9-4.1,6.9-4.1
		s2.3,1.8,2.3,4.7s-0.2,7.9,0,8.3s4.3-4.9,7.8-0.4l2.3-12.4c0,0,0.7-7.6-0.7-8.1l-10.1-3.8L144.7,100.3z"/>
	<circle class="st39" cx="152.4" cy="66.3" r="5.4"/>
	<path class="st3" d="M151,75.8c0,0,6.1,1.6,6.9-1.4c0,0,7.5,1.4,8.8,6.3s-3.1,16.6-3.1,16.9s3.6,2.5,2,3.6s-3.1-0.2-2.3,1.3
		c0.7,1.4,2,1.8,0.9,2.2c-1.1,0.4-7.6-5.2-12.6-3.8c-5,1.4-7.6,0.4-7.6,0.4l-2.3-19.6c-0.2-1.5,0.4-3,1.6-4c1.1-0.9,2.6-1.9,4.1-2.2
		c2.9-0.5,3-0.8,3-0.8L151,75.8z"/>
	<path class="st39" d="M145.3,107.3c0,0,1.6,9.2,3.8,7.9s-0.5-7.9-0.5-7.9H145.3z"/>
	<path class="st39" d="M152.8,108.5c0,0-2.8,8.9-0.3,8.8s3.2-7.3,3.2-7.3L152.8,108.5z"/>
	<path class="st9" d="M142.8,139.9c0,0-1.3-1.4-2,0.5s-2.7,4.5-2.7,4.5s-4.3,4.9-1.3,5c3.1,0.2,7.4-4.3,7.4-4.3l5-4.7
		c0,0-1.7-4.1-2.5-4.1C146.1,136.8,146.3,141.7,142.8,139.9z"/>
	<path class="st9" d="M154.5,154.8c0,0-1.3,0.4-1.2-1.2c0,0-4.6,2.4-3.3,4.2s2.7,3.6,2.7,3.6s6.7,3.8,7.2,2.9
		c0.5-0.9,0.5-2.7,0.2-3.4c-0.4-0.7-2.2-2-1.6-3.1c0.5-1.1-0.2-4-1.1-4S154.5,154.8,154.5,154.8z"/>
	<path class="st9" d="M147.7,61.7c0,0,1.7-3.8,5.1-2.9c3.3,0.9,5.2,2.2,5.4,3.5c0.1,1.3-0.1,3.3-0.1,3.3s-0.4-2.7-2.7-2.1
		c-2.3,0.6-5.9,0.1-5.9,0.1l-0.6,5.2c0,0-0.7-0.9-1.4-0.4C146.7,69,145.3,62.9,147.7,61.7z"/>
	<path class="st3" d="M163.7,80.4c0,0-4.3,11.7-4,13.2c0.4,1.4,0,1.6-0.5,2s-2,4.1-2,4.1s-0.9,2.2-1.6,2.7s-0.7,2-0.7,2
		s-1.8,1.8-1.4,2.2s0.4,0.9-0.4,1.4c-0.7,0.5-1.4,1.3-1.1,1.4c0.4,0.2,2.9,2.2,3.6,2c0.7-0.2-0.4-0.9,0.5-1.3s1.4-0.9,1.1-1.1
		s-1.4-0.2-0.4-0.5c1.1-0.4,4.9-2.7,6.1-5.6c1.3-2.9,7.3-20.3,3.7-22.8C166.6,80.2,165.1,78.3,163.7,80.4z"/>
	<path class="st3" d="M143.6,78.5L143.6,78.5c-1.5,0.6-2.5,1.8-2.8,3.3c-0.4,1.9-0.8,4.6-0.5,7.2c0.5,4.5,0.9,6.5,1.6,7.9
		s0.9,0.9,0.7,2s-1.1,0.2-0.2,1.6s1.4,1.1,1.1,1.8c-0.4,0.7-0.9,0.7-0.2,1.6s0.7,1.3,0.9,1.6c0.2,0.4,0.7,3.1,0.7,3.1
		s2.9-0.9,4.5-0.5c0,0-1.4-2.5-1.1-3.1c0.4-0.5,0.9-0.7,0.4-1.3c-0.5-0.5-1.4-0.4-0.5-0.9s-0.7-6.1-0.7-6.1L143.6,78.5z"/>
	<polygon class="st4" points="109.1,139 102.5,139 105.5,37.5 	"/>
	<polygon class="st4" points="106.1,56.8 113.2,47 106,59.2 105.2,57.8 	"/>
	<polygon class="st4" points="105.3,66.6 98.3,56.9 105.4,69 106.2,67.7 	"/>
	<rect x="106" y="87" transform="matrix(0.866 -0.5 0.5 0.866 -29.5299 65.7018)" class="st4" width="3.7" height="1.9"/>
	
		<linearGradient id="SVGID_5_" gradientUnits="userSpaceOnUse" x1="149.25" y1="189.6668" x2="149.25" y2="0.9967" gradientTransform="matrix(1 0 0 -1 0 182)">
		<stop  offset="0" style="stop-color:#DCE35D"/>
		<stop  offset="1" style="stop-color:#45B649"/>
	</linearGradient>
	<path class="st40" d="M300.3-1V99c-27.6,9.7-47.3,36-47.3,67c0,5.4,0.6,10.6,1.7,15.7H70.8c6.8-9.5,10.8-21.1,10.8-33.7
		c0-31.9-25.8-57.7-57.7-57.7c-9.2,0-17.9,2.2-25.7,6V-1h86.3c-9.3,9.8-14.9,23.1-14.9,37.7c0,30.4,24.6,55,55,55s55-24.6,55-55
		c0-14.6-5.7-27.8-14.9-37.7C164.7-1,300.3-1,300.3-1z"/>
	<rect x="-68.3" y="189.7" class="st36" width="37.3" height="50"/>
	<rect x="-20.3" y="192.3" class="st41" width="36.7" height="48"/>
</g>
<g id="Wednesday_night" class="st0">
	<rect x="-0.5" y="-1" class="st42" width="301.5" height="181.7"/>
	<path class="st43" d="M95.2,153.2H39.6c0,0-1.1-16.5,5.5-16.7s5.9,7.3,14.3-3s18.5-9.8,19.8-3.7s-2.5,11,4.5,9.5
		C90.8,137.8,100.9,141.7,95.2,153.2z"/>
	<path class="st44" d="M66.4,153.2h-0.2c0.4-10.9,2.7-17.9,4.6-21.8c2-4.3,3.9-6,3.9-6l0.1,0.1c0,0-1.9,1.7-3.9,6
		C69.1,135.4,66.9,142.3,66.4,153.2z"/>
	<path class="st44" d="M86.6,153.2l-0.2-0.1c2.2-7.5,7.3-12.2,7.3-12.2l0.1,0.1C93.8,141.1,88.7,145.8,86.6,153.2z"/>
	<path class="st44" d="M48.3,153.2h-0.2c0.7-5.3-0.6-9.4-1.8-12c-1.4-2.7-2.9-4.2-2.9-4.2l0.1-0.1c0,0,1.6,1.5,2.9,4.3
		C47.7,143.7,49.1,147.8,48.3,153.2z"/>
	<path class="st45" d="M102.7,153.4H33.6v-0.2c0-0.6-0.9-14.3,3.5-19.2c1-1.1,2.2-1.7,3.6-1.7c2.9-0.1,4.7,1,6.2,1.9
		c2.8,1.6,4.6,2.7,11.3-5.5c7.2-8.9,15-10.8,19.5-9.8c2.9,0.7,4.9,2.6,5.5,5.4c0.6,2.6,0.4,5,0.2,6.9c-0.2,2.1-0.3,3.7,0.6,4.5
		c0.7,0.6,2.1,0.7,4.5,0.2c4.7-1,11.4-0.1,14.7,4.2c1.8,2.3,3.2,6.5-0.2,13.4L102.7,153.4z M34,152.9h68.4c2.6-5.2,2.6-9.6,0.2-12.7
		c-3.1-3.9-9.5-5-14.2-4c-2.5,0.5-4,0.5-4.9-0.3c-1-0.9-0.9-2.7-0.8-4.9c0.1-1.9,0.3-4.3-0.2-6.8s-2.4-4.3-5.1-5
		c-4.3-1-11.9,0.9-19,9.6c-6.9,8.6-9,7.3-11.9,5.6c-1.5-0.9-3.2-1.9-5.9-1.8c-1.2,0-2.3,0.6-3.2,1.5C33.4,138.7,33.9,151.1,34,152.9
		z"/>
	<path class="st44" d="M171.1,118l-20.1-3.5c3.6-7.5,5.2-14.8,3.8-22.1l20.1,3.5C171.8,102.8,170.5,110.4,171.1,118z"/>
	
		<rect x="163.9" y="93.1" transform="matrix(0.1713 -0.9852 0.9852 0.1713 39.079 243.263)" class="st15" width="0.5" height="10.6"/>
	
		<rect x="163.5" y="95" transform="matrix(0.1713 -0.9852 0.9852 0.1713 36.9034 244.4695)" class="st15" width="0.5" height="10.6"/>
	
		<rect x="163.2" y="97" transform="matrix(0.1713 -0.9852 0.9852 0.1713 34.6803 245.8511)" class="st15" width="0.5" height="10.6"/>
	
		<rect x="162.9" y="98.9" transform="matrix(0.1713 -0.9852 0.9852 0.1713 32.506 247.0586)" class="st15" width="0.5" height="10.6"/>
	
		<rect x="162.6" y="100.8" transform="matrix(0.1713 -0.9852 0.9852 0.1713 30.3954 248.3764)" class="st15" width="0.5" height="10.6"/>
	
		<rect x="162.2" y="102.8" transform="matrix(0.1713 -0.9852 0.9852 0.1713 28.1086 249.6477)" class="st15" width="0.5" height="10.6"/>
	
		<rect x="161.8" y="104.7" transform="matrix(0.1713 -0.9852 0.9852 0.1713 25.9331 250.8543)" class="st15" width="0.5" height="10.6"/>
	
		<rect x="161.5" y="106.7" transform="matrix(0.1713 -0.9852 0.9852 0.1713 23.7112 252.2369)" class="st15" width="0.5" height="10.6"/>
	<path class="st44" d="M180.1,125.1l-20.1-3.5c3.6-7.5,5.2-14.8,3.8-22.1l20.1,3.5C180.8,109.9,179.5,117.5,180.1,125.1z"/>
	
		<rect x="172.9" y="100.2" transform="matrix(0.1713 -0.9852 0.9852 0.1713 39.5707 257.9595)" class="st15" width="0.5" height="10.6"/>
	
		<rect x="172.5" y="102.2" transform="matrix(0.1713 -0.9852 0.9852 0.1713 37.2841 259.2308)" class="st15" width="0.5" height="10.6"/>
	
		<rect x="172.2" y="104.1" transform="matrix(0.1713 -0.9852 0.9852 0.1713 35.1719 260.5475)" class="st15" width="0.5" height="10.6"/>
	
		<rect x="171.8" y="106" transform="matrix(0.1713 -0.9852 0.9852 0.1713 32.9979 261.755)" class="st15" width="0.5" height="10.6"/>
	
		<rect x="171.6" y="108" transform="matrix(0.1713 -0.9852 0.9852 0.1713 30.7758 263.1377)" class="st15" width="0.5" height="10.6"/>
	
		<rect x="171.2" y="109.9" transform="matrix(0.1713 -0.9852 0.9852 0.1713 28.6004 264.3442)" class="st15" width="0.5" height="10.6"/>
	
		<rect x="170.8" y="111.9" transform="matrix(0.1713 -0.9852 0.9852 0.1713 26.3137 265.6155)" class="st15" width="0.5" height="10.6"/>
	
		<rect x="170.5" y="113.8" transform="matrix(0.1713 -0.9852 0.9852 0.1713 24.203 266.9333)" class="st15" width="0.5" height="10.6"/>
	<path class="st15" d="M185.6,153.1h-35.9v-0.2l-1.7-49h39.3L185.6,153.1z M150.1,152.7h35.1l1.7-48.4h-38.5L150.1,152.7z"/>
	<polygon class="st15" points="183.6,150.5 151.6,150.5 150.1,106.6 185.1,106.6 	"/>
	<g class="st46">
		<rect x="155.5" y="113" class="st47" width="2.7" height="33.8"/>
		<rect x="166.2" y="113" class="st47" width="2.7" height="33.8"/>
		<rect x="177" y="113" class="st47" width="2.7" height="33.8"/>
	</g>
	
		<rect x="185.3" y="75.5" transform="matrix(0.5344 -0.8452 0.8452 0.5344 1.796 206.8528)" class="st15" width="6.8" height="52.6"/>
	<path class="st15" d="M195,91.7c-3.7-2.4-8.7-1.3-11.1,2.5c-1,1.6-1.4,3.6-1.2,5.4l2.1,1.3c-1.4-3.2,0.1-6.9,3.3-8.3
		s6.9,0.1,8.3,3.3c1.4,3.2-0.1,6.9-3.3,8.3c-0.7,0.3-1.5,0.5-2.3,0.5l2.1,1.3c4.2-1.3,6.6-5.8,5.3-10
		C197.8,94.3,196.6,92.7,195,91.7L195,91.7z"/>
	<rect x="31.3" y="152.9" class="st15" width="189.5" height="0.4"/>
	<path class="st16" d="M131.3,82c0,0,8.1,6,4.8,7.1s-7.5-3.5-7.3-4.8S131.3,82,131.3,82z"/>
	<polygon class="st27" points="124.3,74.3 132.6,82 129.3,85.5 123.6,81.3 	"/>
	<path class="st43" d="M142.9,105.9l-17.2-11c6.2-5.5,10.6-11.6,12.1-18.9L155,87C149.5,92.2,145.3,98.7,142.9,105.9z"/>
	
		<rect x="143.9" y="79.9" transform="matrix(0.5402 -0.8415 0.8415 0.5402 -5.3945 160.4393)" class="st15" width="0.5" height="10.6"/>
	
		<rect x="142.8" y="81.6" transform="matrix(0.5402 -0.8415 0.8415 0.5402 -7.3157 160.3444)" class="st15" width="0.5" height="10.6"/>
	
		<rect x="141.7" y="83.2" transform="matrix(0.5402 -0.8415 0.8415 0.5402 -9.23 160.1539)" class="st15" width="0.5" height="10.6"/>
	
		<rect x="140.7" y="84.9" transform="matrix(0.5402 -0.8415 0.8415 0.5402 -11.0556 160.0659)" class="st15" width="0.5" height="10.6"/>
	
		<rect x="139.6" y="86.5" transform="matrix(0.5402 -0.8415 0.8415 0.5402 -12.97 159.8754)" class="st15" width="0.5" height="10.6"/>
	
		<rect x="138.5" y="88.2" transform="matrix(0.5402 -0.8415 0.8415 0.5402 -14.8912 159.7806)" class="st15" width="0.5" height="10.6"/>
	
		<rect x="137.4" y="89.8" transform="matrix(0.5402 -0.8415 0.8415 0.5402 -16.71 159.5969)" class="st15" width="0.5" height="10.6"/>
	
		<rect x="136.4" y="91.5" transform="matrix(0.5402 -0.8415 0.8415 0.5402 -18.6311 159.502)" class="st15" width="0.5" height="10.6"/>
	<polygon class="st16" points="94.5,132.4 91.3,139.1 100.2,141.2 99.9,134.8 	"/>
	<polygon class="st16" points="126.1,141.4 127.2,148.7 135.7,145.6 132,140.4 	"/>
	<path class="st18" d="M107.2,72.7c0,0-1.3,8.4-1,12.4s-1,20.8-1,20.8s-6.3,6.8-7.7,14.6c-0.9,4.9-2.4,9.7-4.5,14.3l7.4,2.4
		l14.7-27.8c0,0,10.5-23,9.5-25.2s-2.7-11-2.7-11L107.2,72.7z"/>
	<path class="st18" d="M93.2,137.3c0,0,0-3.8-1.3-2.1c-1.3,1.6-5.7,4.8-3.1,6.9s17.4,14.1,18.2,10.6c0.4-1.9-7-14.9-7-14.9
		s-2.5,0.2-2.7,0.8C97.2,139.2,93.2,137.3,93.2,137.3z"/>
	<polygon class="st16" points="119.7,38.6 114,45.1 119.7,50.9 124.9,43 	"/>
	<path class="st16" d="M129.3,39c0,3.1-2.5,5.6-5.6,5.6s-5.6-2.5-5.6-5.6s2.5-5.6,5.6-5.6c2.7,0,5,1.9,5.5,4.6
		C129.2,38.3,129.3,38.7,129.3,39z"/>
	<path class="st18" d="M119.9,34.8c2-0.9,4.3-0.8,6.3-0.2c1.2,0.4,2.3,0.9,3.1,1.8c0.8,0.9,1.2,2.2,0.8,3.4l-1.7-1.3l-0.2,1.1
		c-1.1-1.8-3.3-2.5-5.2-3.2c-0.6-0.2-1.4-0.3-1.8,0.2c-0.2,0.2-0.2,0.5-0.3,0.8c-0.3,0.4-0.9,0.4-1.4,0.6c-0.4,0.2-0.7,0.7-0.9,1.1
		c-0.2,0.4-0.1,1-0.5,1.3c-1.7,0.9-0.7-2.7-0.4-3.3C118.2,35.8,118.7,35.3,119.9,34.8z"/>
	<path class="st18" d="M103.7,84.6c0,0,3.5,7.7,6,10.8c2.5,3.1,10.6,17.9,10.6,17.9s-1.5,9.2,1.7,16.5c1.9,4.6,3.3,9.4,4.2,14.4
		l7.5-2.1l-3.1-31.3c0,0-4-25-6-26.3c-2.1-1.3-8.3-7.7-8.3-7.7L103.7,84.6z"/>
	<path class="st27" d="M121.1,50.5c0,0-3.5-9.4-8.3-6.5s-8.5,29-8.5,29s-4.4,11.9,0,13.1c4.4,1.3,7.9,2.9,8.5,0.6s0.2-6.3,1.3-4.2
		c1,2.1,0.6,4.6,2.7,4.6s10.2-1,10-2.5C126.6,83.2,121.1,50.5,121.1,50.5z"/>
	<path class="st16" d="M103.8,87.4c0,0-2.7,8.1,1,8.1s3.2-8.2,3.2-8.2L103.8,87.4z"/>
	<path class="st18" d="M127.8,146.2c0,0-2.1-3.1-2.3-1c-0.2,2.1-2.1,7.1,1.3,7.5c3.3,0.4,22.3,2.1,21.1-1.3
		c-0.7-1.9-14.1-8.6-14.1-8.6s-2,1.5-1.8,2.1C132.2,145.6,127.8,146.2,127.8,146.2z"/>
	<path class="st27" d="M132.9,40.4c0,0-1,0.8-2.3-0.8c-0.3-0.5-0.6-0.9-0.9-1.5c-1-1-2.4-1.6-3.9-1.7c-0.1,0-0.2,0-0.3,0
		c-2.7,0-3.3-1.9-3.3-1.9l-4.4,1.5c0,0,0.6-5.8,6.7-5.8c6,0,6.3,5,6.3,5S135.6,37,132.9,40.4z"/>
	<path class="st48" d="M130.6,39.6c-0.3-0.5-0.6-0.9-0.9-1.5c-1-1-2.4-1.6-3.9-1.7c1.5-0.5,4.2-1,5.3,0.4
		C132.3,38.2,131.4,39.1,130.6,39.6z"/>
	<path class="st27" d="M113,45.7c0,0-5.6-1-7.1,4s-4.6,19.8-4.6,19.8l1.9,15.2l-0.2,3.8h6v-4c0-0.4,0.8-16.7,0.8-16.7l6.9-15.6
		C116.8,52.2,118.2,47.2,113,45.7z"/>
	<polygon class="st48" points="116.9,54.4 110,67.9 109.1,87.3 111.4,67.7 	"/>
	<polygon class="st48" points="125.2,75.1 126.8,83.1 126,75.9 	"/>
	<polygon class="st48" points="107.5,93.9 116.4,106.6 115.5,108.5 	"/>
	<rect x="-14" y="200.5" class="st49" width="33.5" height="35"/>
	<rect x="31" y="201" class="st50" width="33.5" height="35"/>
	
		<linearGradient id="SVGID_6_" gradientUnits="userSpaceOnUse" x1="148.9911" y1="183.6453" x2="151.4911" y2="3.1453" gradientTransform="matrix(1 0 0 -1 0 182)">
		<stop  offset="0" style="stop-color:#70B17F"/>
		<stop  offset="1" style="stop-color:#154E5E"/>
	</linearGradient>
	<path class="st51" d="M179.2,125.7c-3.2,3.2-5.2,7.6-5.2,12.5c0,9.8,8,17.8,17.8,17.8H301v23.5H146.3c4.2-6.3,6.7-13.9,6.7-22
		c0-21.8-17.7-39.5-39.5-39.5S74,135.7,74,157.5c0,8.1,2.5,15.7,6.7,22H-0.5v-41.8c7.5,2.8,15.5,4.3,24,4.3
		C61.3,142,92,111.3,92,73.5S61.3,5,23.5,5C15,5,7,6.5-0.5,9.3V-1h158.7C143.7,7.9,134,24,134,42.2c0,28,22.7,50.8,50.8,50.8
		s50.8-22.7,50.8-50.8c0-18.3-9.7-34.3-24.2-43.2H301v121.5H191.8C186.8,120.5,182.4,122.5,179.2,125.7z"/>
</g>
<g id="Thursday" class="st0">
	<rect x="-1" y="-0.5" class="st52" width="303" height="180.5"/>
	<rect x="77.5" y="91.2" class="st15" width="37.3" height="34.9"/>
	<rect x="108.4" y="137.8" class="st15" width="84.3" height="0.4"/>
	<path class="st15" d="M130.1,138.3H62.3V79.1h67.8V138.3z M62.7,137.9h67V79.5h-67C62.7,79.5,62.7,137.9,62.7,137.9z"/>
	<path class="st15" d="M224.6,111.5c-14.9,0-27.1-12.2-27.1-27.1s12.2-27.1,27.1-27.1s27.1,12.2,27.1,27.1S239.6,111.5,224.6,111.5z
		 M224.6,57.7c-14.7,0-26.7,12-26.7,26.7s12,26.7,26.7,26.7s26.7-12,26.7-26.7S239.3,57.7,224.6,57.7z"/>
	<circle class="st15" cx="223.8" cy="84.4" r="13"/>
	<polygon class="st16" points="145.2,115.9 146.5,123.3 150.6,121.5 150.6,114.8 	"/>
	<path class="st18" d="M151,119.7c0,0-2.6,2.9-5.2,1.4l-0.4,12.4c0,0-6.2,6.9-0.2,7s4.9-2.5,4.9-2.5v-1.5l0.7-1.3l0.6,0.2
		c0,0,1.7-2,1.5-3c-0.1-1-0.2-2.3-0.2-2.3l-1.4-6.3L151,119.7z"/>
	<polygon class="st16" points="190.4,94.5 195.5,98.8 192.9,101.9 186.2,98.2 	"/>
	<path class="st18" d="M191.4,101.4l3.1-3.9l4.9,3.7l5.8,3.1c0,0,6.5,2.4,5,4.6c-1.5,2.3-5.1,1.5-5.1,1.5l-0.8-0.6l-1.3-0.4l0.4,0.7
		l-2.9-0.1l-1.9-2.3l-1.5-2l-2.5-2.4L191.4,101.4z"/>
	<path class="st16" d="M135.1,47l-1.3,9.9l-5.5,15.6c0,0-5.8,8.2-1.7,8.4c4.2,0.2,4.3-7.6,4.3-7.6l7.1-13l1.9-12.8L135.1,47z"/>
	<path class="st16" d="M161.4,50.1l0.8,11.3l6.9,13c0,0,4.8,4.3,2,5.7c-2.7,1.4-5.2-5.8-5.2-5.8l-8.2-11.5l-1.3-12L161.4,50.1z"/>
	<circle class="st16" cx="153.7" cy="29.7" r="6.1"/>
	<path class="st16" d="M148.8,31.2c0,0-1.1,6.4-5.6,7.5s8,4.6,11.5,1.3c0,0-2.3-2.1-0.4-4.9C156.3,32.4,148.8,31.2,148.8,31.2z"/>
	<path class="st27" d="M160.3,42.6l-6.1-3.3c0,0-3.6,2.5-10.1-0.9c0,0-8.2,0.7-8.1,1.7c0.1,1.1-3.7,7.1-2.4,8.3s2.1-1.1,3.4,1.2
		c1.3,2.3,1.9,1.7,1.9,1.7s-0.5,8,0.5,8.3s16.3-1.9,16.3-1.9s2,0.4,1.1-0.6c-1-1-1.1-1.1-0.5-1.8s1.4-0.6,0.6-1.2
		c-0.5-0.3-0.6-0.9-0.4-1.4c0,0,3.9-1.7,5.5-1.5C163.6,51.3,161.5,43,160.3,42.6z"/>
	<path class="st18" d="M139.9,59.3l-0.1,4.5c0,0-4,55.2,1.4,54.8c5.5-0.4,5.7-2.4,6.1-2.6c0.4-0.2,4.8,2.3,5.4-0.4s1-35.7,1-35.7
		s13.7,31.4,22.2,27.6c8.6-3.8,19.4-10.8,16.9-13.6c-2.5-2.7-13.9-9.9-13.9-9.9s-0.2-2.1-4.4-4.2l-13.6-13.9c0,0,0.4-0.5-0.5-1.1
		c-0.8-0.6-0.8,0.5-1.1-1.1c-0.2-1.5,0.1-1-0.6-1.7s-0.6-0.1-0.7-0.8s0.1-0.6-0.1-0.8c-0.2-0.2-1.2-1.3-1.2-1.3l-1.2-3.1
		C155.4,56.2,142,56.9,139.9,59.3z"/>
	<polygon class="st27" points="139.4,61.8 156.3,57.4 157.1,59.3 139.3,63.8 	"/>
	<polygon class="st27" points="141.4,62.7 140.3,68.3 141.8,68.3 142.8,62.5 	"/>
	<path class="st27" d="M143.8,62.1c-0.1,0.8,0,1.7,0.2,2.5c0.4,1.4,0.8,3.4,0.8,3.4s2.3-1.2,1.9-2.3s-1.4-4-1.4-4L143.8,62.1z"/>
	<path class="st18" d="M153,29.4c0.4-0.5,0.2-1.3,0.5-1.8c0.4-0.9,1.6-1.1,2.6-1.2c0.7-0.1,1.3-0.1,2,0.1c0.6,0.1,1.1,0.5,1.4,1
		c0.1,0.3,0.1-0.6,0.1-1.8c-0.1-2.5-1.9-4.6-4.3-5.2l0,0c-1.2-0.3-2.4-0.5-3.7-0.4c-1.2,0.1-2.5,0.6-3.3,1.6c-0.4,0.4-0.6,1-1,1.4
		c-0.7,0.7-1.7,0.9-2.7,1.3c-1.1,0.4-2.1,0.8-2.9,1.6c-0.8,0.8-1.4,1.8-1.5,2.9c-0.1,1.3,0.8,2.7,2.1,3c0.2,0,0.5,0.1,0.6,0.3
		c1.3,1-0.2,2-0.2,3.2c0,0.9,1,1.6,2,1.6c1.8,0.1,3.4-1.1,3.8-2.9c0.2-0.8,0.1-1.6,0-2.3c-0.1-0.9,1.9-2.9,0.6-1.4
		c-0.3,0.3-0.4,0.6-0.5,1c-0.2,1.2,0.9,1.7,1.6,2.4c0.8,0.8,1,2,0.6,3c1.2-1.1,1.5-2.8,0.7-4.2c-0.2-0.4-0.5-0.7-0.7-1
		c-0.3-0.6-0.4-1.8,0.6-1.7C151.8,29.6,152.4,30.2,153,29.4z"/>
	<rect x="181.1" y="50.4" transform="matrix(0.866 -0.5 0.5 0.866 -2.2634 99.6122)" class="st53" width="7.3" height="7.3"/>
	<rect x="87.7" y="53.8" transform="matrix(0.866 -0.5 0.5 0.866 -16.4974 53.3761)" class="st15" width="7.3" height="7.3"/>
	<rect x="168.4" y="119.6" transform="matrix(0.866 -0.5 0.5 0.866 -38.5829 102.5326)" class="st17" width="7.3" height="7.3"/>
	<rect x="92.8" y="105.3" class="st54" width="6.8" height="6.8"/>
	<circle class="st54" cx="223.8" cy="84.4" r="3.2"/>
	
		<linearGradient id="SVGID_7_" gradientUnits="userSpaceOnUse" x1="151.2643" y1="183.7596" x2="149.7643" y2="4.2596" gradientTransform="matrix(1 0 0 -1 0 182)">
		<stop  offset="0" style="stop-color:#F68C1F"/>
		<stop  offset="1" style="stop-color:#EF3D23"/>
	</linearGradient>
	<path class="st55" d="M-1-0.5v28.6C3.6,25.5,8.9,24,14.5,24C31.9,24,46,38.1,46,55.5S31.9,87,14.5,87C8.9,87,3.6,85.5-1,82.9v20.6
		h135.3c10.1,0,18.2,8.2,18.2,18.2c0,5-2,9.6-5.4,12.9c-3.3,3.3-7.9,5.3-12.9,5.3H-1v40h303V-0.5H-1z M239.8,137
		c-29.4,0-53.2-23.8-53.2-53.2s23.8-53.2,53.2-53.2S293,54.3,293,83.8C293,113.2,269.2,137,239.8,137z"/>
	<rect x="-59.5" y="195" class="st52" width="20.5" height="32.5"/>
	<rect x="-31.5" y="196.5" class="st56" width="21" height="32"/>
</g>
<g id="Friday" class="st0">
	<rect x="0.1" y="-2.9" class="st57" width="303" height="186"/>
	<rect x="31.6" y="161.1" class="st15" width="239.8" height="0.5"/>
	<rect x="58" y="117.3" class="st15" width="57.7" height="44.2"/>
	<rect x="78.9" y="148.7" class="st58" width="9.8" height="12.6"/>
	<path class="st20" d="M199.4,88.9c-1.9,3.8-17.6-1.1-17.6-1.1l-30.1-9l-7.5-4.4l-4.8-2.8l9.8-3.4l0.3,0.1l7.2,2.6L184.6,84
		C184.6,84,204.3,79,199.4,88.9z"/>
	<path class="st17" d="M123.9,50.1c0,0-3.8,1.4-4.2,5.5s-0.5,26.8-0.5,26.8s9.8-5.4,15.1-5.5s17.6-8.6,17.6-8.6
		S128.8,48.4,123.9,50.1z"/>
	<path class="st59" d="M123.9,50.1c0,0-3.8,1.4-4.2,5.5s-0.5,26.8-0.5,26.8s9.8-5.4,15.1-5.5s17.6-8.6,17.6-8.6
		S128.8,48.4,123.9,50.1z"/>
	<path class="st15" d="M204.7,83.7l-0.1-0.3c0-0.1-4.4-8.7-2-17.1c2.4-8.5,10.7-13.8,10.8-13.9l0.3-0.2l0.1,0.3
		c0,0.1,4.4,8.7,2,17.1c-2.4,8.5-10.7,13.8-10.8,13.9L204.7,83.7z M213.4,53.1c-1.4,1-8.1,6-10.2,13.4c-2.1,7.4,1.1,14.9,1.8,16.5
		c1.4-1,8.1-6,10.2-13.4l0,0C217.2,62.1,214.1,54.6,213.4,53.1z"/>
	<path class="st58" d="M193.5,69.6c2.4,8.5,10.6,13.7,10.6,13.7s4.3-8.5,1.9-16.9s-10.6-13.7-10.6-13.7S191.1,61.1,193.5,69.6z"/>
	<path class="st15" d="M204.8,83.6h-0.3c-0.1,0-10.1-0.6-16.7-6.7c-6.6-6.1-7.5-15.6-7.5-15.7v-0.3h0.3c0.1,0,10.1,0.6,16.7,6.7
		c6.6,6.1,7.5,15.6,7.5,15.7V83.6z M180.9,61.4c0.2,1.7,1.5,9.7,7.3,15s14.2,6.4,16,6.5c-0.2-1.7-1.5-9.7-7.3-15l0,0
		C191.1,62.6,182.7,61.6,180.9,61.4z"/>
	<path class="st15" d="M211.9,67.8c-6.6,6.1-7.4,15.5-7.4,15.5s9.9-0.5,16.5-6.6s7.4-15.5,7.4-15.5S218.5,61.7,211.9,67.8z"/>
	<ellipse class="st58" cx="204.3" cy="47.2" rx="4.3" ry="4.1"/>
	<path class="st17" d="M194.2,81.5h21.3c2.7,0,4.8,2.1,4.8,4.6v5c0,2.5-2.2,4.6-4.8,4.6h-21.3c-2.7,0-4.8-2.1-4.8-4.6v-5
		C189.4,83.6,191.5,81.5,194.2,81.5z"/>
	<ellipse class="st18" cx="132.1" cy="36.2" rx="14.1" ry="13.4"/>
	<path class="st25" d="M166,153.9l-1-0.8l0.1,0.5C165.1,153.6,165.5,153.7,166,153.9z"/>
	<path class="st20" d="M160.8,124.6l-8,0.5c0,0-0.2,14.3-1.3,18l13.8,10.4l-2.9-8.7L160.8,124.6z"/>
	<path class="st18" d="M166,153.9L166,153.9L166,153.9c-0.6-0.2-0.5-0.3-0.5-0.3V153l-14-10.7c-0.1,0.5-0.3,0.8-0.5,0.9
		c-0.5,0.3-1.3,1.3-2,2.4c-1.7,2.6-2.2,5.9-1.2,8.8l0,0l-0.6,9.3h2.3l0.6-8.5h2.9c0,0,4.9,6,6.3,8.2c1.4,2.2,7.7,2.7,14.1-1.4
		C178.8,158.6,169.2,154.9,166,153.9z"/>
	<ellipse class="st20" cx="132.1" cy="42.6" rx="9.2" ry="8.7"/>
	<path class="st20" d="M137.2,47.4L132.3,63l-11.8-8.2c0,0,6-6.3,6-7.9S137.2,47.4,137.2,47.4z"/>
	<path class="st18" d="M90.3,92.3c0,0-14.1,16.1-0.6,25.9c5.9,4.3,11.1,12.5,15.1,20.3c6.3,12.5,18.1,21.6,32.2,25l0,0
		c0,0,47.9-53.2,31.6-68.2S108,93.4,108,93.4L90.3,92.3z"/>
	<path class="st17" d="M130.1,78.7c0.1,3.6-0.7,7.5-3.9,8.4c-6.3,1.6-6.9,0.8-6.9,0.8s-1.1,1.9-0.9,4.1s-2.7,0.4-2.7,0.4
		S85.1,96.1,86.2,92s12-18.3,12-18.3s17.8-23.8,21.5-22.9c0.1,0,0.3,0.1,0.4,0.1c3.8,1.1,10.2,5.7,10.8,7.5
		c0.6,1.9-1.7,13.9-1.7,13.9C129.7,74.4,130,76.6,130.1,78.7z"/>
	<ellipse class="st18" cx="134" cy="18.5" rx="4.7" ry="4.5"/>
	<path class="st18" d="M139.3,21.3c1.5-1.8,1.3-4.4-0.4-6c0.1,0.1,0.3,0.2,0.4,0.3c2,1.5,2.4,4.3,0.8,6.3c-1.6,1.9-4.6,2.3-6.6,0.7
		l0,0c-0.1-0.1-0.2-0.2-0.4-0.3C135.1,23.5,137.8,23.1,139.3,21.3z"/>
	<path class="st18" d="M134.7,29.9c5.3,1.4,9,4.9,8.1,7.9c-0.4,1.3-1.6,2.3-3.3,2.9l-1.5-1.8l-0.1,2.1c-0.2,0-0.5,0.1-0.7,0.1
		l-1.9-3.8l-1.1,3.8c-0.9-0.1-1.8-0.2-2.6-0.5c-5.3-1.4-9-4.9-8.1-7.9S129.4,28.6,134.7,29.9z"/>
	<path class="st20" d="M175.2,112.2c-3.7,2.2-6-13.4-6-13.4l-27-15.6l-6.1-6l-3.9-3.8l10.3-1.1l0.3,0.2l6.3,4.2l23.8,19.1
		C172.9,95.8,178.9,110,175.2,112.2z"/>
	<path class="st59" d="M129.3,72.4c0.5,2.1,0.7,4.2,0.8,6.3c-2,0.3-3.8,0.5-5.1,0.2c-5.2-1.1-16.1,1.9-16.1,1.9s5.7-22.1,7.2-25.9
		c0.7-1.8,2.2-3.3,4.1-4c3.8,1.1,10.2,5.7,10.8,7.5C131.6,60.3,129.3,72.4,129.3,72.4z"/>
	<path class="st59" d="M144.2,74.5c0,0-3.8,1.5-8.1,2.7l-3.9-3.8l10.3-1.1l0.3,0.2C143.6,73.8,144.2,74.5,144.2,74.5z"/>
	<path class="st17" d="M122.4,49.2c0,0-4,0.5-5.5,4.4s-7.2,25.9-7.2,25.9s10.9-3,16.1-1.9s19.2-4.4,19.2-4.4S127.5,48.6,122.4,49.2z
		"/>
	<polygon class="st15" points="230.6,118.3 232.2,114.4 246.5,106.6 256.2,104.7 	"/>
	<polygon class="st15" points="177.9,118.3 176.4,114.4 162.1,106.6 152.4,104.7 	"/>
	<polygon class="st15" points="231.6,119.3 176.9,119.3 172.3,98.8 236.3,98.8 	"/>
	<polygon class="st59" points="231.6,119.3 176.9,119.3 172.3,98.8 236.3,98.8 	"/>
	<rect x="176.7" y="118.1" class="st15" width="55.2" height="43.2"/>
	<rect x="199.4" y="148.4" class="st58" width="9.8" height="12.6"/>
	<rect x="-329.9" y="288.1" class="st60" width="82.5" height="81"/>
	<rect x="-216.6" y="303" class="st57" width="82.5" height="81"/>
	
		<linearGradient id="SVGID_8_" gradientUnits="userSpaceOnUse" x1="150.8387" y1="193.9163" x2="152.3386" y2="-7.0728" gradientTransform="matrix(1 0 0 -1 0 182)">
		<stop  offset="0" style="stop-color:#4CC7EA"/>
		<stop  offset="1" style="stop-color:#348AC7"/>
	</linearGradient>
	<path class="st61" d="M241.6-2.9c1.9,4.9,3,10.2,3,15.7c0,23.6-19.1,42.8-42.8,42.8c-23.6,0-42.8-19.1-42.8-42.8
		c0-5.6,1.1-10.9,3-15.7H0.1v186h22.2c-4.6-8.5-7.2-18.2-7.2-28.5c0-33.1,26.9-60,60-60s60,26.9,60,60c0,10.3-2.6,20-7.2,28.5h175.2
		v-186C303.1-2.9,241.6-2.9,241.6-2.9z M219.8,159.1c-18.6,0-33.8-15.1-33.8-33.8c0-18.6,15.1-33.8,33.8-33.8
		c18.6,0,33.8,15.1,33.8,33.8S238.5,159.1,219.8,159.1z"/>
</g>
<g id="Saturday" class="st0">
	<rect x="-2.9" y="-1.4" class="st62" width="303" height="182.6"/>
	<circle class="st18" cx="220.6" cy="133.9" r="17.1"/>
	<polygon class="st18" points="208.4,155 203.7,152.8 207.9,142.9 212.6,145 	"/>
	
		<rect x="213.1" y="149.9" transform="matrix(0.4156 -0.9096 0.9096 0.4156 -11.4589 287.2436)" class="st18" width="9.3" height="5.2"/>
	
		<ellipse transform="matrix(0.8147 -0.5799 0.5799 0.8147 -51.5909 154.8123)" class="st18" cx="216.4" cy="158.1" rx="1.6" ry="4.3"/>
	
		<ellipse transform="matrix(0.8147 -0.5799 0.5799 0.8147 -51.7511 148.7097)" class="st18" cx="206.8" cy="155.3" rx="1.6" ry="4.3"/>
	<circle class="st63" cx="222.8" cy="130.2" r="5.8"/>
	<circle class="st15" cx="220.7" cy="127.5" r="1.9"/>
	<path class="st45" d="M212.1,112.6c1.3-6.2,7.9-10,14.7-8.6s11.3,7.6,10,13.8c-1.3,6.2-6.4,6.4-13.2,4.9
		C216.8,121.3,210.8,118.8,212.1,112.6z"/>
	
		<ellipse transform="matrix(2.413902e-02 -0.9997 0.9997 2.413902e-02 96.1224 368.1285)" class="st18" cx="236.6" cy="134.8" rx="2.7" ry="8.5"/>
	
		<ellipse transform="matrix(2.413902e-02 -0.9997 0.9997 2.413902e-02 65.9899 331.3894)" class="st18" cx="202.7" cy="131.9" rx="2.7" ry="8.5"/>
	<path class="st63" d="M214.4,139.3c-0.9,2,0,4.3,1.9,5.2c2,0.9,4.3,0,5.2-1.9l0,0c0.9-2-0.5-3.1-2.5-4
		C217,137.7,215.3,137.3,214.4,139.3z"/>
	<path class="st64" d="M104.7,89.5c-4.9-1.3-8.2-5.1-8.2-5.1s4.7-1.8,9.6-0.6s8.2,5.1,8.2,5.1S109.6,90.8,104.7,89.5z"/>
	<path class="st15" d="M95.9,83.1l0.3-0.1c0,0,4.8-1.8,9.8-0.6c4.9,1.3,8.3,5.2,8.3,5.2l0.2,0.3l-0.3,0.1c0,0-4.8,1.8-9.8,0.6l0,0
		c-4.9-1.3-8.3-5.2-8.3-5.2L95.9,83.1z M113.7,87.7c-0.8-0.9-3.8-3.7-7.8-4.8c-4.1-1-8,0.1-9.2,0.4c0.8,0.9,3.8,3.7,7.8,4.8
		C108.6,89.2,112.5,88.1,113.7,87.7z"/>
	<path class="st20" d="M69,42.5l-1.6,6.7l9.7,2.2c0,0-0.8-7.5,0-8.3L69,42.5z"/>
	<circle class="st20" cx="72.9" cy="40.2" r="6.7"/>
	<path class="st18" d="M79.5,38.2c0,0,0.7-7.6-7.2-4.9c0,0-5.7-0.8-7.3,6.3l1.8,7l0.4,1.5L79.5,49c0,0-5.6-3-5.9-8.8l1.1,1.1
		L79.5,38.2z"/>
	<path class="st18" d="M67.8,92.2c0,0,5.9,8.3,10,10.5L91.2,121l-3.5,33.6c0,0,8.6,5.6,20.2-2.4l-3.5-36.6L89,88.9L67.8,92.2z"/>
	<path class="st18" d="M91,154.5c0,0-4,6.7,1.9,7.1c6,0.4,9.8-1,11.7,0s9.1-0.2,8.3-3.4c-0.7-3.2-10-5.5-10-5.5L91,154.5z"/>
	<path class="st18" d="M63.9,81.2c0,0,2.1,10,5,13.6l5.1,22.1l-16.5,29.5c0,0,5.7,8.6,19.5,5.8l11.3-35l-3.5-30.5L63.9,81.2z"/>
	<path class="st18" d="M60.5,146.7c0,0-6.2,4.4-0.9,7.5s9.3,3.5,10.7,5.3c1.4,1.8,8.4,3.9,8.9,0.6s-7.1-9.7-7.1-9.7L60.5,146.7z"/>
	<path class="st15" d="M93.2,91.7c0,1.3-15.6,5.1-25,3.8c-4.4-0.6-6.2-5.9-6.8-11.2c-0.2-1.9-0.3-3.8-0.3-5.7c0-1.2,0-2.4,0.1-3.3
		c0.1-1.9,0.3-3.1,0.3-3.1L61,69.5l-0.6-3.2l-1-5.6l-0.1-0.5c-5.1-2.4-1.1-14-1.1-15.1s6.7,0.8,6.7,0.8l1.3-1.9l4.3,1.3l4.7-2.5
		l4.5,6c0,0,1.6,2.5,3.5,6.1c0.8,1.6,1.7,3.3,2.5,5.2c0.4,1,0.8,2,1.2,3c0.5,1.4,1,2.8,1.4,4.2c0.1,0.4,0.2,0.8,0.3,1.2
		c0.3,1,0.5,2.1,0.8,3.1c0.4,1.8,0.9,3.7,1.2,5.5C92.2,84.4,93.2,90.8,93.2,91.7z"/>
	<path class="st15" d="M66.3,43.6c0,0,6.5-9.4,13.4-6.5c0,0-0.5-6.2-4.8-6.7s-6.7-1.9-6.7-1.9l-3.8,1.9v5.1
		C64.4,35.5,64.1,42.5,66.3,43.6z"/>
	<circle class="st45" cx="64.3" cy="27.3" r="3.8"/>
	<path class="st45" d="M85.7,60.3l-25.3,6l-1-5.6l23.8-5.6C84,56.7,84.9,58.4,85.7,60.3z"/>
	<path class="st45" d="M61.2,75.2c0.1-1.9,0.3-3.1,0.3-3.1L61,69.5l26-6.1c0.5,1.4,1,2.8,1.4,4.2c0.1,0.4,0.2,0.8,0.3,1.2L61.2,75.2
		z"/>
	<path class="st45" d="M90.7,77.4l-29.3,6.9c-0.2-1.9-0.3-3.8-0.3-5.7l28.4-6.7C89.9,73.7,90.3,75.5,90.7,77.4z"/>
	<path class="st20" d="M94.2,80.2c0,0,5.6-0.5,4.6,3.8c-1.1,4.3-7.5,1.6-7.5,1.6L94.2,80.2z"/>
	<path class="st15" d="M96.7,79.4l-3.5,7.8c0,0-1.3-0.5-3.3-1.2c-0.6-0.2-1.3-0.5-2-0.8c-0.4-0.1-0.8-0.3-1.1-0.4
		c-0.6-0.2-1.3-0.5-2-0.8c-0.4-0.1-0.8-0.3-1.1-0.4c-0.7-0.3-1.3-0.5-2-0.8C76.8,80.9,72,79,71,78.3c-1.5-0.9-6-8.9-8.7-13.9
		c-1.8-3.3-2-7.3-0.4-10.7c1.5-3.3,3.7-4,5.7-3.8c2.7,0.3,4.8,2.5,5.2,5.2L75,68.3l11,5.6l1.9,1l1.1,0.6l1.9,1l1.1,0.6l1.9,1
		L96.7,79.4z"/>
	<path class="st59" d="M60.1,57.3c0,0,3-11,10-8.9C70,48.4,63,48.7,60.1,57.3z"/>
	<path class="st45" d="M87.8,74.9l-4.3,8.6c-0.7-0.3-1.3-0.5-2-0.8l4.4-8.8L87.8,74.9z"/>
	<path class="st45" d="M90.8,76.4l-4.1,8.3c-0.6-0.2-1.3-0.5-2-0.8l4.2-8.5L90.8,76.4z"/>
	<path class="st45" d="M93.8,77.9l-3.9,8c-0.6-0.2-1.3-0.5-2-0.8l4.1-8.2L93.8,77.9z"/>
	<path class="st64" d="M216.6,118.5c0,32-19,43.2-42.5,43.2c-0.5,0-1.1,0-1.6,0c-1.1,0-2.2-0.1-3.2-0.1c-21.2-1.5-37.6-13.2-37.6-43
		c0-30.8,39.3-69.7,42.3-72.5l0,0c0.1-0.1,0.2-0.2,0.2-0.2S216.6,86.5,216.6,118.5z"/>
	<path class="st15" d="M172.6,156.7l15.5-21.7l-15.6,24.1v2.5c-1.1,0-2.2-0.1-3.2-0.1l1.7-32v-0.2l0,0l0.2-3L155.5,102l15.7,21.9
		v0.6l1.3-24.2L159,75.4l13.5,20.7l1.3-50.1v-0.2V46l-0.2,39.5L187,69.8l-13.4,19.1l-0.3,21.7l12.4-20.8l-12.5,24l-0.2,12l18-28.9
		L173,130L172.6,156.7z"/>
	<circle class="st45" cx="110.9" cy="26.3" r="1"/>
	<circle class="st45" cx="119.4" cy="55" r="1"/>
	<circle class="st45" cx="180.3" cy="61.8" r="1"/>
	<circle class="st45" cx="222.1" cy="93.4" r="1"/>
	<circle class="st45" cx="196.1" cy="116" r="1"/>
	<circle class="st45" cx="139.9" cy="123.3" r="1"/>
	<circle class="st45" cx="168" cy="23.6" r="2.2"/>
	<circle class="st45" cx="159.9" cy="136.6" r="2.2"/>
	<circle class="st45" cx="209.8" cy="59.4" r="2.2"/>
	<circle class="st45" cx="148.5" cy="91.2" r="2.2"/>
	<rect x="60" y="161.5" class="st15" width="169.6" height="0.4"/>
	
		<linearGradient id="SVGID_9_" gradientUnits="userSpaceOnUse" x1="-428.219" y1="41.9004" x2="-428.0832" y2="23.6992" gradientTransform="matrix(1 0 0 -1 0 182)">
		<stop  offset="0" style="stop-color:#4CC7EA"/>
		<stop  offset="1" style="stop-color:#348AC7"/>
	</linearGradient>
	<rect x="-464.9" y="141.1" class="st65" width="73.5" height="16.5"/>
	<rect x="-289.4" y="214.6" class="st66" width="61.5" height="126"/>
	<rect x="-202.4" y="210.1" class="st67" width="75" height="130.5"/>
	
		<linearGradient id="SVGID_10_" gradientUnits="userSpaceOnUse" x1="147.86" y1="191.2654" x2="149.3252" y2="-5.0705" gradientTransform="matrix(1 0 0 -1 0 182)">
		<stop  offset="0" style="stop-color:#EF486C"/>
		<stop  offset="2.452516e-03" style="stop-color:#EE486C"/>
		<stop  offset="0.1372" style="stop-color:#C8547D"/>
		<stop  offset="0.2741" style="stop-color:#A75B8C"/>
		<stop  offset="0.4107" style="stop-color:#8B5F97"/>
		<stop  offset="0.547" style="stop-color:#7362A1"/>
		<stop  offset="0.6829" style="stop-color:#6063A7"/>
		<stop  offset="0.8185" style="stop-color:#5364AC"/>
		<stop  offset="0.9533" style="stop-color:#4E64AE"/>
	</linearGradient>
	<path class="st68" d="M166.7,39.2c-2.9,2.8-4.6,6.8-4.6,11.1c0,8.7,7,15.8,15.8,15.8h120c0.8,0,1.5,0,2.2-0.2v115.3h-75.2
		c3.9-6.2,6.2-13.5,6.2-21.4c0-22-17.8-39.8-39.8-39.8s-39.8,17.8-39.8,39.8c0,7.9,2.3,15.2,6.2,21.4H-2.9V60.5
		C9.4,82.6,33,97.6,60.1,97.6c39.8,0,72-32.2,72-72c0-9.5-1.9-18.7-5.2-27h173.2v36.2c-0.7-0.1-1.5-0.2-2.2-0.2h-120
		C173.5,34.6,169.5,36.3,166.7,39.2z"/>
</g>
<g id="Layer_9">
	<text transform="matrix(1 0 0 1 109.7592 77.1299)" class="st69"><tspan x="0" y="0" class="st47 st70 st71"></tspan><tspan x="-70" y="70" class="st47 st70 st71"></tspan></text>
</g>
</svg>
