<?xml version="1.0" encoding="utf-8"?>
<!-- Generator: Adobe Illustrator 22.1.0, SVG Export Plug-In . SVG Version: 6.00 Build 0)  -->
<svg version="1.1" xmlns="http://www.w3.org/2000/svg" xmlns:xlink="http://www.w3.org/1999/xlink" x="0px" y="0px"
	 viewBox="0 0 300 180" style="enable-background:new 0 0 300 180;" xml:space="preserve">
<style type="text/css">
	.st0{display:none;}
	.st1{display:inline;}
	.st2{fill:#402516;}
	.st3{fill:#9B2727;}
	.st4{fill:#2F3440;}
	.st5{fill:#ADD5F7;}
	.st6{fill:#C5CCD4;}
	.st7{fill:#E1E9F2;}
	.st8{fill:#D3D3D3;}
	.st9{fill:#919191;}
	.st10{fill:#565D69;}
	.st11{fill:#C95151;}
	.st12{fill:#7FB2F0;}
	.st13{fill:#588F27;}
	.st14{fill:#4B7A21;}
	.st15{display:inline;fill:none;}
	.st16{display:inline;opacity:0.23;fill:#9B2727;}
	.st17{display:inline;opacity:0.41;fill:#E1D7D5;}
	.st18{display:inline;fill:#561717;}
	.st19{display:inline;fill:#9B2727;}
	.st20{fill:#626875;}
	.st21{fill:#5A616E;}
	.st22{fill:#6C7382;}
	.st23{fill:#C6E4F4;}
	.st24{fill:#226A99;}
	.st25{display:inline;fill:#92DDF4;}
	.st26{display:inline;opacity:0.26;fill:#A5A5A5;}
	.st27{display:inline;opacity:0.31;fill:#92DDF4;}
	.st28{display:inline;fill:#6C9AC1;}
	.st29{fill:#92DDF4;}
	.st30{display:inline;fill:#ADD5F7;}
	.st31{display:inline;fill:#AEF4F4;}
	.st32{display:inline;fill:#F4F3EA;}
	.st33{display:inline;fill:#2C5699;}
	.st34{fill:#B6D6CD;}
	.st35{fill:#543D31;}
	.st36{fill:#ADADAD;}
	.st37{fill:#68B59D;}
	.st38{fill:#3E7C68;}
	.st39{fill:#919090;}
	.st40{fill:#A7E5EA;}
	.st41{fill:#90A59F;}
	.st42{fill:#757575;}
	.st43{display:inline;opacity:0.51;fill:#ADADAD;}
	.st44{display:inline;opacity:0.51;fill:#69877E;}
	.st45{display:inline;fill:#68B59D;}
	.st46{display:inline;fill:#A5DBCA;}
	.st47{display:inline;fill:#A7E5EA;}
	.st48{fill:#7C6865;}
	.st49{fill:#5B4A48;}
	.st50{fill:#E25C3D;}
	.st51{fill:#6B514C;}
	.st52{fill:#DBDCDD;}
	.st53{fill:#A63E26;}
	.st54{fill:#87321F;}
	.st55{fill:#819E64;}
	.st56{fill:#54683C;}
	.st57{fill:#B24432;}
	.st58{display:inline;fill:none;stroke:#5B4A48;stroke-miterlimit:10;}
	.st59{display:inline;opacity:0.22;fill:#9B8D8C;}
	.st60{display:inline;opacity:0.55;fill:#E25C3D;}
	.st61{display:inline;fill:#AF4932;}
	.st62{display:inline;fill:#E25C3D;}
	.st63{display:inline;fill:#9DCAE6;}
	.st64{display:inline;fill:#FFFFFF;}
	.st65{fill:#3F5666;}
	.st66{fill:#54433B;}
	.st67{fill:#4D4E4F;}
	.st68{fill:#FC8D3A;}
	.st69{fill:#E6EAED;}
	.st70{opacity:0.5;fill:#3F5666;}
	.st71{fill:#497263;}
	.st72{fill:#2F4C40;}
	.st73{display:inline;opacity:0.26;fill:#4D4E4F;}
	.st74{display:inline;opacity:0.26;fill:#D3D3D3;}
	.st75{display:inline;fill:#616263;}
	.st76{display:inline;fill:#B6D04F;}
	.st77{display:inline;fill:#D3D3D3;}
	.st78{display:inline;fill:#FC8D3A;}
	.st79{fill:#939393;}
	.st80{fill:#E7B2BF;}
	.st81{fill:#D4D0D1;}
	.st82{fill:#DB5377;}
	.st83{fill:#FFFFFF;}
	.st84{fill:#DBDDDD;}
	.st85{fill:#E296AC;}
	.st86{fill:#3A4943;}
	.st87{opacity:0.56;fill:#939393;}
	.st88{opacity:0.56;fill:none;}
	.st89{opacity:0.46;fill:#DB5377;}
	.st90{opacity:0.46;fill:#E7B2BF;}
	.st91{fill:#A8E286;}
</style>
<g id="Layer_1" class="st0">
	<g class="st1">
		
			<rect x="92" y="164.7" transform="matrix(-1 -1.224647e-16 1.224647e-16 -1 375.1807 333.863)" class="st2" width="191.3" height="4.5"/>
		<rect x="102.3" y="107.7" class="st3" width="165.9" height="56.9"/>
		<g>
			
				<rect x="240" y="117.7" transform="matrix(-1 -1.224647e-16 1.224647e-16 -1 502.3969 263.0922)" class="st4" width="22.5" height="27.8"/>
			
				<rect x="241.6" y="119.4" transform="matrix(-1 -1.224647e-16 1.224647e-16 -1 502.3969 263.0922)" class="st5" width="19.1" height="24.2"/>
			
				<rect x="250.4" y="119.4" transform="matrix(-1 -1.224647e-16 1.224647e-16 -1 502.3969 263.0922)" class="st4" width="1.7" height="24.2"/>
			
				<rect x="250.4" y="121.9" transform="matrix(-1.836970e-16 1 -1 -1.836970e-16 382.7446 -119.6524)" class="st4" width="1.7" height="19.3"/>
		</g>
		<g>
			
				<rect x="211.7" y="117.7" transform="matrix(-1 -1.224647e-16 1.224647e-16 -1 445.9727 263.0922)" class="st4" width="22.5" height="27.8"/>
			
				<rect x="213.4" y="119.4" transform="matrix(-1 -1.224647e-16 1.224647e-16 -1 445.9727 263.0922)" class="st5" width="19.1" height="24.2"/>
			
				<rect x="222.2" y="119.4" transform="matrix(-1 -1.224647e-16 1.224647e-16 -1 445.9727 263.0922)" class="st4" width="1.7" height="24.2"/>
			
				<rect x="222.2" y="121.9" transform="matrix(-1.836970e-16 1 -1 -1.836970e-16 354.5324 -91.4403)" class="st4" width="1.7" height="19.3"/>
		</g>
		<g>
			<rect x="182" y="117.7" class="st4" width="25.6" height="47"/>
			<rect x="183.8" y="119.4" class="st6" width="22.1" height="45.2"/>
			<rect x="185.6" y="121" class="st7" width="18.4" height="13.1"/>
			<rect x="185.6" y="135.6" class="st7" width="18.4" height="13.1"/>
			<rect x="185.6" y="150.2" class="st7" width="18.4" height="13.1"/>
			<circle class="st2" cx="201.2" cy="141.8" r="1.6"/>
		</g>
		<rect x="98.4" y="103.2" class="st7" width="176" height="4.6"/>
		
			<rect x="113" y="117.7" transform="matrix(-1 -1.224647e-16 1.224647e-16 -1 277.575 282.3163)" class="st4" width="51.6" height="47"/>
		<g>
			<g>
				<rect x="114.9" y="119.4" class="st8" width="47.9" height="6.5"/>
				<rect x="114.9" y="125.2" class="st9" width="47.9" height="0.7"/>
			</g>
			<g>
				<rect x="114.9" y="125.9" class="st8" width="47.9" height="6.5"/>
				<rect x="114.9" y="131.6" class="st9" width="47.9" height="0.7"/>
			</g>
			<g>
				<rect x="114.9" y="132.3" class="st8" width="47.9" height="6.5"/>
				<rect x="114.9" y="138.1" class="st9" width="47.9" height="0.7"/>
			</g>
			<g>
				<rect x="114.9" y="138.8" class="st8" width="47.9" height="6.5"/>
				<rect x="114.9" y="144.5" class="st9" width="47.9" height="0.7"/>
			</g>
			<g>
				<rect x="114.9" y="145.3" class="st8" width="47.9" height="6.5"/>
				<rect x="114.9" y="151" class="st9" width="47.9" height="0.7"/>
			</g>
			<g>
				<rect x="114.9" y="151.7" class="st8" width="47.9" height="6.5"/>
				<rect x="114.9" y="157.5" class="st9" width="47.9" height="0.7"/>
			</g>
			<g>
				<rect x="114.9" y="158.2" class="st8" width="47.9" height="6.5"/>
				<rect x="114.9" y="163.9" class="st9" width="47.9" height="0.7"/>
			</g>
		</g>
		
			<rect x="143.5" y="93.8" transform="matrix(-1 -1.224647e-16 1.224647e-16 -1 304.3923 197.0013)" class="st10" width="17.3" height="9.4"/>
		
			<rect x="111.6" y="93.8" transform="matrix(-1 -1.224647e-16 1.224647e-16 -1 240.5087 197.0013)" class="st10" width="17.3" height="9.4"/>
		<rect x="102.3" y="107.7" class="st11" width="165.9" height="2.6"/>
		<rect x="234.5" y="51.5" class="st10" width="17.3" height="5.4"/>
		<rect x="174.3" y="62" class="st3" width="93.4" height="41"/>
		<rect x="172.1" y="56.9" class="st7" width="97.9" height="5.1"/>
		<rect x="174.3" y="62" class="st11" width="93.4" height="2.9"/>
		<g>
			<rect x="190" y="69.5" class="st7" width="22.5" height="27.8"/>
			<rect x="191.7" y="71.2" class="st12" width="19.1" height="24.2"/>
			<rect x="200.4" y="71.2" class="st7" width="1.7" height="24.2"/>
			
				<rect x="200.4" y="73.7" transform="matrix(-1.836970e-16 1 -1 -1.836970e-16 284.5717 -117.877)" class="st7" width="1.7" height="19.3"/>
		</g>
		<g>
			<rect x="231.1" y="69.5" class="st7" width="22.5" height="27.8"/>
			<rect x="232.7" y="71.2" class="st12" width="19.1" height="24.2"/>
			<rect x="241.5" y="71.2" class="st7" width="1.7" height="24.2"/>
			
				<rect x="241.5" y="73.7" transform="matrix(-1.836970e-16 1 -1 -1.836970e-16 325.652 -158.9574)" class="st7" width="1.7" height="19.3"/>
		</g>
		<g>
			<path class="st13" d="M278,154.7c0,3.8-3.1,6.9-6.9,6.9h-6.5c-3.4,0-6.2-2.4-6.8-5.6c-0.1-0.4-0.1-0.9-0.1-1.4
				c0-2.4,1.2-4.5,3.1-5.8c0.3-3.5,3.3-6.3,6.9-6.3c3.5,0,6.4,2.6,6.9,6c0.6,0.4,1.2,0.8,1.7,1.3C277.3,151.2,278,152.9,278,154.7z"
				/>
			<rect x="261.7" y="161" class="st4" width="12.2" height="3.6"/>
			<rect x="261.2" y="163.4" class="st2" width="13.1" height="1.3"/>
			<path class="st14" d="M278,154.7c0,3.8-3.1,6.9-6.9,6.9h-6.5c-3.4,0-6.2-2.4-6.8-5.6c1.5,1.4,4,2.9,7.3,2.3
				c5.5-0.9,5.8-6.4,5.8-6.4s3.2,1,5.3-2C277.3,151.2,278,152.9,278,154.7z"/>
		</g>
	</g>
	
		<image style="overflow:visible;" width="320" height="200" xlink:href="homerad.jpg"  transform="matrix(-0.9735 0 0 0.9735 311.7561 -10.0475)">
	</image>
	
		<image style="overflow:visible;" width="320" height="200" xlink:href="homerad.jpg"  transform="matrix(0.944 0 0 0.944 -3.8275 -18.1589)">
	</image>
	
		<image style="overflow:visible;" width="700" height="420" xlink:href="main3.jpg"  transform="matrix(-0.4558 -8.822726e-04 -8.822726e-04 0.4558 308.2985 -5.1517)">
	</image>
	<path class="st15" d="M274.3,95.2c0,22-9.8,41.7-25.3,55c-12.7,10.9-29.2,17.5-47.3,17.5c-40.1,0-72.5-32.5-72.5-72.5
		c0-5.5,0.6-10.8,1.8-15.9c7.2-32.4,36.2-56.6,70.8-56.6C241.8,22.7,274.3,55.2,274.3,95.2z"/>
	<path class="st15" d="M274.3,95.2c0,14.7-4.4,28.4-11.9,39.9c-3.7,5.7-8.2,10.8-13.3,15.1c-12.7,10.9-29.2,17.5-47.3,17.5
		c-40.1,0-72.5-32.5-72.5-72.5c0-5.5,0.6-10.8,1.8-15.9c0.8-3.6,1.9-7.1,3.2-10.4c10.5-27,36.8-46.2,67.6-46.2
		C241.8,22.7,274.3,55.2,274.3,95.2z"/>
	<path class="st16" d="M311.5,175.1V191h-321V-3.1l9.2,2.6l134.4,69.4c-1.3,3.4-2.4,6.8-3.2,10.4c-1.2,5.1-1.8,10.4-1.8,15.9
		c0,40.1,32.5,72.5,72.5,72.5c18.1,0,34.6-6.6,47.3-17.5c5.1-4.4,9.6-9.5,13.3-15.1l48.2,24.9L311.5,175.1z"/>
	<path class="st17" d="M311.5-18.5v193.6l-1-15.1l-48.2-24.9c7.6-11.4,11.9-25.2,11.9-39.9c0-40.1-32.5-72.5-72.5-72.5
		c-30.8,0-57.1,19.2-67.6,46.2L-0.3-0.5l-9.2-2.6v-15.4H311.5z"/>
	<rect x="-1" y="-0.5" class="st15" width="301.5" height="181"/>
	<path class="st18" d="M34.5,175.7H-0.3v-41.3h34.8c11.4,0,20.7,9.3,20.7,20.7v0C55.2,166.4,45.9,175.7,34.5,175.7z"/>
	<circle class="st19" cx="25" cy="156" r="17"/>
</g>
<g id="Layer_2" class="st0">
	<g class="st1">
		<rect x="34" y="151.1" class="st2" width="223.7" height="5.3"/>
		<g>
			<rect x="56.4" y="39" class="st20" width="30.1" height="40.2"/>
			<rect x="80" y="39" class="st21" width="6.5" height="40.2"/>
			<rect x="54.2" y="31.2" class="st22" width="34.6" height="13.7"/>
			<rect x="56.4" y="44.9" class="st10" width="30.1" height="2.8"/>
		</g>
		<polygon class="st23" points="160.3,84.5 160.3,151.1 51.5,151.1 51.5,84.5 105.9,43.2 		"/>
		<polygon class="st5" points="170.4,84.5 160.3,84.5 105.9,43.2 51.5,84.5 41.4,84.5 105.9,35.3 		"/>
		<g>
			<rect x="58.3" y="96.1" class="st4" width="26.3" height="32.5"/>
			<rect x="60.3" y="98.2" class="st5" width="22.4" height="28.3"/>
			<rect x="70.5" y="98.2" class="st4" width="1.9" height="28.3"/>
			
				<rect x="70.5" y="101.1" transform="matrix(-1.836970e-16 1 -1 -1.836970e-16 183.7926 40.8758)" class="st4" width="1.9" height="22.5"/>
		</g>
		<g>
			<rect x="128.2" y="96.1" class="st4" width="26.3" height="32.5"/>
			<rect x="130.1" y="98.2" class="st5" width="22.4" height="28.3"/>
			<rect x="140.3" y="98.2" class="st4" width="1.9" height="28.3"/>
			
				<rect x="140.3" y="101.1" transform="matrix(-1.836970e-16 1 -1 -1.836970e-16 253.6487 -28.9803)" class="st4" width="1.9" height="22.5"/>
		</g>
		<polygon class="st24" points="160.3,84.5 160.3,86.5 105.9,45.7 51.5,86.1 51.5,84.5 105.9,43.2 		"/>
		<g>
			<rect x="91" y="96.1" class="st4" width="29.9" height="55"/>
			<rect x="93" y="98.2" class="st24" width="25.8" height="52.9"/>
			<rect x="95.1" y="100" class="st5" width="21.5" height="15.3"/>
			<rect x="95.1" y="117.1" class="st5" width="21.5" height="15.3"/>
			<rect x="95.1" y="134.2" class="st5" width="21.5" height="15.3"/>
			<circle class="st2" cx="113.4" cy="124.4" r="1.9"/>
		</g>
		<rect x="160.3" y="84.5" class="st23" width="85.2" height="66.6"/>
		<polygon class="st5" points="160.3,84.5 250.1,84.5 250.1,79.2 153.3,79.2 		"/>
		<rect x="172.7" y="96.1" class="st4" width="60.3" height="55"/>
		<g>
			<g>
				<rect x="174.9" y="98.1" class="st8" width="56" height="7.6"/>
				<rect x="174.9" y="104.9" class="st9" width="56" height="0.8"/>
			</g>
			<g>
				<rect x="174.9" y="105.7" class="st8" width="56" height="7.6"/>
				<rect x="174.9" y="112.4" class="st9" width="56" height="0.8"/>
			</g>
			<g>
				<rect x="174.9" y="113.3" class="st8" width="56" height="7.6"/>
				<rect x="174.9" y="120" class="st9" width="56" height="0.8"/>
			</g>
			<g>
				<rect x="174.9" y="120.8" class="st8" width="56" height="7.6"/>
				<rect x="174.9" y="127.5" class="st9" width="56" height="0.8"/>
			</g>
			<g>
				<rect x="174.9" y="128.4" class="st8" width="56" height="7.6"/>
				<rect x="174.9" y="135.1" class="st9" width="56" height="0.8"/>
			</g>
			<g>
				<rect x="174.9" y="135.9" class="st8" width="56" height="7.6"/>
				<rect x="174.9" y="142.7" class="st9" width="56" height="0.8"/>
			</g>
			<g>
				<rect x="174.9" y="143.5" class="st8" width="56" height="7.6"/>
				<rect x="174.9" y="150.2" class="st9" width="56" height="0.8"/>
			</g>
		</g>
		<rect x="174.9" y="68.2" class="st10" width="20.3" height="11"/>
		<rect x="212.3" y="68.2" class="st10" width="20.3" height="11"/>
		<rect x="160.3" y="84.5" class="st24" width="85.2" height="2"/>
	</g>
	<path class="st15" d="M274.3,95.2c0,14.7-4.4,28.4-11.9,39.9c-3.7,5.7-8.2,10.8-13.3,15.1c-12.7,10.9-29.2,17.5-47.3,17.5
		c-40.1,0-72.5-32.5-72.5-72.5c0-5.5,0.6-10.8,1.8-15.9c0.8-3.6,1.9-7.1,3.2-10.4c10.5-27,36.8-46.2,67.6-46.2
		C241.8,22.7,274.3,55.2,274.3,95.2z"/>
	<polygon class="st25" points="316.3,-35.7 314.8,-9 -2.9,-9 -7,-35.7 	"/>
	<path class="st26" d="M314.8-9l-6.5,111.3l-146.7,39.3l-17.2-15c9.9-12.1,15.8-27.5,15.8-44.3c0-38.7-31.3-70-70-70
		c-20.2,0-38.4,8.6-51.2,22.3L-1.7-1l-1.2-8H314.8z"/>
	<path class="st27" d="M323-9v220H-21V-9h18.1l1.2,8l40.8,35.6C27.5,47.1,20.3,63.9,20.3,82.3c0,38.7,31.3,70,70,70
		c21.8,0,41.3-10,54.2-25.7l17.2,15l146.7-39.3L314.8-9H323z"/>
	<path class="st28" d="M154.3,175.7H-0.3v-41.3h154.7c11.4,0,20.7,9.3,20.7,20.7v0C175,166.4,165.7,175.7,154.3,175.7z"/>
	<path class="st29" d="M160.3,82.3c0,16.8-5.9,32.3-15.8,44.3c-12.8,15.7-32.3,25.7-54.2,25.7c-38.7,0-70-31.3-70-70
		c0-18.4,7.1-35.2,18.8-47.7c12.8-13.7,31-22.3,51.2-22.3C129,12.3,160.3,43.7,160.3,82.3z"/>
	<circle class="st30" cx="25" cy="155.5" r="17"/>
	<circle class="st31" cx="65.2" cy="155.5" r="17"/>
	<circle class="st32" cx="105.4" cy="155.5" r="17"/>
	<circle class="st33" cx="145.7" cy="155.5" r="17"/>
</g>
<g id="Layer_3" class="st0">
	<g class="st1">
		<polygon class="st34" points="247.4,64.3 247.4,138.3 126.1,138.3 126.1,64.3 186.8,22.4 		"/>
		<rect x="99.2" y="138.3" class="st35" width="175.2" height="5.4"/>
		<polygon class="st36" points="258.8,64.3 247.4,64.3 186.8,22.4 126.1,64.3 114.7,64.3 186.8,14.4 		"/>
		<g>
			<path class="st37" d="M130.7,126.5c0,4.5-4.1,8.2-9.1,8.2h-8.5c-4.4,0-8.1-2.8-8.9-6.6c-0.1-0.5-0.2-1.1-0.2-1.6
				c0-2.9,1.6-5.4,4-6.8c0.4-4.2,4.3-7.5,9-7.5c4.6,0,8.4,3.1,9,7.1c0.8,0.4,1.6,1,2.2,1.6C129.8,122.4,130.7,124.3,130.7,126.5z"/>
			<rect x="109.4" y="134" class="st4" width="16" height="4.3"/>
			<rect x="108.8" y="136.7" class="st2" width="17.1" height="1.5"/>
			<path class="st38" d="M130.7,126.5c0,4.5-4.1,8.2-9.1,8.2h-8.5c-4.4,0-8.1-2.8-8.9-6.6c1.9,1.6,5.2,3.5,9.6,2.8
				c7.2-1.1,7.6-7.6,7.6-7.6s4.2,1.1,6.9-2.3C129.8,122.4,130.7,124.3,130.7,126.5z"/>
		</g>
		<g>
			<path class="st37" d="M265.3,126.5c0,4.5-4.1,8.2-9.1,8.2h-8.5c-4.4,0-8.1-2.8-8.9-6.6c-0.1-0.5-0.2-1.1-0.2-1.6
				c0-2.9,1.6-5.4,4-6.8c0.4-4.2,4.3-7.5,9-7.5c4.6,0,8.4,3.1,9,7.1c0.8,0.4,1.6,1,2.2,1.6C264.4,122.4,265.3,124.3,265.3,126.5z"/>
			<rect x="244" y="134" class="st4" width="16" height="4.3"/>
			<rect x="243.4" y="136.7" class="st2" width="17.1" height="1.5"/>
			<path class="st38" d="M265.3,126.5c0,4.5-4.1,8.2-9.1,8.2h-8.5c-4.4,0-8.1-2.8-8.9-6.6c1.9,1.6,5.2,3.5,9.6,2.8
				c7.2-1.1,7.6-7.6,7.6-7.6s4.2,1.1,6.9-2.3C264.4,122.4,265.3,124.3,265.3,126.5z"/>
		</g>
		<g>
			<rect x="133.6" y="82.6" class="st39" width="29.3" height="32.9"/>
			<rect x="135.8" y="84.7" class="st40" width="25" height="28.7"/>
			<rect x="147.2" y="84.7" class="st39" width="2.2" height="28.7"/>
			
				<rect x="147.3" y="86.5" transform="matrix(-1.836970e-16 1 -1 -1.836970e-16 247.3478 -49.2878)" class="st39" width="2" height="25.1"/>
		</g>
		<g>
			<rect x="211.6" y="82.6" class="st39" width="29.3" height="32.9"/>
			<rect x="213.8" y="84.7" class="st40" width="25" height="28.7"/>
			<rect x="225.2" y="84.7" class="st39" width="2.2" height="28.7"/>
			
				<rect x="225.3" y="86.5" transform="matrix(-1.836970e-16 1 -1 -1.836970e-16 325.2955 -127.2355)" class="st39" width="2" height="25.1"/>
		</g>
		<rect x="170.1" y="70.8" class="st41" width="9.3" height="5.2"/>
		<rect x="182.1" y="70.8" class="st41" width="9.3" height="5.2"/>
		<rect x="194.1" y="70.8" class="st41" width="9.3" height="5.2"/>
		<polygon class="st6" points="247.4,64.3 247.4,66.3 186.8,25 126.1,66 126.1,64.3 186.8,22.4 		"/>
		<g>
			<rect x="170.1" y="82.6" class="st39" width="33.3" height="55.7"/>
			<rect x="172.4" y="84.7" class="st42" width="28.8" height="53.6"/>
			<rect x="174.7" y="86.5" class="st36" width="24" height="15.6"/>
			<rect x="174.7" y="103.8" class="st36" width="24" height="15.6"/>
			<rect x="174.7" y="121.2" class="st36" width="24" height="15.6"/>
			<ellipse class="st2" cx="195.1" cy="111.2" rx="2.1" ry="1.9"/>
		</g>
	</g>
	<path class="st15" d="M274.8,89.9c0,47.4-38.5,85.9-85.9,85.9c-43.7,0-79.7-32.6-85.2-74.8c-0.5-3.6-0.7-7.3-0.7-11.1
		C103,42.5,141.5,4,188.9,4c22.6,0,43.2,8.8,58.6,23.1C264.3,42.8,274.8,65.1,274.8,89.9z"/>
	<path class="st43" d="M302-1l-54.5,28.1C232.1,12.8,211.5,4,188.9,4C141.5,4,103,42.5,103,89.9c0,3.8,0.2,7.5,0.7,11.1H-1V-6h285.7
		L302-1z"/>
	<path class="st44" d="M311-6v204H-1v-97h104.7c5.4,42.2,41.5,74.8,85.2,74.8c47.4,0,85.9-38.5,85.9-85.9
		c0-24.8-10.5-47.1-27.3-62.8L302-1l-17.3-5H311z"/>
	<path class="st45" d="M73.1,175.7H-0.3v-41.3h73.4c11.4,0,20.7,9.3,20.7,20.7v0C93.7,166.4,84.5,175.7,73.1,175.7z"/>
	<circle class="st46" cx="25" cy="155.5" r="17"/>
	<circle class="st47" cx="65.2" cy="155.5" r="17"/>
</g>
<g id="Layer_4" class="st0">
	<g class="st1">
		<g>
			<rect x="59" y="21.1" class="st48" width="26.3" height="35.1"/>
			<rect x="79.6" y="21.1" class="st49" width="5.7" height="35.1"/>
			<rect x="57" y="14.3" class="st48" width="30.2" height="11.9"/>
			<rect x="59" y="26.3" class="st49" width="26.3" height="2.5"/>
		</g>
		<polygon class="st50" points="139.7,58.7 67.6,58.7 103.7,28.5 		"/>
		<rect x="14.1" y="152.1" class="st49" width="175.9" height="4.6"/>
		<rect x="33.4" y="58.7" class="st50" width="140.5" height="93.4"/>
		<g>
			<rect x="42.7" y="66.3" class="st51" width="23" height="28.4"/>
			<rect x="44.4" y="68.1" class="st52" width="19.5" height="24.7"/>
			<rect x="53.4" y="68.1" class="st51" width="1.7" height="24.7"/>
			
				<rect x="53.4" y="70.7" transform="matrix(-1.836970e-16 1 -1 -1.836970e-16 134.6997 26.3073)" class="st51" width="1.7" height="19.7"/>
		</g>
		<g>
			<rect x="92.2" y="66.3" class="st51" width="23" height="28.4"/>
			<rect x="93.9" y="68.1" class="st52" width="19.5" height="24.7"/>
			<rect x="102.8" y="68.1" class="st51" width="1.7" height="24.7"/>
			
				<rect x="102.8" y="70.7" transform="matrix(-1.836970e-16 1 -1 -1.836970e-16 184.1801 -23.173)" class="st51" width="1.7" height="19.7"/>
		</g>
		<g>
			<rect x="141.7" y="66.3" class="st51" width="23" height="28.4"/>
			<rect x="143.4" y="68.1" class="st52" width="19.5" height="24.7"/>
			<rect x="152.3" y="68.1" class="st51" width="1.7" height="24.7"/>
			
				<rect x="152.3" y="70.7" transform="matrix(-1.836970e-16 1 -1 -1.836970e-16 233.6604 -72.6534)" class="st51" width="1.7" height="19.7"/>
		</g>
		<g>
			<rect x="42.7" y="106.7" class="st51" width="23" height="28.4"/>
			<rect x="44.4" y="108.5" class="st52" width="19.5" height="24.7"/>
			<rect x="53.4" y="108.5" class="st51" width="1.7" height="24.7"/>
			
				<rect x="53.4" y="111" transform="matrix(-1.836970e-16 1 -1 -1.836970e-16 175.0702 66.6778)" class="st51" width="1.7" height="19.7"/>
		</g>
		<g>
			<rect x="141.7" y="106.7" class="st51" width="23" height="28.4"/>
			<rect x="143.4" y="108.5" class="st52" width="19.5" height="24.7"/>
			<rect x="152.3" y="108.5" class="st51" width="1.7" height="24.7"/>
			
				<rect x="152.3" y="111" transform="matrix(-1.836970e-16 1 -1 -1.836970e-16 274.0309 -32.2829)" class="st51" width="1.7" height="19.7"/>
		</g>
		<g>
			<rect x="90.6" y="104.1" class="st53" width="26.1" height="48"/>
			<rect x="92.4" y="105.9" class="st54" width="22.5" height="46.2"/>
			<rect x="94.3" y="107.5" class="st53" width="18.8" height="13.4"/>
			<rect x="94.3" y="122.4" class="st53" width="18.8" height="13.4"/>
			<rect x="94.3" y="137.4" class="st53" width="18.8" height="13.4"/>
			<circle class="st2" cx="110.2" cy="128.8" r="1.6"/>
		</g>
		<g>
			<path class="st55" d="M39.3,141.9c0,3.9-3.2,7.1-7.1,7.1h-6.7c-3.4,0-6.3-2.5-7-5.7c-0.1-0.5-0.1-0.9-0.1-1.4
				c0-2.5,1.3-4.6,3.2-5.9c0.3-3.6,3.4-6.4,7.1-6.4c3.6,0,6.6,2.7,7,6.2c0.6,0.4,1.2,0.8,1.7,1.4C38.6,138.4,39.3,140.1,39.3,141.9z
				"/>
			<rect x="22.6" y="148.4" class="st4" width="12.5" height="3.7"/>
			<rect x="22.2" y="150.8" class="st2" width="13.4" height="1.3"/>
			<path class="st56" d="M39.3,141.9c0,3.9-3.2,7.1-7.1,7.1h-6.7c-3.4,0-6.3-2.5-7-5.7c1.5,1.4,4.1,3,7.5,2.4c5.6-1,5.9-6.6,5.9-6.6
				s3.3,1,5.4-2C38.6,138.4,39.3,140.1,39.3,141.9z"/>
		</g>
		<g>
			<path class="st55" d="M187.4,141.9c0,3.9-3.2,7.1-7.1,7.1h-6.7c-3.4,0-6.3-2.5-7-5.7c-0.1-0.5-0.1-0.9-0.1-1.4
				c0-2.5,1.3-4.6,3.2-5.9c0.3-3.6,3.4-6.4,7.1-6.4c3.6,0,6.6,2.7,7,6.2c0.6,0.4,1.2,0.8,1.7,1.4
				C186.7,138.4,187.4,140.1,187.4,141.9z"/>
			<rect x="170.7" y="148.4" class="st4" width="12.5" height="3.7"/>
			<rect x="170.3" y="150.8" class="st2" width="13.4" height="1.3"/>
			<path class="st56" d="M187.4,141.9c0,3.9-3.2,7.1-7.1,7.1h-6.7c-3.4,0-6.3-2.5-7-5.7c1.5,1.4,4.1,3,7.5,2.4
				c5.6-1,5.9-6.6,5.9-6.6s3.3,1,5.4-2C186.7,138.4,187.4,140.1,187.4,141.9z"/>
		</g>
		<polygon class="st51" points="181.4,48.6 181.4,58.7 139.7,58.7 103.7,28.5 67.6,58.7 25.9,58.7 25.9,48.6 67.6,48.6 103.7,17.9 
			139.7,48.6 		"/>
		<polygon class="st57" points="173.9,58.7 173.9,61.9 139.7,61.9 103.7,31.7 67.6,61.9 33.4,61.9 33.4,58.7 67.6,58.7 103.7,28.5 
			139.7,58.7 		"/>
	</g>
	<polygon class="st58" points="315,223 309,222.7 309,114 311,115 	"/>
	<path class="st15" d="M176.8,85.6c0,42.9-34.8,77.7-77.7,77.7c-21.1,0-40.3-8.4-54.3-22.1C30.4,127,21.5,107.3,21.5,85.6
		c0-42.9,34.8-77.7,77.7-77.7c28,0,52.6,14.9,66.3,37.1C172.7,56.9,176.8,70.7,176.8,85.6z"/>
	<path class="st59" d="M21.5,85.6c0,21.8,9,41.4,23.4,55.5L-1,177.7l-13.3,26.7L309,222.7V313H-24.3V-20.3H309V114L166.3,44.3
		l-0.9,0.7C151.8,22.8,127.2,7.9,99.2,7.9C56.3,7.9,21.5,42.7,21.5,85.6z"/>
	<path class="st60" d="M309,114v108.6l-323.3-18.3L-1,177.7l45.9-36.5c14,13.7,33.2,22.1,54.3,22.1c42.9,0,77.7-34.8,77.7-77.7
		c0-14.9-4.2-28.7-11.4-40.5l0.9-0.7L309,114z"/>
	<path class="st61" d="M114.6,175.7h-115v-41.3h115c11.4,0,20.7,9.3,20.7,20.7v0C135.3,166.4,126.1,175.7,114.6,175.7z"/>
	<circle class="st62" cx="25" cy="155.5" r="17"/>
	<circle class="st63" cx="65.2" cy="155.5" r="17"/>
	<circle class="st64" cx="105.4" cy="155.5" r="17"/>
</g>
<g id="Layer_5" class="st0">
	<g class="st1">
		<g>
			<g>
				<polygon class="st8" points="232.4,40.7 213.8,40.7 214.9,40 223.1,34.3 231.3,40 				"/>
				<polygon class="st65" points="232.4,40.7 213.8,40.7 214.9,40 231.3,40 				"/>
			</g>
			<g>
				<polygon class="st8" points="241.6,47.1 204.6,47.1 205.6,46.4 213.8,40.7 232.4,40.7 240.6,46.4 				"/>
				<polygon class="st65" points="241.6,47.1 204.6,47.1 205.6,46.4 240.6,46.4 				"/>
			</g>
			<g>
				<polygon class="st8" points="250.9,53.6 195.3,53.6 196.3,52.8 204.6,47.1 241.6,47.1 249.9,52.8 				"/>
				<polygon class="st65" points="250.9,53.6 195.3,53.6 196.3,52.8 249.9,52.8 				"/>
			</g>
			<g>
				<polygon class="st8" points="259.9,59.8 259.9,60 186.3,60 186.3,59.8 187.1,59.3 195.3,53.6 250.9,53.6 259.1,59.3 				"/>
				<polygon class="st65" points="259.9,59.8 259.9,60 186.3,60 186.3,59.8 187.1,59.3 259.1,59.3 				"/>
			</g>
			<g>
				<rect x="186.3" y="60" class="st8" width="73.6" height="6.4"/>
				<rect x="186.3" y="65.7" class="st65" width="73.6" height="0.7"/>
			</g>
			<g>
				<rect x="186.3" y="66.4" class="st8" width="73.6" height="6.4"/>
				<rect x="186.3" y="72.1" class="st65" width="73.6" height="0.7"/>
			</g>
			<g>
				<rect x="186.3" y="72.8" class="st8" width="73.6" height="6.4"/>
				<rect x="186.3" y="78.5" class="st65" width="73.6" height="0.7"/>
			</g>
			<g>
				<rect x="186.3" y="79.2" class="st8" width="73.6" height="6.4"/>
				<rect x="186.3" y="84.9" class="st65" width="73.6" height="0.7"/>
			</g>
			<g>
				<rect x="186.3" y="85.6" class="st8" width="73.6" height="6.4"/>
				<rect x="186.3" y="91.3" class="st65" width="73.6" height="0.7"/>
			</g>
			<g>
				<rect x="186.3" y="92" class="st8" width="73.6" height="6.4"/>
				<rect x="186.3" y="97.7" class="st65" width="73.6" height="0.7"/>
			</g>
			<g>
				<rect x="186.3" y="98.5" class="st8" width="73.6" height="6.4"/>
				<rect x="186.3" y="104.2" class="st65" width="73.6" height="0.7"/>
			</g>
		</g>
		<rect x="159.1" y="152.9" class="st66" width="125.4" height="3.9"/>
		<g>
			<g>
				<polygon class="st8" points="234.3,77.2 212.4,77.2 213.6,76.3 223.4,69.6 233.1,76.3 				"/>
				<polygon class="st65" points="234.3,77.2 212.4,77.2 213.6,76.3 233.1,76.3 				"/>
			</g>
			<g>
				<polygon class="st8" points="245.2,84.7 201.5,84.7 202.7,83.9 212.4,77.2 234.3,77.2 244,83.9 				"/>
				<polygon class="st65" points="245.2,84.7 201.5,84.7 202.7,83.9 244,83.9 				"/>
			</g>
			<g>
				<polygon class="st8" points="256.1,92.3 190.6,92.3 191.8,91.5 201.5,84.7 245.2,84.7 254.9,91.5 				"/>
				<polygon class="st65" points="256.1,92.3 190.6,92.3 191.8,91.5 254.9,91.5 				"/>
			</g>
			<g>
				<polygon class="st8" points="266.8,99.7 266.8,99.9 179.9,99.9 179.9,99.7 180.9,99 190.6,92.3 256.1,92.3 265.9,99 				"/>
				<polygon class="st65" points="266.8,99.7 266.8,99.9 179.9,99.9 179.9,99.7 180.9,99 265.9,99 				"/>
			</g>
			<g>
				<rect x="179.9" y="99.9" class="st8" width="86.9" height="7.6"/>
				<rect x="179.9" y="106.6" class="st65" width="86.9" height="0.8"/>
			</g>
			<g>
				<rect x="179.9" y="107.4" class="st8" width="86.9" height="7.6"/>
				<rect x="179.9" y="114.2" class="st65" width="86.9" height="0.8"/>
			</g>
			<g>
				<rect x="179.9" y="115" class="st8" width="86.9" height="7.6"/>
				<rect x="179.9" y="121.7" class="st65" width="86.9" height="0.8"/>
			</g>
			<g>
				<rect x="179.9" y="122.6" class="st8" width="86.9" height="7.6"/>
				<rect x="179.9" y="129.3" class="st65" width="86.9" height="0.8"/>
			</g>
			<g>
				<rect x="179.9" y="130.1" class="st8" width="86.9" height="7.6"/>
				<rect x="179.9" y="136.9" class="st65" width="86.9" height="0.8"/>
			</g>
			<g>
				<rect x="179.9" y="137.7" class="st8" width="86.9" height="7.6"/>
				<rect x="179.9" y="144.4" class="st65" width="86.9" height="0.8"/>
			</g>
			<g>
				<rect x="179.9" y="145.3" class="st8" width="86.9" height="7.6"/>
				<rect x="179.9" y="152" class="st65" width="86.9" height="0.8"/>
			</g>
		</g>
		<rect x="211.4" y="112.8" class="st67" width="23.9" height="40"/>
		<rect x="213.1" y="114.3" class="st68" width="20.6" height="38.5"/>
		<g>
			<rect x="185.3" y="114.1" class="st65" width="21" height="23.7"/>
			<rect x="186.9" y="115.6" class="st69" width="17.9" height="20.6"/>
			<rect x="195.1" y="115.6" class="st65" width="1.5" height="20.6"/>
			
				<rect x="195.1" y="116.9" transform="matrix(-1.836970e-16 1 -1 -1.836970e-16 321.734 -69.961)" class="st65" width="1.4" height="18"/>
		</g>
		<g>
			<rect x="241.1" y="114.1" class="st65" width="21" height="23.7"/>
			<rect x="242.7" y="115.6" class="st69" width="17.9" height="20.6"/>
			<rect x="250.9" y="115.6" class="st65" width="1.5" height="20.6"/>
			
				<rect x="250.9" y="116.9" transform="matrix(-1.836970e-16 1 -1 -1.836970e-16 377.533 -125.76)" class="st65" width="1.4" height="18"/>
		</g>
		<polygon class="st67" points="274.9,99.7 266.8,99.7 223.4,69.6 179.9,99.7 171.8,99.7 223.4,63.8 		"/>
		<polygon class="st70" points="266.8,99.7 266.8,101.2 223.4,71.4 179.9,100.9 179.9,99.7 223.4,69.6 		"/>
		<g>
			<rect x="215.8" y="42.9" class="st65" width="15.1" height="17"/>
			<rect x="216.9" y="44" class="st69" width="12.8" height="14.8"/>
			<rect x="222.8" y="44" class="st65" width="1.1" height="14.8"/>
			
				<rect x="222.9" y="45" transform="matrix(-1.836970e-16 1 -1 -1.836970e-16 274.8112 -171.9074)" class="st65" width="1" height="12.9"/>
		</g>
		<polygon class="st67" points="266.8,59.8 259.9,59.8 223.1,34.3 186.3,59.8 179.4,59.8 223.1,29.4 		"/>
		<polygon class="st6" points="259.9,59.8 259.9,61 223.1,35.9 186.3,60.8 186.3,59.8 223.1,34.3 		"/>
		<g>
			<path class="st71" d="M184.7,144.4c0,3.3-2.9,5.9-6.5,5.9h-6.1c-3.2,0-5.8-2-6.4-4.8c-0.1-0.4-0.1-0.8-0.1-1.2
				c0-2.1,1.1-3.9,2.9-4.9c0.3-3,3.1-5.4,6.5-5.4c3.3,0,6,2.2,6.4,5.1c0.6,0.3,1.1,0.7,1.6,1.1C184.1,141.4,184.7,142.8,184.7,144.4
				z"/>
			<rect x="169.5" y="149.8" class="st4" width="11.4" height="3.1"/>
			<rect x="169.1" y="151.7" class="st2" width="12.2" height="1.1"/>
			<path class="st72" d="M184.7,144.4c0,3.3-2.9,5.9-6.5,5.9h-6.1c-3.2,0-5.8-2-6.4-4.8c1.4,1.2,3.7,2.5,6.9,2
				c5.1-0.8,5.4-5.5,5.4-5.5s3,0.8,4.9-1.7C184.1,141.4,184.7,142.8,184.7,144.4z"/>
		</g>
		<g>
			<ellipse class="st65" cx="223.4" cy="95.2" rx="12.2" ry="11.2"/>
			<ellipse class="st69" cx="223.4" cy="95.2" rx="10.9" ry="10"/>
			<rect x="222.6" y="84.9" class="st65" width="1.5" height="20.7"/>
			
				<rect x="222.4" y="83.4" transform="matrix(-1.836970e-16 1 -1 -1.836970e-16 318.3583 -127.8766)" class="st65" width="1.3" height="23.7"/>
		</g>
	</g>
	<path class="st15" d="M292.8,89.8c0,39.1-31.7,70.8-70.8,70.8c-39.1,0-70.8-31.7-70.8-70.8v-0.3C151.5,50.5,183,19,222,19
		c12.3,0,23.8,3.1,33.9,8.6C277.9,39.7,292.8,63,292.8,89.8z"/>
	<path class="st73" d="M301-1.4V183h-33l-270-3l153.3-90.5v0.3c0,39.1,31.7,70.8,70.8,70.8c39.1,0,70.8-31.7,70.8-70.8
		c0-26.8-14.9-50.1-36.8-62.1l37.6-22.2l6-5L301-1.4z"/>
	<path class="st74" d="M301-2.5v1.1l-1.5,1.9l-6,5l-37.6,22.2C245.9,22.2,234.3,19,222,19c-39,0-70.6,31.5-70.8,70.4L-2,180V-2.5
		H301z"/>
	<path class="st75" d="M154.3,175.7H-0.3v-41.3h154.7c11.4,0,20.7,9.3,20.7,20.7v0C175,166.4,165.7,175.7,154.3,175.7z"/>
	<circle class="st76" cx="25" cy="155.5" r="17"/>
	<circle class="st64" cx="65.2" cy="155.5" r="17"/>
	<circle class="st77" cx="105.4" cy="155.5" r="17"/>
	<circle class="st78" cx="145.7" cy="155.5" r="17"/>
</g>
<g id="Layer_6">
	<g>
		<rect x="80.7" y="155.6" class="st79" width="164.4" height="5.6"/>
		<rect x="181.4" y="19.1" class="st10" width="21.2" height="14.2"/>
		<rect x="107.7" y="43.6" class="st80" width="114.4" height="112"/>
		<rect x="105" y="29.9" class="st81" width="119.8" height="13.8"/>
		<rect x="107.7" y="43.6" class="st82" width="114.4" height="3.6"/>
		<g>
			<rect x="126.9" y="52.8" class="st83" width="27.5" height="34"/>
			<rect x="129" y="54.9" class="st84" width="23.4" height="29.7"/>
			<rect x="139.7" y="54.9" class="st83" width="2" height="29.7"/>
			
				<rect x="139.7" y="58" transform="matrix(-1.836970e-16 1 -1 -1.836970e-16 210.4592 -70.9281)" class="st83" width="2" height="23.6"/>
		</g>
		<g>
			<rect x="177.2" y="52.8" class="st83" width="27.5" height="34"/>
			<rect x="179.3" y="54.9" class="st84" width="23.4" height="29.7"/>
			<rect x="190" y="54.9" class="st83" width="2" height="29.7"/>
			
				<rect x="190" y="58" transform="matrix(-1.836970e-16 1 -1 -1.836970e-16 260.7535 -121.2224)" class="st83" width="2" height="23.6"/>
		</g>
		<g>
			<rect x="177.2" y="107.2" class="st83" width="27.5" height="34"/>
			<rect x="179.3" y="109.3" class="st84" width="23.4" height="29.7"/>
			<rect x="190" y="109.3" class="st83" width="2" height="29.7"/>
			
				<rect x="190" y="112.4" transform="matrix(-1.836970e-16 1 -1 -1.836970e-16 315.1527 -66.8232)" class="st83" width="2" height="23.6"/>
		</g>
		<g>
			<rect x="126.1" y="98.1" class="st81" width="31.3" height="57.5"/>
			<rect x="128.2" y="100.2" class="st82" width="27" height="55.4"/>
			<rect x="130.4" y="102.1" class="st85" width="22.6" height="16.1"/>
			<rect x="130.4" y="120" class="st85" width="22.6" height="16.1"/>
			<rect x="130.4" y="137.9" class="st85" width="22.6" height="16.1"/>
			<circle class="st2" cx="149.5" cy="127.7" r="2"/>
		</g>
		<g>
			<path class="st71" d="M112.9,143.4c0,4.7-3.8,8.5-8.5,8.5h-8c-4.1,0-7.6-2.9-8.3-6.8c-0.1-0.5-0.2-1.1-0.2-1.7
				c0-2.9,1.5-5.5,3.8-7.1c0.4-4.3,4-7.7,8.5-7.7c4.3,0,7.9,3.2,8.4,7.4c0.8,0.4,1.5,1,2.1,1.6C112,139.2,112.9,141.2,112.9,143.4z"
				/>
			<rect x="92.9" y="151.1" class="st4" width="15" height="4.5"/>
			<rect x="92.4" y="154" class="st2" width="16" height="1.6"/>
			<path class="st86" d="M112.9,143.4c0,4.7-3.8,8.5-8.5,8.5h-8c-4.1,0-7.6-2.9-8.3-6.8c1.8,1.7,4.9,3.6,9,2.9
				c6.7-1.2,7.1-7.9,7.1-7.9s3.9,1.2,6.5-2.4C112,139.2,112.9,141.2,112.9,143.4z"/>
		</g>
		<g>
			<path class="st71" d="M239.2,143.4c0,4.7-3.8,8.5-8.5,8.5h-8c-4.1,0-7.6-2.9-8.3-6.8c-0.1-0.5-0.2-1.1-0.2-1.7
				c0-2.9,1.5-5.5,3.8-7.1c0.4-4.3,4-7.7,8.5-7.7c4.3,0,7.9,3.2,8.4,7.4c0.8,0.4,1.5,1,2.1,1.6C238.3,139.2,239.2,141.2,239.2,143.4
				z"/>
			<rect x="219.2" y="151.1" class="st4" width="15" height="4.5"/>
			<rect x="218.7" y="154" class="st2" width="16" height="1.6"/>
			<path class="st86" d="M239.2,143.4c0,4.7-3.8,8.5-8.5,8.5h-8c-4.1,0-7.6-2.9-8.3-6.8c1.8,1.7,4.9,3.6,9,2.9
				c6.7-1.2,7.1-7.9,7.1-7.9s3.9,1.2,6.5-2.4C238.3,139.2,239.2,141.2,239.2,143.4z"/>
		</g>
	</g>
	<path class="st87" d="M149-30.2V-3c-28.2,12.7-47.9,41-47.9,73.9c0,8.5,1.3,16.7,3.7,24.3L-2,122l-10.6,38.1L-32,163L-43-23L99-41
		L149-30.2z"/>
	<path class="st88" d="M263.1,70.9c0,19.4-6.8,37.1-18.1,51.1c-14.9,18.3-37.5,29.9-62.9,29.9c-11.8,0-23-2.5-33.1-7.1
		c-4.5-2-8.8-4.5-12.9-7.3c-14.6-10.1-25.8-25-31.2-42.3c-2.4-7.7-3.7-15.9-3.7-24.3C101.1,38,120.8,9.7,149-3c10-4.5,21-7,32.7-7.1
		c0.2,0,0.3,0,0.5,0C226.9-10.1,263.1,26.2,263.1,70.9z"/>
	<path class="st89" d="M325,191l-18,26l-331-16l11.4-40.9L-2,122l106.8-26.7c5.5,17.4,16.6,32.2,31.2,42.3c4.1,2.8,8.4,5.2,12.9,7.3
		c10.1,4.5,21.3,7.1,33.1,7.1c25.4,0,48-11.7,62.9-29.9l74.2,64L325,191z"/>
	<path class="st90" d="M377-74v260h-57.8L245,122c11.3-13.9,18.1-31.7,18.1-51.1c0-44.7-36.3-81-81-81c-0.2,0-0.3,0-0.5,0
		C170-10,159-7.5,149-3v-71H377z"/>
	<path class="st82" d="M154.3,175.7H-0.3v-41.3h154.7c11.4,0,20.7,9.3,20.7,20.7v0C175,166.4,165.7,175.7,154.3,175.7z"/>
	<circle class="st91" cx="25" cy="155.5" r="17"/>
	<circle class="st8" cx="65.2" cy="155.5" r="17"/>
	<circle class="st83" cx="105.4" cy="155.5" r="17"/>
	<circle class="st80" cx="145.7" cy="155.5" r="17"/>
</g>
</svg>
