<svg xmlns="http://www.w3.org/2000/svg" width="86.166" height="105.835" viewBox="0 0 86.166 105.835">
  <path id="XMLID_952_" d="M115.15,41.239a2.353,2.353,0,0,1,2.353-2.353h2.224a2.353,2.353,0,1,1,0,4.705H117.5A2.352,2.352,0,0,1,115.15,41.239ZM80.84,6.929a2.353,2.353,0,0,0,2.353-2.353V2.353a2.353,2.353,0,0,0-4.705,0V4.577A2.353,2.353,0,0,0,80.84,6.929Zm25.924,10.738a2.345,2.345,0,0,0,1.663-.689L110,15.406a2.353,2.353,0,0,0-3.327-3.328L105.1,13.651a2.353,2.353,0,0,0,1.663,4.016ZM69.74,35.394A14.867,14.867,0,0,1,80.127,21.178a2.353,2.353,0,0,1,1.428,0,14.923,14.923,0,0,1,0,28.433,2.351,2.351,0,0,1-1.428,0A14.868,14.868,0,0,1,69.74,35.394Zm4.705,0a10.176,10.176,0,0,0,6.4,9.477,10.219,10.219,0,0,0,0-18.954A10.175,10.175,0,0,0,74.445,35.394ZM89.066,78.936H71.733c-1.7,0-2.971-.962-2.971-1.822s1.271-1.821,2.971-1.821H94.316a2.353,2.353,0,1,0,0-4.705H71.733c-4.233,0-7.677,2.928-7.677,6.526s3.444,6.527,7.677,6.527H89.066c1.7,0,2.971.961,2.971,1.821,0,.953-1.416,1.822-2.971,1.822H78.649c-4.233,0-7.676,2.928-7.676,6.527s3.444,6.527,7.676,6.527h1.122v3.146a2.353,2.353,0,1,0,4.705,0v-5.5a2.353,2.353,0,0,0-2.353-2.353H78.649c-1.7,0-2.971-.962-2.971-1.822s1.271-1.821,2.971-1.821H89.066c4.233,0,7.677-2.928,7.677-6.527S93.3,78.936,89.066,78.936Zm21.743-13.556c-8.074-5.361-18.765-8.314-30.1-8.314s-22.028,2.952-30.1,8.314c-8.371,5.558-12.981,13.045-12.981,21.083a2.352,2.352,0,0,0,2.353,2.353H57.011a2.352,2.352,0,0,0,2.182-3.231L56.462,78.8A2.353,2.353,0,0,0,52.1,80.557l1.43,3.552H42.5c.825-5.537,4.553-10.726,10.7-14.81,7.312-4.855,17.078-7.528,27.5-7.528s20.188,2.674,27.5,7.528c6.151,4.084,9.879,9.273,10.7,14.81H107.887l1.43-3.552a2.353,2.353,0,0,0-4.365-1.757l-2.731,6.784a2.353,2.353,0,0,0,2.182,3.231h17.034a2.352,2.352,0,0,0,2.353-2.353C123.79,78.425,119.18,70.937,110.809,65.379Zm-57.557-48.4a2.353,2.353,0,1,0,3.327-3.327l-1.572-1.573a2.353,2.353,0,0,0-3.327,3.327Zm-11.3,26.613h2.224a2.353,2.353,0,1,0,0-4.705H41.954a2.353,2.353,0,0,0,0,4.705Z" transform="translate(-37.624)" fill="#797979"/>
</svg>
